%TF.GenerationSoftware,KiCad,Pcbnew,7.0.2*%
%TF.CreationDate,2024-02-26T12:12:49+02:00*%
%TF.ProjectId,STM32_EVB,53544d33-325f-4455-9642-2e6b69636164,01*%
%TF.SameCoordinates,Original*%
%TF.FileFunction,Plated,1,2,PTH,Mixed*%
%TF.FilePolarity,Positive*%
%FSLAX46Y46*%
G04 Gerber Fmt 4.6, Leading zero omitted, Abs format (unit mm)*
G04 Created by KiCad (PCBNEW 7.0.2) date 2024-02-26 12:12:49*
%MOMM*%
%LPD*%
G01*
G04 APERTURE LIST*
%TA.AperFunction,ViaDrill*%
%ADD10C,0.300000*%
%TD*%
G04 aperture for slot hole*
%TA.AperFunction,ComponentDrill*%
%ADD11O,0.500000X1.200000*%
%TD*%
%TA.AperFunction,ComponentDrill*%
%ADD12C,1.000000*%
%TD*%
G04 APERTURE END LIST*
D10*
X87122000Y-51308000D03*
X87122000Y-52832000D03*
X87122000Y-54356000D03*
X87122000Y-55880000D03*
X87122000Y-57404000D03*
X87122000Y-58928000D03*
X87122000Y-60452000D03*
X87122000Y-61976000D03*
X87122000Y-63500000D03*
X87122000Y-65024000D03*
X87122000Y-66548000D03*
X87122000Y-68072000D03*
X87122000Y-69596000D03*
X87122000Y-71120000D03*
X87122000Y-72644000D03*
X87122000Y-74168000D03*
X87122000Y-75692000D03*
X87122000Y-77216000D03*
X87122000Y-78740000D03*
X87122000Y-80264000D03*
X87122000Y-81788000D03*
X87122000Y-83312000D03*
X87122000Y-84836000D03*
X87122000Y-86360000D03*
X87122000Y-87884000D03*
X87122000Y-89408000D03*
X87122000Y-90932000D03*
X87122000Y-92456000D03*
X87122000Y-93980000D03*
X87122000Y-95504000D03*
X87122000Y-97028000D03*
X87122000Y-100838000D03*
X88646000Y-100838000D03*
X89916000Y-51562000D03*
X90170000Y-100838000D03*
X90243500Y-57150000D03*
X90932000Y-52324000D03*
X90932000Y-53340000D03*
X91440000Y-51541500D03*
X91694000Y-95504000D03*
X91694000Y-97028000D03*
X91694000Y-100838000D03*
X91948000Y-49784000D03*
X92202000Y-51054000D03*
X92593500Y-70104000D03*
X92710000Y-72644000D03*
X93080500Y-53265072D03*
X93218000Y-51071222D03*
X93218000Y-81788000D03*
X93218000Y-83312000D03*
X93218000Y-84836000D03*
X93218000Y-86360000D03*
X93218000Y-87884000D03*
X93218000Y-89408000D03*
X93218000Y-90932000D03*
X93218000Y-95504000D03*
X93218000Y-97028000D03*
X93218000Y-98552000D03*
X93218000Y-100838000D03*
X93472000Y-49784000D03*
X93980000Y-56779500D03*
X93980000Y-60960000D03*
X94371500Y-59944000D03*
X94488000Y-66548000D03*
X94488000Y-70291500D03*
X94742000Y-81788000D03*
X94742000Y-83312000D03*
X94742000Y-84836000D03*
X94742000Y-86360000D03*
X94742000Y-87884000D03*
X94742000Y-89408000D03*
X94742000Y-90932000D03*
X95758000Y-58674000D03*
X95758000Y-65320719D03*
X95839332Y-56359499D03*
X96078500Y-53340000D03*
X96128500Y-70866000D03*
X96176834Y-50496722D03*
X96266000Y-81788000D03*
X96266000Y-83312000D03*
X96266000Y-84836000D03*
X96266000Y-86360000D03*
X96266000Y-87884000D03*
X96266000Y-89408000D03*
X96266000Y-90932000D03*
X96892943Y-64828228D03*
X97282000Y-50546000D03*
X97282000Y-64008000D03*
X97699559Y-66642928D03*
X97790000Y-81788000D03*
X97790000Y-83312000D03*
X97790000Y-84836000D03*
X98131503Y-50546000D03*
X98298000Y-66040000D03*
X98673182Y-51200399D03*
X99314000Y-81026000D03*
X99508515Y-50839982D03*
X99568000Y-66040000D03*
X99764501Y-58420000D03*
X99822000Y-59944000D03*
X100076000Y-90424000D03*
X100122259Y-60844777D03*
X100330000Y-62484000D03*
X100584000Y-50546000D03*
X100584000Y-51562000D03*
X100584000Y-53086000D03*
X100584000Y-54356000D03*
X102104500Y-65532000D03*
X102717767Y-61823767D03*
X103124000Y-68326000D03*
X103632000Y-46482000D03*
X103886000Y-95504000D03*
X103886000Y-97028000D03*
X103886000Y-98552000D03*
X103886000Y-100838000D03*
X104394000Y-87884000D03*
X104394000Y-89408000D03*
X104394000Y-90932000D03*
X104394000Y-92456000D03*
X104648000Y-50546000D03*
X105410000Y-46482000D03*
X105410000Y-60706000D03*
X105410000Y-64516000D03*
X105410000Y-100838000D03*
X106934000Y-46482000D03*
X106934000Y-60706000D03*
X106934000Y-64516000D03*
X106934000Y-66040000D03*
X106934000Y-100838000D03*
X108458000Y-46482000D03*
X108458000Y-51562000D03*
X108458000Y-53086000D03*
X108458000Y-54610000D03*
X108458000Y-56134000D03*
X108458000Y-57658000D03*
X108458000Y-59182000D03*
X108458000Y-60706000D03*
X108458000Y-64516000D03*
X108458000Y-66040000D03*
X108458000Y-69596000D03*
X108458000Y-71120000D03*
X108458000Y-72644000D03*
X108458000Y-74168000D03*
X108458000Y-75692000D03*
X108458000Y-77216000D03*
X108458000Y-78740000D03*
X108458000Y-80264000D03*
X108458000Y-81788000D03*
X108458000Y-83312000D03*
X108458000Y-84836000D03*
X108458000Y-86360000D03*
X108458000Y-87884000D03*
X108458000Y-89408000D03*
X108458000Y-90932000D03*
X108458000Y-92456000D03*
X108458000Y-93980000D03*
X108458000Y-95504000D03*
X108458000Y-97028000D03*
X108458000Y-100838000D03*
D11*
%TO.C,J2*%
X94998000Y-99385500D03*
X101598000Y-99385500D03*
D12*
%TO.C,J5*%
X88900000Y-55880000D03*
X88900000Y-58420000D03*
X88900000Y-60960000D03*
X88900000Y-63500000D03*
X88900000Y-66040000D03*
X88900000Y-68580000D03*
X88900000Y-71120000D03*
X88900000Y-73660000D03*
X88900000Y-76200000D03*
X88900000Y-78740000D03*
X88900000Y-81280000D03*
X88900000Y-83820000D03*
X88900000Y-86360000D03*
X88900000Y-88900000D03*
X88900000Y-91440000D03*
X88900000Y-93980000D03*
%TO.C,J4*%
X106680000Y-71120000D03*
X106680000Y-73660000D03*
X106680000Y-76200000D03*
X106680000Y-78740000D03*
X106680000Y-81280000D03*
X106680000Y-83820000D03*
X106680000Y-86360000D03*
X106680000Y-88900000D03*
X106680000Y-91440000D03*
X106680000Y-93980000D03*
M02*
