%TF.GenerationSoftware,KiCad,Pcbnew,7.0.2*%
%TF.CreationDate,2024-02-26T12:12:44+02:00*%
%TF.ProjectId,STM32_EVB,53544d33-325f-4455-9642-2e6b69636164,01*%
%TF.SameCoordinates,Original*%
%TF.FileFunction,Soldermask,Top*%
%TF.FilePolarity,Negative*%
%FSLAX46Y46*%
G04 Gerber Fmt 4.6, Leading zero omitted, Abs format (unit mm)*
G04 Created by KiCad (PCBNEW 7.0.2) date 2024-02-26 12:12:44*
%MOMM*%
%LPD*%
G01*
G04 APERTURE LIST*
G04 Aperture macros list*
%AMRoundRect*
0 Rectangle with rounded corners*
0 $1 Rounding radius*
0 $2 $3 $4 $5 $6 $7 $8 $9 X,Y pos of 4 corners*
0 Add a 4 corners polygon primitive as box body*
4,1,4,$2,$3,$4,$5,$6,$7,$8,$9,$2,$3,0*
0 Add four circle primitives for the rounded corners*
1,1,$1+$1,$2,$3*
1,1,$1+$1,$4,$5*
1,1,$1+$1,$6,$7*
1,1,$1+$1,$8,$9*
0 Add four rect primitives between the rounded corners*
20,1,$1+$1,$2,$3,$4,$5,0*
20,1,$1+$1,$4,$5,$6,$7,0*
20,1,$1+$1,$6,$7,$8,$9,0*
20,1,$1+$1,$8,$9,$2,$3,0*%
G04 Aperture macros list end*
%ADD10C,2.000000*%
%ADD11RoundRect,0.237500X0.250000X0.237500X-0.250000X0.237500X-0.250000X-0.237500X0.250000X-0.237500X0*%
%ADD12RoundRect,0.150000X0.150000X-0.512500X0.150000X0.512500X-0.150000X0.512500X-0.150000X-0.512500X0*%
%ADD13R,0.700000X1.000000*%
%ADD14R,0.700000X0.600000*%
%ADD15RoundRect,0.250001X0.624999X-0.462499X0.624999X0.462499X-0.624999X0.462499X-0.624999X-0.462499X0*%
%ADD16RoundRect,0.150000X0.625000X-0.150000X0.625000X0.150000X-0.625000X0.150000X-0.625000X-0.150000X0*%
%ADD17RoundRect,0.250000X0.650000X-0.350000X0.650000X0.350000X-0.650000X0.350000X-0.650000X-0.350000X0*%
%ADD18RoundRect,0.237500X-0.250000X-0.237500X0.250000X-0.237500X0.250000X0.237500X-0.250000X0.237500X0*%
%ADD19C,1.500000*%
%ADD20RoundRect,0.237500X-0.237500X0.300000X-0.237500X-0.300000X0.237500X-0.300000X0.237500X0.300000X0*%
%ADD21RoundRect,0.237500X-0.300000X-0.237500X0.300000X-0.237500X0.300000X0.237500X-0.300000X0.237500X0*%
%ADD22RoundRect,0.155000X0.212500X0.155000X-0.212500X0.155000X-0.212500X-0.155000X0.212500X-0.155000X0*%
%ADD23RoundRect,0.237500X0.300000X0.237500X-0.300000X0.237500X-0.300000X-0.237500X0.300000X-0.237500X0*%
%ADD24C,0.750000*%
%ADD25R,1.700000X0.800000*%
%ADD26R,1.100000X0.800000*%
%ADD27C,0.990600*%
%ADD28C,0.787400*%
%ADD29R,0.350000X0.350000*%
%ADD30R,0.350000X0.300000*%
%ADD31R,0.300000X0.350000*%
%ADD32R,0.600000X0.600000*%
%ADD33R,0.430000X0.430000*%
%ADD34RoundRect,0.250000X-0.450000X0.325000X-0.450000X-0.325000X0.450000X-0.325000X0.450000X0.325000X0*%
%ADD35RoundRect,0.155000X-0.212500X-0.155000X0.212500X-0.155000X0.212500X0.155000X-0.212500X0.155000X0*%
%ADD36R,1.700000X1.700000*%
%ADD37O,1.700000X1.700000*%
%ADD38RoundRect,0.102000X-0.200000X-0.675000X0.200000X-0.675000X0.200000X0.675000X-0.200000X0.675000X0*%
%ADD39RoundRect,0.102000X-0.800000X-0.700000X0.800000X-0.700000X0.800000X0.700000X-0.800000X0.700000X0*%
%ADD40RoundRect,0.102000X-0.950000X-0.950000X0.950000X-0.950000X0.950000X0.950000X-0.950000X0.950000X0*%
%ADD41O,1.104000X2.004000*%
G04 APERTURE END LIST*
D10*
%TO.C,H3*%
X88900000Y-98298000D03*
%TD*%
D11*
%TO.C,R4*%
X103274500Y-73914000D03*
X101449500Y-73914000D03*
%TD*%
D12*
%TO.C,U1*%
X99954000Y-88900000D03*
X100904000Y-88900000D03*
X101854000Y-88900000D03*
X101854000Y-86625000D03*
X99954000Y-86625000D03*
%TD*%
D10*
%TO.C,H4*%
X106680000Y-98298000D03*
%TD*%
D11*
%TO.C,R5*%
X106830500Y-56134000D03*
X105005500Y-56134000D03*
%TD*%
D13*
%TO.C,D1*%
X97298000Y-91960000D03*
D14*
X97298000Y-93660000D03*
X99298000Y-93660000D03*
X99298000Y-91760000D03*
%TD*%
D15*
%TO.C,F1*%
X101600000Y-94197500D03*
X101600000Y-91222500D03*
%TD*%
D11*
%TO.C,R2*%
X103274500Y-72136000D03*
X101449500Y-72136000D03*
%TD*%
D16*
%TO.C,J1*%
X103156000Y-66778000D03*
X103156000Y-65778000D03*
X103156000Y-64778000D03*
X103156000Y-63778000D03*
D17*
X107031000Y-68078000D03*
X107031000Y-62478000D03*
%TD*%
D18*
%TO.C,R3*%
X96623500Y-73914000D03*
X98448500Y-73914000D03*
%TD*%
D19*
%TO.C,FID1*%
X88646000Y-52578000D03*
%TD*%
D20*
%TO.C,C1*%
X102362000Y-58827500D03*
X102362000Y-60552500D03*
%TD*%
D10*
%TO.C,H1*%
X88900000Y-49022000D03*
%TD*%
D21*
%TO.C,C3*%
X96673500Y-72136000D03*
X98398500Y-72136000D03*
%TD*%
D19*
%TO.C,FID3*%
X92202000Y-99568000D03*
%TD*%
D22*
%TO.C,C6*%
X104767000Y-54610000D03*
X103632000Y-54610000D03*
%TD*%
D19*
%TO.C,FID2*%
X106426000Y-58420000D03*
%TD*%
D10*
%TO.C,H2*%
X106680000Y-49022000D03*
%TD*%
D23*
%TO.C,C2*%
X103224500Y-70358000D03*
X101499500Y-70358000D03*
%TD*%
D24*
%TO.C,S3*%
X102362000Y-78240000D03*
D25*
X102362000Y-76540000D03*
X102362000Y-79940000D03*
D26*
X104012000Y-78240000D03*
%TD*%
D22*
%TO.C,C5*%
X104767000Y-53340000D03*
X103632000Y-53340000D03*
%TD*%
D24*
%TO.C,S1*%
X93218000Y-78240000D03*
D25*
X93218000Y-76540000D03*
X93218000Y-79940000D03*
D26*
X94868000Y-78240000D03*
%TD*%
D21*
%TO.C,C8*%
X100241000Y-84593000D03*
X101966000Y-84593000D03*
%TD*%
D20*
%TO.C,C7*%
X98055500Y-87286500D03*
X98055500Y-89011500D03*
%TD*%
D24*
%TO.C,S2*%
X97790000Y-78240000D03*
D25*
X97790000Y-76540000D03*
X97790000Y-79940000D03*
D26*
X99440000Y-78240000D03*
%TD*%
D27*
%TO.C,J3*%
X94234000Y-68961000D03*
X99314000Y-67945000D03*
X99314000Y-69977000D03*
D28*
X95504000Y-69596000D03*
X95504000Y-68326000D03*
X96774000Y-69596000D03*
X96774000Y-68326000D03*
X98044000Y-69596000D03*
X98044000Y-68326000D03*
%TD*%
D29*
%TO.C,MD1*%
X95065000Y-49784000D03*
D30*
X95065000Y-50259000D03*
X95065000Y-50709000D03*
X95065000Y-51159000D03*
X95065000Y-51609000D03*
X95065000Y-52059000D03*
X95065000Y-52509000D03*
X95065000Y-52959000D03*
X95065000Y-53409000D03*
X95065000Y-53859000D03*
X95065000Y-54309000D03*
X95065000Y-54759000D03*
X95065000Y-55209000D03*
X95065000Y-55659000D03*
X95065000Y-56109000D03*
X95065000Y-56559000D03*
D29*
X95065000Y-57034000D03*
D31*
X95540001Y-57034000D03*
X95990001Y-57034000D03*
X96440001Y-57034000D03*
X96890001Y-57034000D03*
X97340001Y-57034000D03*
X97790001Y-57034000D03*
X98240001Y-57034000D03*
X98690001Y-57034000D03*
X99140001Y-57034000D03*
X99590001Y-57034000D03*
X100040001Y-57034000D03*
X100490001Y-57034000D03*
X100940001Y-57034000D03*
D29*
X101415000Y-57034000D03*
D30*
X101415000Y-56559000D03*
X101415000Y-56109000D03*
X101415000Y-55659000D03*
X101415000Y-55209000D03*
X101415000Y-54759000D03*
X101415000Y-54309000D03*
X101415000Y-53859000D03*
X101415000Y-53409000D03*
X101415000Y-52959000D03*
X101415000Y-52509000D03*
X101415000Y-52059000D03*
X101415000Y-51609000D03*
X101415000Y-51159000D03*
X101415000Y-50709000D03*
X101415000Y-50259000D03*
D29*
X101415000Y-49784000D03*
D31*
X100940000Y-49784000D03*
X100490000Y-49784000D03*
X100040000Y-49784000D03*
X99590000Y-49784000D03*
X99140000Y-49784000D03*
X98690000Y-49784000D03*
X98240000Y-49784000D03*
X97790000Y-49784000D03*
X97340000Y-49784000D03*
X96890000Y-49784000D03*
X96440000Y-49784000D03*
X95990000Y-49784000D03*
X95540000Y-49784000D03*
D32*
X96890000Y-52059000D03*
X96890000Y-52959000D03*
X96890000Y-53859000D03*
X96890000Y-54759000D03*
X96890000Y-55659000D03*
X97790000Y-55659000D03*
X98690000Y-55659000D03*
X99590000Y-55659000D03*
X99590000Y-54759000D03*
X99590000Y-53859000D03*
X99590000Y-52959000D03*
X97790000Y-52059000D03*
X97790000Y-52959000D03*
X97790000Y-53859000D03*
X97790000Y-54759000D03*
X98690000Y-54759000D03*
X98690000Y-53859000D03*
X98690000Y-52959000D03*
X98690000Y-52059000D03*
D33*
X95190000Y-46824000D03*
X101290000Y-46824000D03*
%TD*%
D34*
%TO.C,D2*%
X106680000Y-52306001D03*
X106680000Y-54356001D03*
%TD*%
D35*
%TO.C,C4*%
X103632000Y-52070000D03*
X104767000Y-52070000D03*
%TD*%
D11*
%TO.C,R1*%
X95146500Y-73914000D03*
X93321500Y-73914000D03*
%TD*%
D36*
%TO.C,J5*%
X88900000Y-93980000D03*
D37*
X88900000Y-91440000D03*
X88900000Y-88900000D03*
X88900000Y-86360000D03*
X88900000Y-83820000D03*
X88900000Y-81280000D03*
X88900000Y-78740000D03*
X88900000Y-76200000D03*
X88900000Y-73660000D03*
X88900000Y-71120000D03*
X88900000Y-68580000D03*
X88900000Y-66040000D03*
X88900000Y-63500000D03*
X88900000Y-60960000D03*
X88900000Y-58420000D03*
X88900000Y-55880000D03*
%TD*%
D38*
%TO.C,J2*%
X96998000Y-96710500D03*
X97648000Y-96710500D03*
X98298000Y-96710500D03*
X98948000Y-96710500D03*
X99598000Y-96710500D03*
D39*
X95098000Y-96935500D03*
X101498000Y-96935500D03*
D40*
X99498000Y-99385500D03*
X97098000Y-99385500D03*
D41*
X94998000Y-99385500D03*
X101598000Y-99385500D03*
%TD*%
D36*
%TO.C,J4*%
X106680000Y-71120000D03*
D37*
X106680000Y-73660000D03*
X106680000Y-76200000D03*
X106680000Y-78740000D03*
X106680000Y-81280000D03*
X106680000Y-83820000D03*
X106680000Y-86360000D03*
X106680000Y-88900000D03*
X106680000Y-91440000D03*
X106680000Y-93980000D03*
%TD*%
M02*
