%TF.GenerationSoftware,KiCad,Pcbnew,7.0.2*%
%TF.CreationDate,2024-02-26T12:12:44+02:00*%
%TF.ProjectId,STM32_EVB,53544d33-325f-4455-9642-2e6b69636164,01*%
%TF.SameCoordinates,Original*%
%TF.FileFunction,Copper,L2,Bot*%
%TF.FilePolarity,Positive*%
%FSLAX46Y46*%
G04 Gerber Fmt 4.6, Leading zero omitted, Abs format (unit mm)*
G04 Created by KiCad (PCBNEW 7.0.2) date 2024-02-26 12:12:44*
%MOMM*%
%LPD*%
G01*
G04 APERTURE LIST*
G04 Aperture macros list*
%AMFreePoly0*
4,1,19,0.500000,-0.750000,0.000000,-0.750000,0.000000,-0.744911,-0.071157,-0.744911,-0.207708,-0.704816,-0.327430,-0.627875,-0.420627,-0.520320,-0.479746,-0.390866,-0.500000,-0.250000,-0.500000,0.250000,-0.479746,0.390866,-0.420627,0.520320,-0.327430,0.627875,-0.207708,0.704816,-0.071157,0.744911,0.000000,0.744911,0.000000,0.750000,0.500000,0.750000,0.500000,-0.750000,0.500000,-0.750000,
$1*%
%AMFreePoly1*
4,1,19,0.000000,0.744911,0.071157,0.744911,0.207708,0.704816,0.327430,0.627875,0.420627,0.520320,0.479746,0.390866,0.500000,0.250000,0.500000,-0.250000,0.479746,-0.390866,0.420627,-0.520320,0.327430,-0.627875,0.207708,-0.704816,0.071157,-0.744911,0.000000,-0.744911,0.000000,-0.750000,-0.500000,-0.750000,-0.500000,0.750000,0.000000,0.750000,0.000000,0.744911,0.000000,0.744911,
$1*%
G04 Aperture macros list end*
%TA.AperFunction,ComponentPad*%
%ADD10R,1.700000X1.700000*%
%TD*%
%TA.AperFunction,ComponentPad*%
%ADD11O,1.700000X1.700000*%
%TD*%
%TA.AperFunction,ComponentPad*%
%ADD12O,0.900000X1.800000*%
%TD*%
%TA.AperFunction,SMDPad,CuDef*%
%ADD13FreePoly0,90.000000*%
%TD*%
%TA.AperFunction,SMDPad,CuDef*%
%ADD14FreePoly1,90.000000*%
%TD*%
%TA.AperFunction,ViaPad*%
%ADD15C,0.700000*%
%TD*%
%TA.AperFunction,Conductor*%
%ADD16C,0.150000*%
%TD*%
%TA.AperFunction,Conductor*%
%ADD17C,0.200000*%
%TD*%
G04 APERTURE END LIST*
%TA.AperFunction,EtchedComponent*%
%TO.C,JP1*%
G36*
X103678000Y-47748000D02*
G01*
X103078000Y-47748000D01*
X103078000Y-47248000D01*
X103678000Y-47248000D01*
X103678000Y-47748000D01*
G37*
%TD.AperFunction*%
%TD*%
D10*
%TO.P,J5,1,Pin_1*%
%TO.N,GND*%
X88900000Y-93980000D03*
D11*
%TO.P,J5,2,Pin_2*%
%TO.N,/USB_N*%
X88900000Y-91440000D03*
%TO.P,J5,3,Pin_3*%
%TO.N,/USB_P*%
X88900000Y-88900000D03*
%TO.P,J5,4,Pin_4*%
%TO.N,/I2C1_SCL*%
X88900000Y-86360000D03*
%TO.P,J5,5,Pin_5*%
%TO.N,/I2C1_SDA*%
X88900000Y-83820000D03*
%TO.P,J5,6,Pin_6*%
%TO.N,/A0{slash}PC2*%
X88900000Y-81280000D03*
%TO.P,J5,7,Pin_7*%
%TO.N,/A1{slash}PC3*%
X88900000Y-78740000D03*
%TO.P,J5,8,Pin_8*%
%TO.N,/SPI_~{CS}*%
X88900000Y-76200000D03*
%TO.P,J5,9,Pin_9*%
%TO.N,/SPI_SCK*%
X88900000Y-73660000D03*
%TO.P,J5,10,Pin_10*%
%TO.N,/SPI_POCI*%
X88900000Y-71120000D03*
%TO.P,J5,11,Pin_11*%
%TO.N,/SPI_PICO*%
X88900000Y-68580000D03*
%TO.P,J5,12,Pin_12*%
%TO.N,/RX*%
X88900000Y-66040000D03*
%TO.P,J5,13,Pin_13*%
%TO.N,/TX*%
X88900000Y-63500000D03*
%TO.P,J5,14,Pin_14*%
%TO.N,/UART_RTS {slash} SWO*%
X88900000Y-60960000D03*
%TO.P,J5,15,Pin_15*%
%TO.N,/UART_CTS*%
X88900000Y-58420000D03*
%TO.P,J5,16,Pin_16*%
%TO.N,+3.3V*%
X88900000Y-55880000D03*
%TD*%
D12*
%TO.P,J2,S5,SHIELD*%
%TO.N,GND*%
X94998000Y-99385500D03*
%TO.P,J2,S6,SHIELD*%
X101598000Y-99385500D03*
%TD*%
D10*
%TO.P,J4,1,Pin_1*%
%TO.N,GND*%
X106680000Y-71120000D03*
D11*
%TO.P,J4,2,Pin_2*%
%TO.N,/I2C3_SDA1*%
X106680000Y-73660000D03*
%TO.P,J4,3,Pin_3*%
%TO.N,/I2C3_SCL1*%
X106680000Y-76200000D03*
%TO.P,J4,4,Pin_4*%
%TO.N,/PWM0*%
X106680000Y-78740000D03*
%TO.P,J4,5,Pin_5*%
%TO.N,/D0{slash}PE3*%
X106680000Y-81280000D03*
%TO.P,J4,6,Pin_6*%
%TO.N,/D1{slash}PC10*%
X106680000Y-83820000D03*
%TO.P,J4,7,Pin_7*%
%TO.N,/D2{slash}PC11*%
X106680000Y-86360000D03*
%TO.P,J4,8,Pin_8*%
%TO.N,/D3{slash}PC12*%
X106680000Y-88900000D03*
%TO.P,J4,9,Pin_9*%
%TO.N,GND*%
X106680000Y-91440000D03*
%TO.P,J4,10,Pin_10*%
%TO.N,+3.3V*%
X106680000Y-93980000D03*
%TD*%
D13*
%TO.P,JP1,1,A*%
%TO.N,Net-(JP1-A)*%
X103378000Y-48148000D03*
D14*
%TO.P,JP1,2,B*%
%TO.N,GND*%
X103378000Y-46848000D03*
%TD*%
D15*
%TO.N,+3.3V*%
X93080500Y-53265072D03*
X93980000Y-56779500D03*
X98298000Y-66040000D03*
X94488000Y-70291500D03*
X102717767Y-61823767D03*
X102104500Y-65532000D03*
%TO.N,GND*%
X96266000Y-90932000D03*
X108458000Y-75692000D03*
X87122000Y-61976000D03*
X108458000Y-64516000D03*
X94742000Y-83312000D03*
X87122000Y-75692000D03*
X103632000Y-46482000D03*
X104648000Y-50546000D03*
X108458000Y-53086000D03*
X87122000Y-58928000D03*
X105410000Y-60706000D03*
X108458000Y-56134000D03*
X94742000Y-87884000D03*
X99314000Y-81026000D03*
X105410000Y-64516000D03*
X87122000Y-97028000D03*
X96266000Y-84836000D03*
X92710000Y-72644000D03*
X97790000Y-81788000D03*
X87122000Y-87884000D03*
X87122000Y-81788000D03*
X108458000Y-46482000D03*
X93472000Y-49784000D03*
X87122000Y-72644000D03*
X93218000Y-89408000D03*
X108458000Y-84836000D03*
X108458000Y-81788000D03*
X106934000Y-46482000D03*
X108458000Y-95504000D03*
X97790000Y-84836000D03*
X103886000Y-95504000D03*
X108458000Y-78740000D03*
X108458000Y-80264000D03*
X93218000Y-100838000D03*
X108458000Y-92456000D03*
X87122000Y-90932000D03*
X94742000Y-89408000D03*
X94742000Y-90932000D03*
X87122000Y-84836000D03*
X93218000Y-97028000D03*
X87122000Y-51308000D03*
X95839332Y-56359499D03*
X93218000Y-90932000D03*
X87122000Y-80264000D03*
X91694000Y-100838000D03*
X108458000Y-89408000D03*
X100330000Y-62484000D03*
X108458000Y-72644000D03*
X93218000Y-98552000D03*
X87122000Y-92456000D03*
X97790000Y-83312000D03*
X104394000Y-87884000D03*
X96266000Y-87884000D03*
X106934000Y-100838000D03*
X87122000Y-100838000D03*
X103886000Y-100838000D03*
X87122000Y-74168000D03*
X108458000Y-87884000D03*
X108458000Y-57658000D03*
X93218000Y-81788000D03*
X104394000Y-92456000D03*
X87122000Y-86360000D03*
X87122000Y-83312000D03*
X108458000Y-66040000D03*
X96266000Y-86360000D03*
X96266000Y-89408000D03*
X106934000Y-64516000D03*
X87122000Y-93980000D03*
X91694000Y-95504000D03*
X104394000Y-89408000D03*
X87122000Y-54356000D03*
X87122000Y-68072000D03*
X87122000Y-52832000D03*
X87122000Y-60452000D03*
X103124000Y-68326000D03*
X93218000Y-87884000D03*
X93218000Y-83312000D03*
X108458000Y-51562000D03*
X91694000Y-97028000D03*
X108458000Y-97028000D03*
X108458000Y-93980000D03*
X87122000Y-77216000D03*
X94742000Y-84836000D03*
X93218000Y-95504000D03*
X108458000Y-77216000D03*
X94742000Y-86360000D03*
X108458000Y-74168000D03*
X108458000Y-60706000D03*
X90170000Y-100838000D03*
X90243500Y-57150000D03*
X91948000Y-49784000D03*
X93218000Y-86360000D03*
X88646000Y-100838000D03*
X108458000Y-71120000D03*
X87122000Y-65024000D03*
X87122000Y-66548000D03*
X108458000Y-86360000D03*
X87122000Y-63500000D03*
X100584000Y-51562000D03*
X108458000Y-69596000D03*
X87122000Y-89408000D03*
X100076000Y-90424000D03*
X106934000Y-66040000D03*
X104394000Y-90932000D03*
X87122000Y-71120000D03*
X99568000Y-66040000D03*
X108458000Y-54610000D03*
X96266000Y-81788000D03*
X108458000Y-90932000D03*
X103886000Y-97028000D03*
X93218000Y-84836000D03*
X108458000Y-59182000D03*
X87122000Y-57404000D03*
X94742000Y-81788000D03*
X87122000Y-55880000D03*
X105410000Y-46482000D03*
X87122000Y-78740000D03*
X105410000Y-100838000D03*
X103886000Y-98552000D03*
X106934000Y-60706000D03*
X89916000Y-51562000D03*
X96266000Y-83312000D03*
X108458000Y-83312000D03*
X87122000Y-95504000D03*
X87122000Y-69596000D03*
X108458000Y-100838000D03*
%TO.N,/~{RST}*%
X92593500Y-70104000D03*
X96128500Y-70866000D03*
%TO.N,/USB_N*%
X100122259Y-60844777D03*
%TO.N,/USB_P*%
X99822000Y-59944000D03*
%TO.N,/I2C1_SDA*%
X95758000Y-58674000D03*
%TO.N,/I2C1_SCL*%
X100584000Y-54356000D03*
%TO.N,/UART_RTS {slash} SWO*%
X97699559Y-66642928D03*
X93980000Y-60960000D03*
X94488000Y-66548000D03*
%TO.N,/PWM0*%
X96078500Y-53340000D03*
%TO.N,/UART_CTS*%
X94371500Y-59944000D03*
%TO.N,/RX*%
X99764501Y-58420000D03*
%TO.N,/TX*%
X100584000Y-50546000D03*
X90932000Y-53340000D03*
%TO.N,/SPI_PICO*%
X99508515Y-50839982D03*
X90932000Y-52324000D03*
%TO.N,/SPI_POCI*%
X91440000Y-51541500D03*
X98673182Y-51200399D03*
%TO.N,/SPI_SCK*%
X98131503Y-50546000D03*
X92202000Y-51054000D03*
%TO.N,/SPI_~{CS}*%
X93218000Y-51071222D03*
X97282000Y-50546000D03*
%TO.N,Net-(JP1-A)*%
X96176834Y-50496722D03*
%TO.N,/D3{slash}PC12*%
X95758000Y-65320719D03*
%TO.N,/D2{slash}PC11*%
X96892943Y-64828228D03*
%TO.N,/D0{slash}PE3*%
X100584000Y-53086000D03*
%TO.N,/D1{slash}PC10*%
X97282000Y-64008000D03*
%TD*%
D16*
%TO.N,+3.3V*%
X93080500Y-53265072D02*
X93080500Y-55880000D01*
X94488000Y-70291500D02*
X93913500Y-70291500D01*
X93080500Y-55880000D02*
X88900000Y-55880000D01*
X102108000Y-62433534D02*
X102717767Y-61823767D01*
X93218000Y-66802000D02*
X94124781Y-65895219D01*
X93980000Y-56779500D02*
X93080500Y-55880000D01*
X102104500Y-65532000D02*
X102108000Y-65528500D01*
X93218000Y-69596000D02*
X93218000Y-66802000D01*
X98153219Y-65895219D02*
X98298000Y-66040000D01*
X93913500Y-70291500D02*
X93218000Y-69596000D01*
X94124781Y-65895219D02*
X98153219Y-65895219D01*
X102108000Y-65528500D02*
X102108000Y-62433534D01*
%TO.N,GND*%
X106934000Y-66040000D02*
X106426000Y-66040000D01*
X104140000Y-68326000D02*
X103124000Y-68326000D01*
X93726000Y-58166000D02*
X93980000Y-58166000D01*
X108458000Y-53086000D02*
X108204000Y-53086000D01*
X95786501Y-56359499D02*
X95839332Y-56359499D01*
X106426000Y-66040000D02*
X104140000Y-68326000D01*
X106680000Y-51562000D02*
X108458000Y-51562000D01*
X93980000Y-58166000D02*
X95786501Y-56359499D01*
X106680000Y-51562000D02*
X100584000Y-51562000D01*
X108204000Y-53086000D02*
X106680000Y-51562000D01*
X92710000Y-57150000D02*
X90243500Y-57150000D01*
X92710000Y-57150000D02*
X93726000Y-58166000D01*
%TO.N,/~{RST}*%
X92593500Y-70241500D02*
X93218000Y-70866000D01*
X92593500Y-70104000D02*
X92593500Y-70241500D01*
X93218000Y-70866000D02*
X96128500Y-70866000D01*
D17*
%TO.N,/USB_N*%
X91694000Y-64008000D02*
X92451000Y-63251000D01*
X97651223Y-60844777D02*
X100122259Y-60844777D01*
X88900000Y-91440000D02*
X91694000Y-88646000D01*
X95245000Y-63251000D02*
X97651223Y-60844777D01*
X92451000Y-63251000D02*
X95245000Y-63251000D01*
X91694000Y-88646000D02*
X91694000Y-64008000D01*
%TO.N,/USB_P*%
X91303000Y-63891000D02*
X91303000Y-86497000D01*
X91303000Y-86497000D02*
X88900000Y-88900000D01*
X98044000Y-59944000D02*
X95087000Y-62901000D01*
X99822000Y-59944000D02*
X98044000Y-59944000D01*
X92293000Y-62901000D02*
X91303000Y-63891000D01*
X95087000Y-62901000D02*
X92293000Y-62901000D01*
D16*
%TO.N,/I2C1_SDA*%
X95296000Y-61676000D02*
X94696000Y-62276000D01*
X92034116Y-62276000D02*
X90678000Y-63632116D01*
X94696000Y-62276000D02*
X92034116Y-62276000D01*
X90678000Y-63632116D02*
X90678000Y-82042000D01*
X90678000Y-82042000D02*
X88900000Y-83820000D01*
X95296000Y-59981736D02*
X95296000Y-61676000D01*
X95758000Y-59519736D02*
X95296000Y-59981736D01*
X95758000Y-58674000D02*
X95758000Y-59519736D01*
%TO.N,/I2C1_SCL*%
X100584000Y-58674000D02*
X100584000Y-54356000D01*
X88900000Y-86360000D02*
X90978000Y-84282000D01*
X92158380Y-62576000D02*
X94904000Y-62576000D01*
X90978000Y-84282000D02*
X90978000Y-63756380D01*
X98298000Y-59182000D02*
X100076000Y-59182000D01*
X100076000Y-59182000D02*
X100584000Y-58674000D01*
X90978000Y-63756380D02*
X92158380Y-62576000D01*
X94904000Y-62576000D02*
X98298000Y-59182000D01*
%TO.N,/UART_RTS {slash} SWO*%
X94488000Y-66548000D02*
X97604631Y-66548000D01*
X97604631Y-66548000D02*
X97699559Y-66642928D01*
X93980000Y-60960000D02*
X88900000Y-60960000D01*
%TO.N,/PWM0*%
X96078500Y-53340000D02*
X99314000Y-53340000D01*
X99314000Y-53340000D02*
X100203000Y-52451000D01*
X100965000Y-52451000D02*
X101530000Y-53016000D01*
X101530000Y-73590000D02*
X106680000Y-78740000D01*
X100203000Y-52451000D02*
X100965000Y-52451000D01*
X101530000Y-53016000D02*
X101530000Y-73590000D01*
%TO.N,/UART_CTS*%
X92456000Y-58420000D02*
X88900000Y-58420000D01*
X94371500Y-59944000D02*
X93980000Y-59944000D01*
X93980000Y-59944000D02*
X92456000Y-58420000D01*
%TO.N,/RX*%
X89916000Y-66040000D02*
X90378000Y-65578000D01*
X88900000Y-66040000D02*
X89916000Y-66040000D01*
X90378000Y-63507852D02*
X91909852Y-61976000D01*
X90378000Y-65578000D02*
X90378000Y-63507852D01*
X94996000Y-61551736D02*
X94996000Y-58420000D01*
X94996000Y-58420000D02*
X95504000Y-57912000D01*
X97790000Y-58420000D02*
X99764501Y-58420000D01*
X91909852Y-61976000D02*
X94571736Y-61976000D01*
X97282000Y-57912000D02*
X97790000Y-58420000D01*
X94571736Y-61976000D02*
X94996000Y-61551736D01*
X95504000Y-57912000D02*
X97282000Y-57912000D01*
%TO.N,/TX*%
X100584000Y-50546000D02*
X100584000Y-50577670D01*
X98617445Y-52544225D02*
X91727775Y-52544225D01*
X100584000Y-50577670D02*
X98617445Y-52544225D01*
X91727775Y-52544225D02*
X90932000Y-53340000D01*
%TO.N,/SPI_PICO*%
X91011276Y-52244724D02*
X90932000Y-52324000D01*
X99508515Y-51178239D02*
X98442030Y-52244724D01*
X98442030Y-52244724D02*
X91011276Y-52244724D01*
X99508515Y-50839982D02*
X99508515Y-51178239D01*
%TO.N,/SPI_POCI*%
X92855977Y-51945223D02*
X92838755Y-51928001D01*
X91826501Y-51928001D02*
X91440000Y-51541500D01*
X98673182Y-51200399D02*
X97928358Y-51945223D01*
X92838755Y-51928001D02*
X91826501Y-51928001D01*
X97928358Y-51945223D02*
X92855977Y-51945223D01*
%TO.N,/SPI_SCK*%
X92980034Y-51645722D02*
X92388312Y-51054000D01*
X97031781Y-51645722D02*
X92980034Y-51645722D01*
X92388312Y-51054000D02*
X92202000Y-51054000D01*
X98131503Y-50546000D02*
X97031781Y-51645722D01*
%TO.N,/SPI_~{CS}*%
X96756278Y-51071722D02*
X93218500Y-51071722D01*
X93218500Y-51071722D02*
X93218000Y-51071222D01*
X97282000Y-50546000D02*
X96756278Y-51071722D01*
%TO.N,Net-(JP1-A)*%
X102937000Y-49971000D02*
X103378000Y-49530000D01*
X96176834Y-50496722D02*
X96702556Y-49971000D01*
X103378000Y-49530000D02*
X103378000Y-48148000D01*
X96702556Y-49971000D02*
X102937000Y-49971000D01*
%TO.N,/D3{slash}PC12*%
X97298985Y-65278000D02*
X97152583Y-65424402D01*
X106680000Y-88900000D02*
X100330000Y-82550000D01*
X95861683Y-65424402D02*
X95758000Y-65320719D01*
X100330000Y-82550000D02*
X100330000Y-65532000D01*
X100076000Y-65278000D02*
X97298985Y-65278000D01*
X97152583Y-65424402D02*
X95861683Y-65424402D01*
X100330000Y-65532000D02*
X100076000Y-65278000D01*
%TO.N,/D2{slash}PC11*%
X100630000Y-80310000D02*
X100630000Y-65324000D01*
X106680000Y-86360000D02*
X100630000Y-80310000D01*
X100134228Y-64828228D02*
X96892943Y-64828228D01*
X100630000Y-65324000D02*
X100134228Y-64828228D01*
%TO.N,/D0{slash}PE3*%
X106680000Y-81280000D02*
X101230000Y-75830000D01*
X101230000Y-75830000D02*
X101230000Y-53732000D01*
X101230000Y-53732000D02*
X100584000Y-53086000D01*
%TO.N,/D1{slash}PC10*%
X99822000Y-64008000D02*
X97282000Y-64008000D01*
X106680000Y-83820000D02*
X100930000Y-78070000D01*
X100930000Y-78070000D02*
X100930000Y-65116000D01*
X100930000Y-65116000D02*
X99822000Y-64008000D01*
%TD*%
%TA.AperFunction,Conductor*%
%TO.N,GND*%
G36*
X100834163Y-61186651D02*
G01*
X100854471Y-61244368D01*
X100854500Y-61246761D01*
X100854500Y-64270454D01*
X100835593Y-64328645D01*
X100786093Y-64364609D01*
X100724907Y-64364609D01*
X100685496Y-64340458D01*
X100122311Y-63777273D01*
X100109435Y-63761416D01*
X100102083Y-63750162D01*
X100075888Y-63729774D01*
X100066697Y-63721659D01*
X100065518Y-63720480D01*
X100054073Y-63712309D01*
X100048170Y-63708094D01*
X100044887Y-63705646D01*
X99999207Y-63670091D01*
X99994040Y-63667431D01*
X99938551Y-63650911D01*
X99934669Y-63649667D01*
X99911279Y-63641638D01*
X99879890Y-63630862D01*
X99874127Y-63630023D01*
X99816299Y-63632415D01*
X99812208Y-63632500D01*
X97865188Y-63632500D01*
X97806997Y-63613593D01*
X97783713Y-63589739D01*
X97772484Y-63573471D01*
X97753312Y-63556486D01*
X97654240Y-63468717D01*
X97647286Y-63465067D01*
X97514363Y-63395302D01*
X97360987Y-63357500D01*
X97360985Y-63357500D01*
X97203015Y-63357500D01*
X97203013Y-63357500D01*
X97049636Y-63395302D01*
X96909761Y-63468716D01*
X96791517Y-63573470D01*
X96701780Y-63703476D01*
X96645762Y-63851184D01*
X96626721Y-64008000D01*
X96644202Y-64151967D01*
X96632447Y-64212013D01*
X96591933Y-64251560D01*
X96520702Y-64288945D01*
X96402460Y-64393698D01*
X96312723Y-64523704D01*
X96256705Y-64671412D01*
X96253858Y-64694863D01*
X96228073Y-64750350D01*
X96174599Y-64780084D01*
X96113860Y-64772708D01*
X96109572Y-64770588D01*
X95990363Y-64708021D01*
X95836987Y-64670219D01*
X95836985Y-64670219D01*
X95679015Y-64670219D01*
X95679013Y-64670219D01*
X95525636Y-64708021D01*
X95385761Y-64781435D01*
X95267517Y-64886189D01*
X95177780Y-65016195D01*
X95121762Y-65163903D01*
X95102721Y-65320719D01*
X95113415Y-65408786D01*
X95101660Y-65468832D01*
X95056856Y-65510500D01*
X95015137Y-65519719D01*
X94173992Y-65519719D01*
X94153676Y-65517612D01*
X94140513Y-65514852D01*
X94107564Y-65518959D01*
X94095319Y-65519719D01*
X94093667Y-65519719D01*
X94088141Y-65520640D01*
X94072663Y-65523223D01*
X94068621Y-65523811D01*
X94011164Y-65530974D01*
X94005602Y-65532756D01*
X93954708Y-65560297D01*
X93951075Y-65562167D01*
X93899044Y-65587605D01*
X93894368Y-65591092D01*
X93855176Y-65633665D01*
X93852344Y-65636617D01*
X92987271Y-66501689D01*
X92971419Y-66514562D01*
X92960162Y-66521917D01*
X92939766Y-66548120D01*
X92931658Y-66557304D01*
X92930480Y-66558481D01*
X92918090Y-66575835D01*
X92915646Y-66579112D01*
X92880095Y-66624788D01*
X92877427Y-66629971D01*
X92860911Y-66685448D01*
X92859664Y-66689341D01*
X92840862Y-66744111D01*
X92840023Y-66749871D01*
X92842415Y-66807699D01*
X92842500Y-66811790D01*
X92842500Y-69369040D01*
X92823593Y-69427231D01*
X92774093Y-69463195D01*
X92719809Y-69465164D01*
X92672485Y-69453500D01*
X92514515Y-69453500D01*
X92514513Y-69453500D01*
X92361135Y-69491302D01*
X92239508Y-69555139D01*
X92179196Y-69565440D01*
X92124348Y-69538324D01*
X92095913Y-69484147D01*
X92094500Y-69467479D01*
X92094500Y-64214900D01*
X92113407Y-64156709D01*
X92123497Y-64144896D01*
X92587898Y-63680496D01*
X92642414Y-63652719D01*
X92657901Y-63651500D01*
X95308432Y-63651500D01*
X95308433Y-63651500D01*
X95331382Y-63644043D01*
X95346462Y-63640421D01*
X95370304Y-63636646D01*
X95391798Y-63625693D01*
X95406146Y-63619749D01*
X95429090Y-63612296D01*
X95448606Y-63598115D01*
X95461846Y-63590002D01*
X95483342Y-63579050D01*
X95494543Y-63567848D01*
X95494549Y-63567844D01*
X97788119Y-61274273D01*
X97842636Y-61246496D01*
X97858123Y-61245277D01*
X99556328Y-61245277D01*
X99614519Y-61264184D01*
X99622168Y-61272022D01*
X99622778Y-61271335D01*
X99631774Y-61279305D01*
X99631776Y-61279307D01*
X99750019Y-61384060D01*
X99769968Y-61394530D01*
X99889895Y-61457474D01*
X100043272Y-61495277D01*
X100043274Y-61495277D01*
X100201246Y-61495277D01*
X100354622Y-61457474D01*
X100354624Y-61457473D01*
X100494499Y-61384060D01*
X100612742Y-61279307D01*
X100674025Y-61190521D01*
X100722641Y-61153373D01*
X100783808Y-61151895D01*
X100834163Y-61186651D01*
G37*
%TD.AperFunction*%
%TA.AperFunction,Conductor*%
G36*
X109178691Y-45739407D02*
G01*
X109214655Y-45788907D01*
X109219500Y-45819500D01*
X109219500Y-101500500D01*
X109200593Y-101558691D01*
X109151093Y-101594655D01*
X109120500Y-101599500D01*
X86459500Y-101599500D01*
X86401309Y-101580593D01*
X86365345Y-101531093D01*
X86360500Y-101500500D01*
X86360500Y-99881164D01*
X94048000Y-99881164D01*
X94048254Y-99886175D01*
X94062647Y-100027718D01*
X94120488Y-100212072D01*
X94214252Y-100381001D01*
X94340106Y-100527604D01*
X94492891Y-100645868D01*
X94666360Y-100730959D01*
X94747999Y-100752096D01*
X94748000Y-100752095D01*
X94748000Y-99760124D01*
X94762505Y-99833045D01*
X94817760Y-99915740D01*
X94900455Y-99970995D01*
X94998000Y-99990398D01*
X95095545Y-99970995D01*
X95178240Y-99915740D01*
X95233495Y-99833045D01*
X95248000Y-99760124D01*
X95248000Y-100755969D01*
X95418531Y-100692812D01*
X95582501Y-100590608D01*
X95722537Y-100457494D01*
X95832912Y-100298915D01*
X95909108Y-100121359D01*
X95948000Y-99932108D01*
X95948000Y-99881164D01*
X100648000Y-99881164D01*
X100648254Y-99886175D01*
X100662647Y-100027718D01*
X100720488Y-100212072D01*
X100814252Y-100381001D01*
X100940106Y-100527604D01*
X101092891Y-100645868D01*
X101266360Y-100730959D01*
X101347999Y-100752096D01*
X101348000Y-100752095D01*
X101348000Y-99760124D01*
X101362505Y-99833045D01*
X101417760Y-99915740D01*
X101500455Y-99970995D01*
X101598000Y-99990398D01*
X101695545Y-99970995D01*
X101778240Y-99915740D01*
X101833495Y-99833045D01*
X101848000Y-99760124D01*
X101848000Y-100755969D01*
X102018531Y-100692812D01*
X102182501Y-100590608D01*
X102322537Y-100457494D01*
X102432912Y-100298915D01*
X102509108Y-100121359D01*
X102548000Y-99932108D01*
X102548000Y-99635501D01*
X102547999Y-99635500D01*
X101848000Y-99635500D01*
X101848000Y-99135499D01*
X101848001Y-99135500D01*
X102547999Y-99135500D01*
X102548000Y-99135498D01*
X102548000Y-98889836D01*
X102547745Y-98884824D01*
X102533352Y-98743281D01*
X102475511Y-98558927D01*
X102381747Y-98389998D01*
X102351125Y-98354328D01*
X105425709Y-98354328D01*
X105455924Y-98577384D01*
X105455925Y-98577387D01*
X105509827Y-98743281D01*
X105525484Y-98791466D01*
X105632147Y-98989680D01*
X105748435Y-99135500D01*
X105772492Y-99165666D01*
X105942004Y-99313765D01*
X106038620Y-99371490D01*
X106135235Y-99429215D01*
X106253214Y-99473493D01*
X106345976Y-99508307D01*
X106567453Y-99548500D01*
X106733932Y-99548500D01*
X106736155Y-99548500D01*
X106904188Y-99533377D01*
X107121170Y-99473493D01*
X107323973Y-99375829D01*
X107506078Y-99243522D01*
X107661632Y-99080825D01*
X107785635Y-98892968D01*
X107874103Y-98685988D01*
X107924191Y-98466537D01*
X107934290Y-98241670D01*
X107904075Y-98018613D01*
X107834517Y-97804536D01*
X107727852Y-97606319D01*
X107587508Y-97430334D01*
X107417996Y-97282235D01*
X107314118Y-97220171D01*
X107224764Y-97166784D01*
X107014025Y-97087693D01*
X106792547Y-97047500D01*
X106623845Y-97047500D01*
X106574338Y-97051955D01*
X106455807Y-97062623D01*
X106238830Y-97122506D01*
X106036029Y-97220169D01*
X105853921Y-97352479D01*
X105698369Y-97515174D01*
X105574364Y-97703033D01*
X105485897Y-97910011D01*
X105435808Y-98129465D01*
X105425709Y-98354328D01*
X102351125Y-98354328D01*
X102255893Y-98243395D01*
X102103108Y-98125131D01*
X101929640Y-98040041D01*
X101848000Y-98018903D01*
X101848000Y-99010876D01*
X101833495Y-98937955D01*
X101778240Y-98855260D01*
X101695545Y-98800005D01*
X101598000Y-98780602D01*
X101500455Y-98800005D01*
X101417760Y-98855260D01*
X101362505Y-98937955D01*
X101348000Y-99010876D01*
X101348000Y-99635501D01*
X101347999Y-99635500D01*
X100648001Y-99635500D01*
X100648000Y-99635501D01*
X100648000Y-99881164D01*
X95948000Y-99881164D01*
X95948000Y-99635501D01*
X95947999Y-99635500D01*
X95248001Y-99635500D01*
X95248000Y-99635501D01*
X95248000Y-99135499D01*
X95248001Y-99135500D01*
X95947999Y-99135500D01*
X95948000Y-99135499D01*
X100648000Y-99135499D01*
X100648001Y-99135500D01*
X101347999Y-99135500D01*
X101348000Y-99135499D01*
X101347999Y-98015028D01*
X101177472Y-98078184D01*
X101013498Y-98180391D01*
X100873462Y-98313505D01*
X100763087Y-98472084D01*
X100686891Y-98649640D01*
X100648000Y-98838891D01*
X100648000Y-99135499D01*
X95948000Y-99135499D01*
X95948000Y-98889836D01*
X95947745Y-98884824D01*
X95933352Y-98743281D01*
X95875511Y-98558927D01*
X95781747Y-98389998D01*
X95655893Y-98243395D01*
X95503108Y-98125131D01*
X95329640Y-98040041D01*
X95248000Y-98018903D01*
X95248000Y-99010876D01*
X95233495Y-98937955D01*
X95178240Y-98855260D01*
X95095545Y-98800005D01*
X94998000Y-98780602D01*
X94900455Y-98800005D01*
X94817760Y-98855260D01*
X94762505Y-98937955D01*
X94748000Y-99010876D01*
X94748000Y-98015028D01*
X94747999Y-98015028D01*
X94577472Y-98078184D01*
X94413498Y-98180391D01*
X94273462Y-98313505D01*
X94163087Y-98472084D01*
X94086891Y-98649640D01*
X94048000Y-98838891D01*
X94048000Y-99135499D01*
X94048001Y-99135500D01*
X94747999Y-99135500D01*
X94748000Y-99135499D01*
X94748000Y-99635501D01*
X94747999Y-99635500D01*
X94048001Y-99635500D01*
X94048000Y-99635501D01*
X94048000Y-99881164D01*
X86360500Y-99881164D01*
X86360500Y-98354328D01*
X87645709Y-98354328D01*
X87675924Y-98577384D01*
X87675925Y-98577387D01*
X87729827Y-98743281D01*
X87745484Y-98791466D01*
X87852147Y-98989680D01*
X87968435Y-99135500D01*
X87992492Y-99165666D01*
X88162004Y-99313765D01*
X88258619Y-99371490D01*
X88355235Y-99429215D01*
X88473214Y-99473493D01*
X88565976Y-99508307D01*
X88787453Y-99548500D01*
X88953932Y-99548500D01*
X88956155Y-99548500D01*
X89124188Y-99533377D01*
X89341170Y-99473493D01*
X89543973Y-99375829D01*
X89726078Y-99243522D01*
X89881632Y-99080825D01*
X90005635Y-98892968D01*
X90094103Y-98685988D01*
X90144191Y-98466537D01*
X90154290Y-98241670D01*
X90124075Y-98018613D01*
X90054517Y-97804536D01*
X89947852Y-97606319D01*
X89807508Y-97430334D01*
X89637996Y-97282235D01*
X89534118Y-97220171D01*
X89444764Y-97166784D01*
X89234025Y-97087693D01*
X89012547Y-97047500D01*
X88843845Y-97047500D01*
X88794338Y-97051955D01*
X88675807Y-97062623D01*
X88458830Y-97122506D01*
X88256029Y-97220169D01*
X88073921Y-97352479D01*
X87918369Y-97515174D01*
X87794364Y-97703033D01*
X87705897Y-97910011D01*
X87655808Y-98129465D01*
X87645709Y-98354328D01*
X86360500Y-98354328D01*
X86360500Y-94875181D01*
X87550000Y-94875181D01*
X87550282Y-94880457D01*
X87556401Y-94937376D01*
X87606646Y-95072089D01*
X87692811Y-95187188D01*
X87807910Y-95273353D01*
X87942623Y-95323598D01*
X87999542Y-95329717D01*
X88004819Y-95330000D01*
X88649999Y-95330000D01*
X88650000Y-95329999D01*
X88650000Y-94415501D01*
X88757685Y-94464680D01*
X88864237Y-94480000D01*
X88935763Y-94480000D01*
X89042315Y-94464680D01*
X89150000Y-94415501D01*
X89150000Y-95329999D01*
X89150001Y-95330000D01*
X89795181Y-95330000D01*
X89800457Y-95329717D01*
X89857376Y-95323598D01*
X89992089Y-95273353D01*
X90107188Y-95187188D01*
X90193353Y-95072089D01*
X90243598Y-94937376D01*
X90249717Y-94880457D01*
X90250000Y-94875181D01*
X90250000Y-94230001D01*
X90249999Y-94230000D01*
X89333686Y-94230000D01*
X89359493Y-94189844D01*
X89400000Y-94051889D01*
X89400000Y-93908111D01*
X89359493Y-93770156D01*
X89333686Y-93730000D01*
X90249999Y-93730000D01*
X90250000Y-93729999D01*
X90250000Y-93084818D01*
X90249717Y-93079542D01*
X90243598Y-93022623D01*
X90193353Y-92887910D01*
X90107188Y-92772811D01*
X89992089Y-92686646D01*
X89857376Y-92636401D01*
X89800457Y-92630282D01*
X89795181Y-92630000D01*
X89511501Y-92630000D01*
X89453310Y-92611093D01*
X89417346Y-92561593D01*
X89417346Y-92500407D01*
X89453310Y-92450907D01*
X89459384Y-92446829D01*
X89596300Y-92362053D01*
X89596299Y-92362053D01*
X89596302Y-92362052D01*
X89753872Y-92218407D01*
X89882366Y-92048255D01*
X89977405Y-91857389D01*
X90035756Y-91652310D01*
X90055429Y-91440000D01*
X90035756Y-91227690D01*
X89977405Y-91022611D01*
X89977403Y-91022608D01*
X89974894Y-91013788D01*
X89976464Y-91013341D01*
X89969020Y-90963359D01*
X89996648Y-90909743D01*
X91999484Y-88906909D01*
X91999484Y-88906908D01*
X92010844Y-88895549D01*
X92010848Y-88895543D01*
X92022050Y-88884342D01*
X92033002Y-88862845D01*
X92041111Y-88849611D01*
X92055296Y-88830089D01*
X92062751Y-88807142D01*
X92068695Y-88792795D01*
X92079646Y-88771304D01*
X92083421Y-88747467D01*
X92087041Y-88732385D01*
X92094500Y-88709433D01*
X92094500Y-88582567D01*
X92094500Y-78200412D01*
X92588773Y-78200412D01*
X92598696Y-78358138D01*
X92623613Y-78434825D01*
X92647534Y-78508443D01*
X92659748Y-78527690D01*
X92732214Y-78641877D01*
X92847418Y-78750062D01*
X92985908Y-78826197D01*
X93138981Y-78865500D01*
X93138983Y-78865500D01*
X93254245Y-78865500D01*
X93257350Y-78865500D01*
X93374792Y-78850664D01*
X93521732Y-78792486D01*
X93649587Y-78699594D01*
X93750324Y-78577823D01*
X93817614Y-78434826D01*
X93847227Y-78279588D01*
X93842246Y-78200412D01*
X97160773Y-78200412D01*
X97170696Y-78358138D01*
X97195613Y-78434825D01*
X97219534Y-78508443D01*
X97231748Y-78527690D01*
X97304214Y-78641877D01*
X97419418Y-78750062D01*
X97557908Y-78826197D01*
X97710981Y-78865500D01*
X97710983Y-78865500D01*
X97826245Y-78865500D01*
X97829350Y-78865500D01*
X97946792Y-78850664D01*
X98093732Y-78792486D01*
X98221587Y-78699594D01*
X98322324Y-78577823D01*
X98389614Y-78434826D01*
X98419227Y-78279588D01*
X98409304Y-78121862D01*
X98360467Y-77971559D01*
X98275786Y-77838123D01*
X98160582Y-77729938D01*
X98160577Y-77729935D01*
X98022095Y-77653804D01*
X98022092Y-77653803D01*
X97869019Y-77614500D01*
X97750650Y-77614500D01*
X97747577Y-77614888D01*
X97747564Y-77614889D01*
X97633209Y-77629335D01*
X97486269Y-77687513D01*
X97358412Y-77780407D01*
X97257676Y-77902176D01*
X97190384Y-78045177D01*
X97160773Y-78200408D01*
X97160773Y-78200411D01*
X97160773Y-78200412D01*
X93842246Y-78200412D01*
X93837304Y-78121862D01*
X93788467Y-77971559D01*
X93703786Y-77838123D01*
X93588582Y-77729938D01*
X93588577Y-77729935D01*
X93450095Y-77653804D01*
X93450092Y-77653803D01*
X93297019Y-77614500D01*
X93178650Y-77614500D01*
X93175577Y-77614888D01*
X93175564Y-77614889D01*
X93061209Y-77629335D01*
X92914269Y-77687513D01*
X92786412Y-77780407D01*
X92685676Y-77902176D01*
X92618384Y-78045177D01*
X92588773Y-78200408D01*
X92588773Y-78200411D01*
X92588773Y-78200412D01*
X92094500Y-78200412D01*
X92094500Y-70740520D01*
X92113407Y-70682329D01*
X92162907Y-70646365D01*
X92224093Y-70646365D01*
X92239499Y-70652856D01*
X92361135Y-70716696D01*
X92361137Y-70716696D01*
X92361138Y-70716697D01*
X92514513Y-70754500D01*
X92514515Y-70754500D01*
X92534455Y-70754500D01*
X92592646Y-70773407D01*
X92604459Y-70783496D01*
X92917686Y-71096723D01*
X92930558Y-71112575D01*
X92937916Y-71123836D01*
X92958492Y-71139851D01*
X92964113Y-71144226D01*
X92973305Y-71152342D01*
X92974482Y-71153519D01*
X92991801Y-71165884D01*
X92995083Y-71168331D01*
X93040799Y-71203913D01*
X93045954Y-71206566D01*
X93050798Y-71208008D01*
X93050801Y-71208010D01*
X93101472Y-71223095D01*
X93105322Y-71224329D01*
X93155340Y-71241500D01*
X93155341Y-71241500D01*
X93160110Y-71243137D01*
X93165871Y-71243976D01*
X93170909Y-71243767D01*
X93170911Y-71243768D01*
X93223699Y-71241585D01*
X93227791Y-71241500D01*
X95545312Y-71241500D01*
X95603503Y-71260407D01*
X95626787Y-71284261D01*
X95638015Y-71300528D01*
X95638016Y-71300529D01*
X95638017Y-71300530D01*
X95756260Y-71405283D01*
X95829673Y-71443814D01*
X95896136Y-71478697D01*
X96049513Y-71516500D01*
X96049515Y-71516500D01*
X96207487Y-71516500D01*
X96360863Y-71478697D01*
X96360865Y-71478696D01*
X96500740Y-71405283D01*
X96618983Y-71300530D01*
X96708720Y-71170523D01*
X96764737Y-71022818D01*
X96783778Y-70866000D01*
X96764737Y-70709182D01*
X96708720Y-70561477D01*
X96618983Y-70431470D01*
X96500740Y-70326717D01*
X96493787Y-70323067D01*
X96360863Y-70253302D01*
X96207487Y-70215500D01*
X96207485Y-70215500D01*
X96049515Y-70215500D01*
X96049513Y-70215500D01*
X95896136Y-70253302D01*
X95756261Y-70326716D01*
X95638015Y-70431471D01*
X95626787Y-70447739D01*
X95578170Y-70484888D01*
X95545312Y-70490500D01*
X95230863Y-70490500D01*
X95172672Y-70471593D01*
X95136708Y-70422093D01*
X95132585Y-70379567D01*
X95143278Y-70291500D01*
X95131919Y-70197948D01*
X95124237Y-70134682D01*
X95068220Y-69986977D01*
X94978483Y-69856970D01*
X94860240Y-69752217D01*
X94852920Y-69748375D01*
X94743476Y-69690933D01*
X94700737Y-69647148D01*
X94691897Y-69586605D01*
X94717473Y-69535336D01*
X94836296Y-69409393D01*
X94923467Y-69258407D01*
X94973469Y-69091388D01*
X94983607Y-68917340D01*
X94953332Y-68745646D01*
X94953332Y-68745644D01*
X94897412Y-68616008D01*
X94884279Y-68585562D01*
X94780168Y-68445717D01*
X94708756Y-68385795D01*
X94646616Y-68333652D01*
X94490811Y-68255404D01*
X94321173Y-68215200D01*
X94321171Y-68215200D01*
X94190564Y-68215200D01*
X94187708Y-68215533D01*
X94187704Y-68215534D01*
X94060836Y-68230363D01*
X93897003Y-68289993D01*
X93746901Y-68388717D01*
X93687894Y-68404897D01*
X93630646Y-68383303D01*
X93597024Y-68332183D01*
X93593500Y-68306004D01*
X93593500Y-66998543D01*
X93612407Y-66940352D01*
X93622484Y-66928551D01*
X93741967Y-66809068D01*
X93796482Y-66781293D01*
X93856914Y-66790864D01*
X93900179Y-66834129D01*
X93904535Y-66843968D01*
X93907778Y-66852519D01*
X93907780Y-66852523D01*
X93997517Y-66982530D01*
X94115760Y-67087283D01*
X94189174Y-67125814D01*
X94255636Y-67160697D01*
X94409013Y-67198500D01*
X94409015Y-67198500D01*
X94566987Y-67198500D01*
X94720363Y-67160697D01*
X94738227Y-67151321D01*
X94860240Y-67087283D01*
X94978483Y-66982530D01*
X94989712Y-66966261D01*
X95038330Y-66929112D01*
X95071188Y-66923500D01*
X97050848Y-66923500D01*
X97109039Y-66942407D01*
X97132321Y-66966259D01*
X97209076Y-67077458D01*
X97327319Y-67182211D01*
X97360325Y-67199534D01*
X97467195Y-67255625D01*
X97620572Y-67293428D01*
X97620574Y-67293428D01*
X97778546Y-67293428D01*
X97931922Y-67255625D01*
X97962828Y-67239404D01*
X98071799Y-67182211D01*
X98190042Y-67077458D01*
X98279779Y-66947451D01*
X98335796Y-66799746D01*
X98339962Y-66765431D01*
X98365745Y-66709945D01*
X98414549Y-66681242D01*
X98530363Y-66652697D01*
X98538821Y-66648258D01*
X98670240Y-66579283D01*
X98788483Y-66474530D01*
X98878220Y-66344523D01*
X98934237Y-66196818D01*
X98953278Y-66040000D01*
X98934237Y-65883182D01*
X98897988Y-65787603D01*
X98895033Y-65726492D01*
X98928564Y-65675312D01*
X98985773Y-65653616D01*
X98990556Y-65653500D01*
X99855500Y-65653500D01*
X99913691Y-65672407D01*
X99949655Y-65721907D01*
X99954500Y-65752500D01*
X99954500Y-67296564D01*
X99935593Y-67354755D01*
X99886093Y-67390719D01*
X99824907Y-67390719D01*
X99791864Y-67372402D01*
X99726616Y-67317652D01*
X99570811Y-67239404D01*
X99401173Y-67199200D01*
X99401171Y-67199200D01*
X99270564Y-67199200D01*
X99267708Y-67199533D01*
X99267704Y-67199534D01*
X99140836Y-67214363D01*
X98977005Y-67273992D01*
X98831346Y-67369794D01*
X98711704Y-67496606D01*
X98624533Y-67647593D01*
X98574531Y-67814611D01*
X98564393Y-67988661D01*
X98594667Y-68160355D01*
X98650588Y-68289992D01*
X98663721Y-68320438D01*
X98767832Y-68460283D01*
X98816478Y-68501102D01*
X98901383Y-68572347D01*
X98901384Y-68572347D01*
X98901386Y-68572349D01*
X99057185Y-68650594D01*
X99057186Y-68650594D01*
X99057188Y-68650595D01*
X99226827Y-68690800D01*
X99226829Y-68690800D01*
X99354552Y-68690800D01*
X99357436Y-68690800D01*
X99487164Y-68675637D01*
X99650993Y-68616008D01*
X99796654Y-68520205D01*
X99796654Y-68520204D01*
X99801098Y-68517282D01*
X99860106Y-68501102D01*
X99917354Y-68522696D01*
X99950976Y-68573816D01*
X99954500Y-68599995D01*
X99954499Y-69328564D01*
X99935592Y-69386755D01*
X99886092Y-69422719D01*
X99824906Y-69422719D01*
X99791863Y-69404402D01*
X99726616Y-69349652D01*
X99570811Y-69271404D01*
X99401173Y-69231200D01*
X99401171Y-69231200D01*
X99270564Y-69231200D01*
X99267708Y-69231533D01*
X99267704Y-69231534D01*
X99140836Y-69246363D01*
X98977005Y-69305992D01*
X98831346Y-69401794D01*
X98711704Y-69528606D01*
X98624533Y-69679593D01*
X98574531Y-69846611D01*
X98564393Y-70020661D01*
X98594667Y-70192355D01*
X98652626Y-70326717D01*
X98663721Y-70352438D01*
X98767832Y-70492283D01*
X98816478Y-70533102D01*
X98901383Y-70604347D01*
X98901384Y-70604347D01*
X98901386Y-70604349D01*
X99057185Y-70682594D01*
X99057186Y-70682594D01*
X99057188Y-70682595D01*
X99226827Y-70722800D01*
X99226829Y-70722800D01*
X99354552Y-70722800D01*
X99357436Y-70722800D01*
X99487164Y-70707637D01*
X99650993Y-70648008D01*
X99796654Y-70552205D01*
X99796654Y-70552204D01*
X99801098Y-70549282D01*
X99860106Y-70533102D01*
X99917354Y-70554696D01*
X99950976Y-70605816D01*
X99954500Y-70631995D01*
X99954499Y-82500788D01*
X99952393Y-82521100D01*
X99949632Y-82534265D01*
X99953740Y-82567216D01*
X99954500Y-82579461D01*
X99954500Y-82581117D01*
X99958003Y-82602115D01*
X99958593Y-82606159D01*
X99965756Y-82663622D01*
X99967536Y-82669178D01*
X99995088Y-82720091D01*
X99996958Y-82723724D01*
X100014260Y-82759115D01*
X100022390Y-82775743D01*
X100025867Y-82780407D01*
X100029580Y-82783825D01*
X100029581Y-82783826D01*
X100068473Y-82819629D01*
X100071400Y-82822437D01*
X105595101Y-88346138D01*
X105622878Y-88400655D01*
X105613720Y-88460266D01*
X105602596Y-88482606D01*
X105544244Y-88687690D01*
X105524571Y-88899999D01*
X105544244Y-89112309D01*
X105602596Y-89317391D01*
X105697634Y-89508256D01*
X105826125Y-89678404D01*
X105983699Y-89822053D01*
X106115622Y-89903736D01*
X106164981Y-89934298D01*
X106257837Y-89970270D01*
X106305268Y-90008921D01*
X106320922Y-90068070D01*
X106298819Y-90125124D01*
X106247698Y-90158211D01*
X106216509Y-90166568D01*
X106002424Y-90266398D01*
X105808925Y-90401887D01*
X105641887Y-90568925D01*
X105506398Y-90762424D01*
X105406570Y-90976505D01*
X105349364Y-91190000D01*
X106246314Y-91190000D01*
X106220507Y-91230156D01*
X106180000Y-91368111D01*
X106180000Y-91511889D01*
X106220507Y-91649844D01*
X106246314Y-91690000D01*
X105349364Y-91690000D01*
X105406570Y-91903495D01*
X105506398Y-92117576D01*
X105641887Y-92311074D01*
X105808925Y-92478112D01*
X106002423Y-92613601D01*
X106216505Y-92713429D01*
X106247696Y-92721787D01*
X106299011Y-92755110D01*
X106320938Y-92812232D01*
X106305103Y-92871332D01*
X106257837Y-92909729D01*
X106164978Y-92945703D01*
X105983699Y-93057946D01*
X105826125Y-93201595D01*
X105697634Y-93371743D01*
X105602596Y-93562608D01*
X105602595Y-93562611D01*
X105544244Y-93767690D01*
X105524571Y-93980000D01*
X105544244Y-94192310D01*
X105577957Y-94310798D01*
X105602596Y-94397391D01*
X105697634Y-94588256D01*
X105826125Y-94758404D01*
X105983699Y-94902053D01*
X106040748Y-94937376D01*
X106164981Y-95014298D01*
X106314158Y-95072089D01*
X106363804Y-95091322D01*
X106573388Y-95130500D01*
X106573390Y-95130500D01*
X106786612Y-95130500D01*
X106996195Y-95091322D01*
X106996198Y-95091321D01*
X107195019Y-95014298D01*
X107376302Y-94902052D01*
X107533872Y-94758407D01*
X107662366Y-94588255D01*
X107757405Y-94397389D01*
X107815756Y-94192310D01*
X107835429Y-93980000D01*
X107815756Y-93767690D01*
X107757405Y-93562611D01*
X107662366Y-93371745D01*
X107662365Y-93371744D01*
X107662365Y-93371743D01*
X107533874Y-93201595D01*
X107376300Y-93057946D01*
X107195021Y-92945703D01*
X107195019Y-92945702D01*
X107156486Y-92930774D01*
X107102162Y-92909729D01*
X107054731Y-92871077D01*
X107039077Y-92811928D01*
X107061180Y-92754874D01*
X107112304Y-92721787D01*
X107143493Y-92713430D01*
X107357576Y-92613601D01*
X107551074Y-92478112D01*
X107718112Y-92311074D01*
X107853601Y-92117576D01*
X107953429Y-91903495D01*
X108010636Y-91690000D01*
X107113686Y-91690000D01*
X107139493Y-91649844D01*
X107180000Y-91511889D01*
X107180000Y-91368111D01*
X107139493Y-91230156D01*
X107113686Y-91190000D01*
X108010636Y-91190000D01*
X107953429Y-90976505D01*
X107853601Y-90762424D01*
X107718112Y-90568925D01*
X107551074Y-90401887D01*
X107357576Y-90266398D01*
X107143491Y-90166568D01*
X107112301Y-90158211D01*
X107060987Y-90124887D01*
X107039061Y-90067766D01*
X107054897Y-90008665D01*
X107102162Y-89970270D01*
X107195019Y-89934298D01*
X107376302Y-89822052D01*
X107533872Y-89678407D01*
X107662366Y-89508255D01*
X107757405Y-89317389D01*
X107815756Y-89112310D01*
X107835429Y-88900000D01*
X107815756Y-88687690D01*
X107757405Y-88482611D01*
X107662366Y-88291745D01*
X107662365Y-88291744D01*
X107662365Y-88291743D01*
X107533874Y-88121595D01*
X107376300Y-87977946D01*
X107195021Y-87865703D01*
X107195019Y-87865702D01*
X107135140Y-87842505D01*
X106996195Y-87788677D01*
X106786612Y-87749500D01*
X106786610Y-87749500D01*
X106573390Y-87749500D01*
X106573388Y-87749500D01*
X106363803Y-87788678D01*
X106233607Y-87839115D01*
X106172516Y-87842505D01*
X106127841Y-87816804D01*
X103438581Y-85127544D01*
X100734496Y-82423458D01*
X100706719Y-82368941D01*
X100705500Y-82353454D01*
X100705500Y-81155545D01*
X100724407Y-81097354D01*
X100773907Y-81061390D01*
X100835093Y-81061390D01*
X100874504Y-81085541D01*
X105595101Y-85806138D01*
X105622878Y-85860655D01*
X105613720Y-85920266D01*
X105602596Y-85942606D01*
X105544244Y-86147690D01*
X105524571Y-86360000D01*
X105544244Y-86572309D01*
X105602596Y-86777391D01*
X105697634Y-86968256D01*
X105826125Y-87138404D01*
X105983699Y-87282053D01*
X106031904Y-87311900D01*
X106164981Y-87394298D01*
X106321681Y-87455003D01*
X106363804Y-87471322D01*
X106573388Y-87510500D01*
X106573390Y-87510500D01*
X106786612Y-87510500D01*
X106996195Y-87471322D01*
X106996198Y-87471321D01*
X107195019Y-87394298D01*
X107376302Y-87282052D01*
X107533872Y-87138407D01*
X107662366Y-86968255D01*
X107757405Y-86777389D01*
X107815756Y-86572310D01*
X107835429Y-86360000D01*
X107815756Y-86147690D01*
X107757405Y-85942611D01*
X107662366Y-85751745D01*
X107662365Y-85751744D01*
X107662365Y-85751743D01*
X107533874Y-85581595D01*
X107376300Y-85437946D01*
X107195021Y-85325703D01*
X107195019Y-85325702D01*
X107135140Y-85302505D01*
X106996195Y-85248677D01*
X106786612Y-85209500D01*
X106786610Y-85209500D01*
X106573390Y-85209500D01*
X106573388Y-85209500D01*
X106363803Y-85248678D01*
X106233607Y-85299115D01*
X106172516Y-85302505D01*
X106127841Y-85276804D01*
X103587841Y-82736804D01*
X101034496Y-80183458D01*
X101006719Y-80128941D01*
X101005500Y-80113454D01*
X101005500Y-78915545D01*
X101024407Y-78857354D01*
X101073907Y-78821390D01*
X101135093Y-78821390D01*
X101174504Y-78845541D01*
X105595101Y-83266139D01*
X105622878Y-83320656D01*
X105613719Y-83380269D01*
X105602596Y-83402607D01*
X105544244Y-83607690D01*
X105524571Y-83820000D01*
X105544244Y-84032309D01*
X105602596Y-84237391D01*
X105697634Y-84428256D01*
X105826125Y-84598404D01*
X105983699Y-84742053D01*
X106115622Y-84823736D01*
X106164981Y-84854298D01*
X106321681Y-84915003D01*
X106363804Y-84931322D01*
X106573388Y-84970500D01*
X106573390Y-84970500D01*
X106786612Y-84970500D01*
X106996195Y-84931322D01*
X106996198Y-84931321D01*
X107195019Y-84854298D01*
X107376302Y-84742052D01*
X107533872Y-84598407D01*
X107662366Y-84428255D01*
X107757405Y-84237389D01*
X107815756Y-84032310D01*
X107835429Y-83820000D01*
X107815756Y-83607690D01*
X107757405Y-83402611D01*
X107662366Y-83211745D01*
X107662365Y-83211744D01*
X107662365Y-83211743D01*
X107533874Y-83041595D01*
X107376300Y-82897946D01*
X107195021Y-82785703D01*
X107195019Y-82785702D01*
X107135140Y-82762505D01*
X106996195Y-82708677D01*
X106786612Y-82669500D01*
X106786610Y-82669500D01*
X106573390Y-82669500D01*
X106573388Y-82669500D01*
X106363803Y-82708678D01*
X106233607Y-82759115D01*
X106172516Y-82762505D01*
X106127841Y-82736804D01*
X102415675Y-79024637D01*
X102387898Y-78970120D01*
X102397469Y-78909688D01*
X102440734Y-78866423D01*
X102473266Y-78856415D01*
X102518792Y-78850664D01*
X102665732Y-78792486D01*
X102793587Y-78699594D01*
X102894324Y-78577823D01*
X102961614Y-78434826D01*
X102981394Y-78331132D01*
X103010869Y-78277518D01*
X103066231Y-78251466D01*
X103126333Y-78262930D01*
X103148644Y-78279681D01*
X105595101Y-80726139D01*
X105622878Y-80780656D01*
X105613719Y-80840269D01*
X105602596Y-80862607D01*
X105544244Y-81067690D01*
X105524571Y-81280000D01*
X105544244Y-81492309D01*
X105602596Y-81697391D01*
X105697634Y-81888256D01*
X105826125Y-82058404D01*
X105983699Y-82202053D01*
X106115622Y-82283736D01*
X106164981Y-82314298D01*
X106306032Y-82368941D01*
X106363804Y-82391322D01*
X106573388Y-82430500D01*
X106573390Y-82430500D01*
X106786612Y-82430500D01*
X106996195Y-82391322D01*
X106996198Y-82391321D01*
X107195019Y-82314298D01*
X107376302Y-82202052D01*
X107533872Y-82058407D01*
X107662366Y-81888255D01*
X107757405Y-81697389D01*
X107815756Y-81492310D01*
X107835429Y-81280000D01*
X107815756Y-81067690D01*
X107757405Y-80862611D01*
X107662366Y-80671745D01*
X107662365Y-80671744D01*
X107662365Y-80671743D01*
X107533874Y-80501595D01*
X107376300Y-80357946D01*
X107195021Y-80245703D01*
X107195019Y-80245702D01*
X107135140Y-80222505D01*
X106996195Y-80168677D01*
X106786612Y-80129500D01*
X106786610Y-80129500D01*
X106573390Y-80129500D01*
X106573388Y-80129500D01*
X106363803Y-80168678D01*
X106233607Y-80219115D01*
X106172516Y-80222505D01*
X106127841Y-80196804D01*
X101634496Y-75703458D01*
X101606719Y-75648941D01*
X101605500Y-75633454D01*
X101605500Y-74435545D01*
X101624407Y-74377354D01*
X101673907Y-74341390D01*
X101735093Y-74341390D01*
X101774504Y-74365541D01*
X105595101Y-78186139D01*
X105622878Y-78240656D01*
X105613719Y-78300269D01*
X105602596Y-78322607D01*
X105549721Y-78508441D01*
X105544244Y-78527690D01*
X105524571Y-78740000D01*
X105544244Y-78952310D01*
X105549311Y-78970120D01*
X105602596Y-79157391D01*
X105697634Y-79348256D01*
X105826125Y-79518404D01*
X105983699Y-79662053D01*
X106115622Y-79743736D01*
X106164981Y-79774298D01*
X106321681Y-79835003D01*
X106363804Y-79851322D01*
X106573388Y-79890500D01*
X106573390Y-79890500D01*
X106786612Y-79890500D01*
X106996195Y-79851322D01*
X106996198Y-79851321D01*
X107195019Y-79774298D01*
X107376302Y-79662052D01*
X107533872Y-79518407D01*
X107662366Y-79348255D01*
X107757405Y-79157389D01*
X107815756Y-78952310D01*
X107835429Y-78740000D01*
X107815756Y-78527690D01*
X107757405Y-78322611D01*
X107662366Y-78131745D01*
X107662365Y-78131744D01*
X107662365Y-78131743D01*
X107533874Y-77961595D01*
X107376300Y-77817946D01*
X107195021Y-77705703D01*
X107195019Y-77705702D01*
X107135140Y-77682505D01*
X106996195Y-77628677D01*
X106786612Y-77589500D01*
X106786610Y-77589500D01*
X106573390Y-77589500D01*
X106573388Y-77589500D01*
X106363803Y-77628678D01*
X106233607Y-77679115D01*
X106172516Y-77682505D01*
X106127841Y-77656804D01*
X104671037Y-76200000D01*
X105524571Y-76200000D01*
X105544244Y-76412310D01*
X105592352Y-76581390D01*
X105602596Y-76617391D01*
X105697634Y-76808256D01*
X105826125Y-76978404D01*
X105983699Y-77122053D01*
X106115622Y-77203736D01*
X106164981Y-77234298D01*
X106321681Y-77295003D01*
X106363804Y-77311322D01*
X106573388Y-77350500D01*
X106573390Y-77350500D01*
X106786612Y-77350500D01*
X106996195Y-77311322D01*
X106996198Y-77311321D01*
X107195019Y-77234298D01*
X107376302Y-77122052D01*
X107533872Y-76978407D01*
X107662366Y-76808255D01*
X107757405Y-76617389D01*
X107815756Y-76412310D01*
X107835429Y-76200000D01*
X107815756Y-75987690D01*
X107757405Y-75782611D01*
X107662366Y-75591745D01*
X107662365Y-75591744D01*
X107662365Y-75591743D01*
X107533874Y-75421595D01*
X107376300Y-75277946D01*
X107195021Y-75165703D01*
X107195019Y-75165702D01*
X107152898Y-75149384D01*
X106996195Y-75088677D01*
X106786612Y-75049500D01*
X106786610Y-75049500D01*
X106573390Y-75049500D01*
X106573388Y-75049500D01*
X106363804Y-75088677D01*
X106164978Y-75165703D01*
X105983699Y-75277946D01*
X105826125Y-75421595D01*
X105697634Y-75591743D01*
X105602596Y-75782608D01*
X105602595Y-75782611D01*
X105544244Y-75987690D01*
X105524571Y-76200000D01*
X104671037Y-76200000D01*
X104062780Y-75591743D01*
X101934493Y-73463455D01*
X101906718Y-73408941D01*
X101905499Y-73393466D01*
X101905499Y-72015181D01*
X105330000Y-72015181D01*
X105330282Y-72020457D01*
X105336401Y-72077376D01*
X105386646Y-72212089D01*
X105472811Y-72327188D01*
X105587910Y-72413353D01*
X105722623Y-72463598D01*
X105779542Y-72469717D01*
X105784819Y-72470000D01*
X106068499Y-72470000D01*
X106126690Y-72488907D01*
X106162654Y-72538407D01*
X106162654Y-72599593D01*
X106126690Y-72649093D01*
X106120616Y-72653171D01*
X105983699Y-72737946D01*
X105826125Y-72881595D01*
X105697634Y-73051743D01*
X105602596Y-73242608D01*
X105544244Y-73447690D01*
X105524571Y-73660000D01*
X105544244Y-73872309D01*
X105602596Y-74077391D01*
X105697634Y-74268256D01*
X105826125Y-74438404D01*
X105983699Y-74582053D01*
X106115622Y-74663736D01*
X106164981Y-74694298D01*
X106321681Y-74755003D01*
X106363804Y-74771322D01*
X106573388Y-74810500D01*
X106573390Y-74810500D01*
X106786612Y-74810500D01*
X106996195Y-74771322D01*
X106996198Y-74771321D01*
X107195019Y-74694298D01*
X107376302Y-74582052D01*
X107533872Y-74438407D01*
X107662366Y-74268255D01*
X107757405Y-74077389D01*
X107815756Y-73872310D01*
X107835429Y-73660000D01*
X107815756Y-73447690D01*
X107757405Y-73242611D01*
X107662366Y-73051745D01*
X107662365Y-73051744D01*
X107662365Y-73051743D01*
X107533874Y-72881595D01*
X107376300Y-72737946D01*
X107239384Y-72653171D01*
X107199863Y-72606463D01*
X107195344Y-72545444D01*
X107227554Y-72493423D01*
X107284190Y-72470270D01*
X107291501Y-72470000D01*
X107575181Y-72470000D01*
X107580457Y-72469717D01*
X107637376Y-72463598D01*
X107772089Y-72413353D01*
X107887188Y-72327188D01*
X107973353Y-72212089D01*
X108023598Y-72077376D01*
X108029717Y-72020457D01*
X108030000Y-72015181D01*
X108030000Y-71370001D01*
X108029999Y-71370000D01*
X107113686Y-71370000D01*
X107139493Y-71329844D01*
X107180000Y-71191889D01*
X107180000Y-71048111D01*
X107139493Y-70910156D01*
X107113686Y-70870000D01*
X108029999Y-70870000D01*
X108030000Y-70869999D01*
X108030000Y-70224818D01*
X108029717Y-70219542D01*
X108023598Y-70162623D01*
X107973353Y-70027910D01*
X107887188Y-69912811D01*
X107772089Y-69826646D01*
X107637376Y-69776401D01*
X107580457Y-69770282D01*
X107575181Y-69770000D01*
X106930000Y-69770000D01*
X106930000Y-70684498D01*
X106822315Y-70635320D01*
X106715763Y-70620000D01*
X106644237Y-70620000D01*
X106537685Y-70635320D01*
X106430000Y-70684498D01*
X106430000Y-69770000D01*
X105784819Y-69770000D01*
X105779542Y-69770282D01*
X105722623Y-69776401D01*
X105587910Y-69826646D01*
X105472811Y-69912811D01*
X105386646Y-70027910D01*
X105336401Y-70162623D01*
X105330282Y-70219542D01*
X105330000Y-70224818D01*
X105330000Y-70869999D01*
X105330001Y-70870000D01*
X106246314Y-70870000D01*
X106220507Y-70910156D01*
X106180000Y-71048111D01*
X106180000Y-71191889D01*
X106220507Y-71329844D01*
X106246314Y-71370000D01*
X105330001Y-71370000D01*
X105330000Y-71370001D01*
X105330000Y-72015181D01*
X101905499Y-72015181D01*
X101905499Y-66279281D01*
X101924406Y-66221091D01*
X101973906Y-66185127D01*
X102013494Y-66183693D01*
X102013494Y-66182500D01*
X102183487Y-66182500D01*
X102336863Y-66144697D01*
X102336865Y-66144696D01*
X102476740Y-66071283D01*
X102594983Y-65966530D01*
X102684720Y-65836523D01*
X102740737Y-65688818D01*
X102759778Y-65532000D01*
X102759653Y-65530974D01*
X102744817Y-65408786D01*
X102740737Y-65375182D01*
X102684720Y-65227477D01*
X102594983Y-65097470D01*
X102594980Y-65097467D01*
X102516851Y-65028250D01*
X102485832Y-64975510D01*
X102483500Y-64954148D01*
X102483500Y-62630078D01*
X102502407Y-62571887D01*
X102512497Y-62560074D01*
X102569309Y-62503263D01*
X102623826Y-62475486D01*
X102639312Y-62474267D01*
X102796754Y-62474267D01*
X102950130Y-62436464D01*
X102950132Y-62436463D01*
X103090007Y-62363050D01*
X103208250Y-62258297D01*
X103297987Y-62128290D01*
X103354004Y-61980585D01*
X103373045Y-61823767D01*
X103354004Y-61666949D01*
X103297987Y-61519244D01*
X103208250Y-61389237D01*
X103090007Y-61284484D01*
X103051975Y-61264523D01*
X102950130Y-61211069D01*
X102796754Y-61173267D01*
X102796752Y-61173267D01*
X102638782Y-61173267D01*
X102638780Y-61173267D01*
X102485403Y-61211069D01*
X102345528Y-61284483D01*
X102345526Y-61284484D01*
X102345527Y-61284484D01*
X102227284Y-61389237D01*
X102137547Y-61519244D01*
X102101374Y-61614626D01*
X102097066Y-61625985D01*
X102058752Y-61673690D01*
X101999716Y-61689763D01*
X101942507Y-61668067D01*
X101908976Y-61616887D01*
X101905499Y-61590879D01*
X101905499Y-57602174D01*
X101905499Y-53065201D01*
X101907606Y-53044898D01*
X101910367Y-53031732D01*
X101906260Y-52998783D01*
X101905500Y-52986538D01*
X101905500Y-52984887D01*
X101905500Y-52984886D01*
X101901990Y-52963857D01*
X101901405Y-52959839D01*
X101899629Y-52945593D01*
X101894866Y-52907374D01*
X101894242Y-52902367D01*
X101892469Y-52896834D01*
X101890065Y-52892392D01*
X101890065Y-52892390D01*
X101864906Y-52845900D01*
X101863062Y-52842318D01*
X101839826Y-52794789D01*
X101839824Y-52794787D01*
X101837608Y-52790254D01*
X101834134Y-52785595D01*
X101830420Y-52782176D01*
X101830419Y-52782174D01*
X101791527Y-52746371D01*
X101788599Y-52743562D01*
X101265311Y-52220273D01*
X101252435Y-52204416D01*
X101245083Y-52193162D01*
X101218888Y-52172774D01*
X101209697Y-52164659D01*
X101208518Y-52163480D01*
X101199931Y-52157349D01*
X101191170Y-52151094D01*
X101187887Y-52148646D01*
X101142207Y-52113091D01*
X101137040Y-52110431D01*
X101081551Y-52093911D01*
X101077669Y-52092667D01*
X101056638Y-52085447D01*
X101022890Y-52073862D01*
X101017127Y-52073023D01*
X100959299Y-52075415D01*
X100955208Y-52075500D01*
X100252211Y-52075500D01*
X100231895Y-52073393D01*
X100230130Y-52073023D01*
X100218732Y-52070633D01*
X100185783Y-52074740D01*
X100173538Y-52075500D01*
X100171886Y-52075500D01*
X100166360Y-52076421D01*
X100150882Y-52079004D01*
X100146840Y-52079592D01*
X100089383Y-52086755D01*
X100083821Y-52088537D01*
X100032927Y-52116078D01*
X100029294Y-52117948D01*
X99977263Y-52143386D01*
X99972587Y-52146873D01*
X99933395Y-52189446D01*
X99930563Y-52192398D01*
X99187458Y-52935504D01*
X99132941Y-52963281D01*
X99117454Y-52964500D01*
X98967214Y-52964500D01*
X98909023Y-52945593D01*
X98873059Y-52896093D01*
X98873059Y-52834907D01*
X98897210Y-52795496D01*
X100467211Y-51225496D01*
X100521728Y-51197719D01*
X100537215Y-51196500D01*
X100662987Y-51196500D01*
X100816363Y-51158697D01*
X100816365Y-51158696D01*
X100956240Y-51085283D01*
X101074483Y-50980530D01*
X101164220Y-50850523D01*
X101220237Y-50702818D01*
X101239278Y-50546000D01*
X101228524Y-50457432D01*
X101240279Y-50397388D01*
X101285083Y-50355719D01*
X101326802Y-50346500D01*
X102887789Y-50346500D01*
X102908105Y-50348607D01*
X102921268Y-50351367D01*
X102954216Y-50347260D01*
X102966462Y-50346500D01*
X102968112Y-50346500D01*
X102968114Y-50346500D01*
X102989147Y-50342989D01*
X102993143Y-50342407D01*
X103045626Y-50335866D01*
X103045627Y-50335865D01*
X103050637Y-50335241D01*
X103056163Y-50333470D01*
X103060605Y-50331065D01*
X103060610Y-50331065D01*
X103107104Y-50305903D01*
X103110694Y-50304055D01*
X103158211Y-50280826D01*
X103158212Y-50280824D01*
X103162755Y-50278604D01*
X103167397Y-50275142D01*
X103170822Y-50271420D01*
X103170826Y-50271419D01*
X103206653Y-50232499D01*
X103209415Y-50229620D01*
X103608727Y-49830308D01*
X103624577Y-49817438D01*
X103635836Y-49810084D01*
X103656226Y-49783885D01*
X103664344Y-49774692D01*
X103665519Y-49773518D01*
X103677904Y-49756169D01*
X103680305Y-49752948D01*
X103712809Y-49711189D01*
X103712809Y-49711187D01*
X103715917Y-49707195D01*
X103718565Y-49702051D01*
X103720009Y-49697200D01*
X103720010Y-49697199D01*
X103735093Y-49646531D01*
X103736325Y-49642687D01*
X103753500Y-49592660D01*
X103753500Y-49592655D01*
X103755137Y-49587887D01*
X103755976Y-49582129D01*
X103753585Y-49524299D01*
X103753500Y-49520208D01*
X103753500Y-49078328D01*
X105425709Y-49078328D01*
X105455924Y-49301384D01*
X105525484Y-49515466D01*
X105632147Y-49713680D01*
X105709027Y-49810084D01*
X105772492Y-49889666D01*
X105942004Y-50037765D01*
X106038620Y-50095489D01*
X106135235Y-50153215D01*
X106253214Y-50197493D01*
X106345976Y-50232307D01*
X106567453Y-50272500D01*
X106733932Y-50272500D01*
X106736155Y-50272500D01*
X106904188Y-50257377D01*
X107121170Y-50197493D01*
X107323973Y-50099829D01*
X107506078Y-49967522D01*
X107661632Y-49804825D01*
X107785635Y-49616968D01*
X107874103Y-49409988D01*
X107924191Y-49190537D01*
X107934290Y-48965670D01*
X107904075Y-48742613D01*
X107834517Y-48528536D01*
X107727852Y-48330319D01*
X107587508Y-48154334D01*
X107417996Y-48006235D01*
X107314118Y-47944171D01*
X107224764Y-47890784D01*
X107014025Y-47811693D01*
X106792547Y-47771500D01*
X106623845Y-47771500D01*
X106574338Y-47775955D01*
X106455807Y-47786623D01*
X106238830Y-47846506D01*
X106036029Y-47944169D01*
X105853921Y-48076479D01*
X105698369Y-48239174D01*
X105574364Y-48427033D01*
X105485897Y-48634011D01*
X105435808Y-48853465D01*
X105425709Y-49078328D01*
X103753500Y-49078328D01*
X103753500Y-49027096D01*
X103772407Y-48968905D01*
X103821907Y-48932941D01*
X103824608Y-48932106D01*
X103826995Y-48931404D01*
X103897310Y-48910759D01*
X103897313Y-48910757D01*
X103897315Y-48910757D01*
X103947398Y-48887884D01*
X104028095Y-48851031D01*
X104101293Y-48803990D01*
X104209954Y-48709836D01*
X104266937Y-48644074D01*
X104344669Y-48523120D01*
X104380815Y-48443971D01*
X104421322Y-48306016D01*
X104421323Y-48306011D01*
X104433705Y-48219892D01*
X104433705Y-47649130D01*
X104433705Y-47649129D01*
X104433705Y-47648000D01*
X104432401Y-47619793D01*
X104401656Y-47511736D01*
X104333952Y-47422081D01*
X104333951Y-47422080D01*
X104238432Y-47362938D01*
X104128001Y-47342295D01*
X104128000Y-47342295D01*
X103692705Y-47342295D01*
X103678616Y-47341287D01*
X103671507Y-47340265D01*
X103584494Y-47340265D01*
X103577384Y-47341287D01*
X103563296Y-47342295D01*
X103192704Y-47342295D01*
X103178615Y-47341287D01*
X103171506Y-47340265D01*
X103084493Y-47340265D01*
X103077383Y-47341287D01*
X103063295Y-47342295D01*
X102628000Y-47342295D01*
X102626890Y-47342346D01*
X102626860Y-47342347D01*
X102599796Y-47343598D01*
X102491736Y-47374344D01*
X102402080Y-47442048D01*
X102342938Y-47537567D01*
X102322295Y-47647998D01*
X102322295Y-48219892D01*
X102334676Y-48306011D01*
X102375185Y-48443970D01*
X102411333Y-48523124D01*
X102489062Y-48644074D01*
X102546042Y-48709832D01*
X102546044Y-48709833D01*
X102546046Y-48709836D01*
X102654707Y-48803990D01*
X102654709Y-48803991D01*
X102654710Y-48803992D01*
X102727905Y-48851031D01*
X102858684Y-48910757D01*
X102858688Y-48910758D01*
X102858690Y-48910759D01*
X102926268Y-48930601D01*
X102931392Y-48932106D01*
X102981898Y-48966642D01*
X103002460Y-49024269D01*
X103002500Y-49027096D01*
X103002500Y-49333454D01*
X102983593Y-49391645D01*
X102973504Y-49403458D01*
X102810458Y-49566504D01*
X102755941Y-49594281D01*
X102740454Y-49595500D01*
X96751767Y-49595500D01*
X96731451Y-49593393D01*
X96718288Y-49590633D01*
X96685339Y-49594740D01*
X96673094Y-49595500D01*
X96671442Y-49595500D01*
X96665916Y-49596421D01*
X96650438Y-49599004D01*
X96646396Y-49599592D01*
X96588939Y-49606755D01*
X96583377Y-49608537D01*
X96532483Y-49636078D01*
X96528850Y-49637948D01*
X96476819Y-49663386D01*
X96472143Y-49666873D01*
X96432939Y-49709459D01*
X96430107Y-49712410D01*
X96325290Y-49817226D01*
X96270775Y-49845003D01*
X96255288Y-49846222D01*
X96097847Y-49846222D01*
X95944470Y-49884024D01*
X95804595Y-49957438D01*
X95686351Y-50062192D01*
X95596614Y-50192198D01*
X95540596Y-50339906D01*
X95521555Y-50496721D01*
X95532310Y-50585289D01*
X95520555Y-50645334D01*
X95475751Y-50687003D01*
X95434032Y-50696222D01*
X93801533Y-50696222D01*
X93743342Y-50677315D01*
X93720058Y-50653461D01*
X93708484Y-50636693D01*
X93689043Y-50619470D01*
X93590240Y-50531939D01*
X93557425Y-50514716D01*
X93450363Y-50458524D01*
X93296987Y-50420722D01*
X93296985Y-50420722D01*
X93139015Y-50420722D01*
X93139013Y-50420722D01*
X92985636Y-50458524D01*
X92845760Y-50531938D01*
X92785367Y-50585441D01*
X92729272Y-50609875D01*
X92669528Y-50596671D01*
X92654073Y-50585442D01*
X92574240Y-50514717D01*
X92539952Y-50496721D01*
X92434363Y-50441302D01*
X92280987Y-50403500D01*
X92280985Y-50403500D01*
X92123015Y-50403500D01*
X92123013Y-50403500D01*
X91969636Y-50441302D01*
X91829761Y-50514716D01*
X91711517Y-50619470D01*
X91621780Y-50749476D01*
X91621780Y-50749477D01*
X91592338Y-50827107D01*
X91554026Y-50874810D01*
X91499773Y-50891000D01*
X91361013Y-50891000D01*
X91207636Y-50928802D01*
X91067761Y-51002216D01*
X90949517Y-51106970D01*
X90859780Y-51236976D01*
X90803762Y-51384684D01*
X90784721Y-51541500D01*
X90791696Y-51598940D01*
X90779941Y-51658986D01*
X90735136Y-51700654D01*
X90717113Y-51706996D01*
X90699634Y-51711304D01*
X90559761Y-51784716D01*
X90441517Y-51889470D01*
X90351780Y-52019476D01*
X90295762Y-52167184D01*
X90276721Y-52324000D01*
X90295762Y-52480815D01*
X90295762Y-52480817D01*
X90295763Y-52480818D01*
X90351780Y-52628523D01*
X90432172Y-52744992D01*
X90448346Y-52768423D01*
X90447383Y-52769087D01*
X90471822Y-52810637D01*
X90465916Y-52871537D01*
X90446370Y-52898438D01*
X90351780Y-53035476D01*
X90295762Y-53183184D01*
X90276721Y-53339999D01*
X90295762Y-53496815D01*
X90295762Y-53496817D01*
X90295763Y-53496818D01*
X90351780Y-53644523D01*
X90441517Y-53774530D01*
X90559760Y-53879283D01*
X90633173Y-53917814D01*
X90699636Y-53952697D01*
X90853013Y-53990500D01*
X90853015Y-53990500D01*
X91010987Y-53990500D01*
X91164363Y-53952697D01*
X91223860Y-53921470D01*
X91304240Y-53879283D01*
X91422483Y-53774530D01*
X91512220Y-53644523D01*
X91568237Y-53496818D01*
X91587278Y-53340000D01*
X91579635Y-53277061D01*
X91591390Y-53217018D01*
X91607906Y-53195129D01*
X91854316Y-52948721D01*
X91908834Y-52920944D01*
X91924320Y-52919725D01*
X92372336Y-52919725D01*
X92430527Y-52938632D01*
X92466491Y-52988132D01*
X92466491Y-53049318D01*
X92464903Y-53053830D01*
X92444262Y-53108254D01*
X92425221Y-53265071D01*
X92444262Y-53421887D01*
X92500280Y-53569595D01*
X92589391Y-53698696D01*
X92590017Y-53699602D01*
X92671649Y-53771920D01*
X92702667Y-53824657D01*
X92705000Y-53846022D01*
X92705000Y-55405500D01*
X92686093Y-55463691D01*
X92636593Y-55499655D01*
X92606000Y-55504500D01*
X90059561Y-55504500D01*
X90001370Y-55485593D01*
X89970940Y-55449628D01*
X89882365Y-55271743D01*
X89753874Y-55101595D01*
X89596300Y-54957946D01*
X89415021Y-54845703D01*
X89415019Y-54845702D01*
X89372898Y-54829384D01*
X89216195Y-54768677D01*
X89006612Y-54729500D01*
X89006610Y-54729500D01*
X88793390Y-54729500D01*
X88793388Y-54729500D01*
X88583804Y-54768677D01*
X88384978Y-54845703D01*
X88203699Y-54957946D01*
X88046125Y-55101595D01*
X87917634Y-55271743D01*
X87822596Y-55462608D01*
X87822595Y-55462611D01*
X87764244Y-55667690D01*
X87744571Y-55880000D01*
X87764244Y-56092310D01*
X87810676Y-56255500D01*
X87822596Y-56297391D01*
X87917634Y-56488256D01*
X88046125Y-56658404D01*
X88203699Y-56802053D01*
X88335622Y-56883736D01*
X88384981Y-56914298D01*
X88541681Y-56975003D01*
X88583804Y-56991322D01*
X88793388Y-57030500D01*
X88793390Y-57030500D01*
X89006612Y-57030500D01*
X89216195Y-56991322D01*
X89216198Y-56991321D01*
X89415019Y-56914298D01*
X89596302Y-56802052D01*
X89753872Y-56658407D01*
X89882366Y-56488255D01*
X89970940Y-56310371D01*
X90013802Y-56266710D01*
X90059561Y-56255500D01*
X92883955Y-56255500D01*
X92942146Y-56274407D01*
X92953959Y-56284496D01*
X93304089Y-56634626D01*
X93331866Y-56689143D01*
X93332363Y-56716562D01*
X93324721Y-56779498D01*
X93343762Y-56936315D01*
X93343762Y-56936317D01*
X93343763Y-56936318D01*
X93399780Y-57084023D01*
X93489517Y-57214030D01*
X93607760Y-57318783D01*
X93681173Y-57357314D01*
X93747636Y-57392197D01*
X93901013Y-57430000D01*
X93901015Y-57430000D01*
X94058987Y-57430000D01*
X94212363Y-57392197D01*
X94224738Y-57385702D01*
X94352240Y-57318783D01*
X94470483Y-57214030D01*
X94560220Y-57084023D01*
X94616237Y-56936318D01*
X94635278Y-56779500D01*
X94616237Y-56622682D01*
X94560220Y-56474977D01*
X94470483Y-56344970D01*
X94352240Y-56240217D01*
X94345286Y-56236567D01*
X94212363Y-56166802D01*
X94058987Y-56129000D01*
X94058985Y-56129000D01*
X93901546Y-56129000D01*
X93843355Y-56110093D01*
X93831542Y-56100003D01*
X93484996Y-55753456D01*
X93457219Y-55698940D01*
X93456000Y-55683453D01*
X93456000Y-54768677D01*
X93456000Y-53846018D01*
X93474906Y-53787831D01*
X93489345Y-53771924D01*
X93570983Y-53699602D01*
X93660720Y-53569595D01*
X93716737Y-53421890D01*
X93735778Y-53265072D01*
X93716737Y-53108254D01*
X93696097Y-53053830D01*
X93693142Y-52992716D01*
X93726672Y-52941537D01*
X93783882Y-52919841D01*
X93788664Y-52919725D01*
X95398753Y-52919725D01*
X95456944Y-52938632D01*
X95492908Y-52988132D01*
X95492908Y-53049318D01*
X95491329Y-53053803D01*
X95454339Y-53151337D01*
X95442262Y-53183184D01*
X95423221Y-53339999D01*
X95442262Y-53496815D01*
X95442262Y-53496817D01*
X95442263Y-53496818D01*
X95498280Y-53644523D01*
X95588017Y-53774530D01*
X95706260Y-53879283D01*
X95779674Y-53917814D01*
X95846136Y-53952697D01*
X95999513Y-53990500D01*
X95999515Y-53990500D01*
X96157487Y-53990500D01*
X96310863Y-53952697D01*
X96370360Y-53921470D01*
X96450740Y-53879283D01*
X96568983Y-53774530D01*
X96580212Y-53758261D01*
X96628830Y-53721112D01*
X96661688Y-53715500D01*
X99264789Y-53715500D01*
X99285105Y-53717607D01*
X99298268Y-53720367D01*
X99331216Y-53716260D01*
X99343462Y-53715500D01*
X99345112Y-53715500D01*
X99345114Y-53715500D01*
X99366147Y-53711989D01*
X99370143Y-53711407D01*
X99422626Y-53704866D01*
X99422627Y-53704865D01*
X99427637Y-53704241D01*
X99433163Y-53702470D01*
X99437605Y-53700065D01*
X99437610Y-53700065D01*
X99484104Y-53674903D01*
X99487694Y-53673055D01*
X99535211Y-53649826D01*
X99535212Y-53649824D01*
X99539755Y-53647604D01*
X99544397Y-53644142D01*
X99547822Y-53640420D01*
X99547826Y-53640419D01*
X99583652Y-53601500D01*
X99586414Y-53598621D01*
X99837967Y-53347068D01*
X99892482Y-53319293D01*
X99952914Y-53328864D01*
X99996179Y-53372129D01*
X100000535Y-53381968D01*
X100003778Y-53390519D01*
X100003780Y-53390523D01*
X100093517Y-53520530D01*
X100211760Y-53625283D01*
X100225285Y-53632381D01*
X100227111Y-53633340D01*
X100269850Y-53677125D01*
X100278690Y-53737668D01*
X100250255Y-53791845D01*
X100227111Y-53808660D01*
X100211761Y-53816716D01*
X100093517Y-53921470D01*
X100003780Y-54051476D01*
X99947762Y-54199184D01*
X99928721Y-54356000D01*
X99947762Y-54512815D01*
X99947762Y-54512817D01*
X99947763Y-54512818D01*
X100003780Y-54660523D01*
X100093517Y-54790530D01*
X100175149Y-54862848D01*
X100206167Y-54915585D01*
X100208500Y-54936950D01*
X100208499Y-57754612D01*
X100189592Y-57812803D01*
X100140092Y-57848767D01*
X100078906Y-57848767D01*
X100063495Y-57842274D01*
X99996866Y-57807304D01*
X99996865Y-57807303D01*
X99996862Y-57807302D01*
X99843488Y-57769500D01*
X99843486Y-57769500D01*
X99685516Y-57769500D01*
X99685514Y-57769500D01*
X99532137Y-57807302D01*
X99392262Y-57880716D01*
X99274016Y-57985471D01*
X99262788Y-58001739D01*
X99214171Y-58038888D01*
X99181313Y-58044500D01*
X97986546Y-58044500D01*
X97928355Y-58025593D01*
X97916542Y-58015504D01*
X97582311Y-57681273D01*
X97569435Y-57665416D01*
X97562083Y-57654162D01*
X97535888Y-57633774D01*
X97526697Y-57625659D01*
X97525518Y-57624480D01*
X97516931Y-57618349D01*
X97508170Y-57612094D01*
X97504887Y-57609646D01*
X97459207Y-57574091D01*
X97454040Y-57571431D01*
X97398551Y-57554911D01*
X97394669Y-57553667D01*
X97373638Y-57546447D01*
X97339890Y-57534862D01*
X97334127Y-57534023D01*
X97276299Y-57536415D01*
X97272208Y-57536500D01*
X95553210Y-57536500D01*
X95532895Y-57534393D01*
X95519731Y-57531633D01*
X95486784Y-57535740D01*
X95474539Y-57536500D01*
X95472883Y-57536500D01*
X95451873Y-57540005D01*
X95447831Y-57540594D01*
X95390372Y-57547758D01*
X95384822Y-57549536D01*
X95333906Y-57577089D01*
X95330271Y-57578960D01*
X95278265Y-57604384D01*
X95273587Y-57607873D01*
X95234406Y-57650434D01*
X95231574Y-57653386D01*
X94765271Y-58119689D01*
X94749419Y-58132562D01*
X94738162Y-58139917D01*
X94717766Y-58166120D01*
X94709658Y-58175304D01*
X94708480Y-58176481D01*
X94696090Y-58193835D01*
X94693646Y-58197112D01*
X94658095Y-58242788D01*
X94655427Y-58247971D01*
X94638911Y-58303448D01*
X94637664Y-58307341D01*
X94618862Y-58362111D01*
X94618023Y-58367871D01*
X94620415Y-58425699D01*
X94620500Y-58429790D01*
X94620500Y-59209040D01*
X94601593Y-59267231D01*
X94552093Y-59303195D01*
X94497809Y-59305164D01*
X94450485Y-59293500D01*
X94292515Y-59293500D01*
X94292513Y-59293500D01*
X94139136Y-59331302D01*
X94045724Y-59380330D01*
X93985412Y-59390631D01*
X93930564Y-59363515D01*
X93929712Y-59362674D01*
X92756311Y-58189273D01*
X92743435Y-58173416D01*
X92736083Y-58162162D01*
X92709888Y-58141774D01*
X92700697Y-58133659D01*
X92699518Y-58132480D01*
X92690931Y-58126349D01*
X92682170Y-58120094D01*
X92678887Y-58117646D01*
X92633207Y-58082091D01*
X92628040Y-58079431D01*
X92572551Y-58062911D01*
X92568669Y-58061667D01*
X92547638Y-58054447D01*
X92513890Y-58042862D01*
X92508127Y-58042023D01*
X92450299Y-58044415D01*
X92446208Y-58044500D01*
X90059561Y-58044500D01*
X90001370Y-58025593D01*
X89970940Y-57989628D01*
X89882365Y-57811743D01*
X89753874Y-57641595D01*
X89596300Y-57497946D01*
X89415021Y-57385703D01*
X89415019Y-57385702D01*
X89372898Y-57369384D01*
X89216195Y-57308677D01*
X89006612Y-57269500D01*
X89006610Y-57269500D01*
X88793390Y-57269500D01*
X88793388Y-57269500D01*
X88583804Y-57308677D01*
X88384978Y-57385703D01*
X88203699Y-57497946D01*
X88046125Y-57641595D01*
X87917634Y-57811743D01*
X87823029Y-58001739D01*
X87822595Y-58002611D01*
X87776072Y-58166120D01*
X87764244Y-58207690D01*
X87749253Y-58369477D01*
X87744571Y-58420000D01*
X87764244Y-58632310D01*
X87820725Y-58830818D01*
X87822596Y-58837391D01*
X87917634Y-59028256D01*
X88046125Y-59198404D01*
X88046127Y-59198406D01*
X88046128Y-59198407D01*
X88057792Y-59209040D01*
X88203699Y-59342053D01*
X88304905Y-59404717D01*
X88384981Y-59454298D01*
X88527398Y-59509470D01*
X88583804Y-59531322D01*
X88793388Y-59570500D01*
X88793390Y-59570500D01*
X89006612Y-59570500D01*
X89216195Y-59531322D01*
X89216198Y-59531321D01*
X89415019Y-59454298D01*
X89596302Y-59342052D01*
X89753872Y-59198407D01*
X89882366Y-59028255D01*
X89970940Y-58850371D01*
X90013802Y-58806710D01*
X90059561Y-58795500D01*
X92259455Y-58795500D01*
X92317646Y-58814407D01*
X92329459Y-58824496D01*
X93679686Y-60174723D01*
X93692558Y-60190575D01*
X93693539Y-60192075D01*
X93699917Y-60201837D01*
X93709505Y-60209300D01*
X93743812Y-60259962D01*
X93741788Y-60321114D01*
X93704207Y-60369397D01*
X93694705Y-60375084D01*
X93607761Y-60420716D01*
X93489515Y-60525471D01*
X93478287Y-60541739D01*
X93429670Y-60578888D01*
X93396812Y-60584500D01*
X90059561Y-60584500D01*
X90001370Y-60565593D01*
X89970940Y-60529628D01*
X89927701Y-60442792D01*
X89882366Y-60351745D01*
X89882365Y-60351744D01*
X89882365Y-60351743D01*
X89753874Y-60181595D01*
X89596300Y-60037946D01*
X89415021Y-59925703D01*
X89415019Y-59925702D01*
X89372898Y-59909384D01*
X89216195Y-59848677D01*
X89006612Y-59809500D01*
X89006610Y-59809500D01*
X88793390Y-59809500D01*
X88793388Y-59809500D01*
X88583804Y-59848677D01*
X88384978Y-59925703D01*
X88203699Y-60037946D01*
X88046125Y-60181595D01*
X87917634Y-60351743D01*
X87823029Y-60541739D01*
X87822595Y-60542611D01*
X87764244Y-60747690D01*
X87744571Y-60960000D01*
X87764244Y-61172310D01*
X87810676Y-61335500D01*
X87822596Y-61377391D01*
X87917634Y-61568256D01*
X88046125Y-61738404D01*
X88203699Y-61882053D01*
X88288493Y-61934555D01*
X88384981Y-61994298D01*
X88541681Y-62055003D01*
X88583804Y-62071322D01*
X88793388Y-62110500D01*
X88793390Y-62110500D01*
X89006612Y-62110500D01*
X89216195Y-62071322D01*
X89216198Y-62071321D01*
X89415019Y-61994298D01*
X89596302Y-61882052D01*
X89753872Y-61738407D01*
X89882366Y-61568255D01*
X89970940Y-61390371D01*
X90013802Y-61346710D01*
X90059561Y-61335500D01*
X93396812Y-61335500D01*
X93455003Y-61354407D01*
X93478287Y-61378261D01*
X93489515Y-61394528D01*
X93526617Y-61427397D01*
X93557636Y-61480137D01*
X93551731Y-61541037D01*
X93511157Y-61586835D01*
X93460968Y-61600500D01*
X91959063Y-61600500D01*
X91938747Y-61598393D01*
X91925584Y-61595633D01*
X91892635Y-61599740D01*
X91880390Y-61600500D01*
X91878738Y-61600500D01*
X91873212Y-61601421D01*
X91857734Y-61604004D01*
X91853692Y-61604592D01*
X91796235Y-61611755D01*
X91790673Y-61613537D01*
X91739779Y-61641078D01*
X91736146Y-61642948D01*
X91684115Y-61668386D01*
X91679439Y-61671873D01*
X91640247Y-61714446D01*
X91637415Y-61717398D01*
X90161825Y-63192987D01*
X90107308Y-63220764D01*
X90046876Y-63211193D01*
X90003611Y-63167928D01*
X89996602Y-63150083D01*
X89977405Y-63082611D01*
X89882366Y-62891745D01*
X89882365Y-62891744D01*
X89882365Y-62891743D01*
X89753874Y-62721595D01*
X89596300Y-62577946D01*
X89415021Y-62465703D01*
X89415019Y-62465702D01*
X89372898Y-62449384D01*
X89216195Y-62388677D01*
X89006612Y-62349500D01*
X89006610Y-62349500D01*
X88793390Y-62349500D01*
X88793388Y-62349500D01*
X88583804Y-62388677D01*
X88384978Y-62465703D01*
X88203699Y-62577946D01*
X88046125Y-62721595D01*
X87917634Y-62891743D01*
X87822596Y-63082608D01*
X87822595Y-63082611D01*
X87764244Y-63287690D01*
X87744571Y-63500000D01*
X87764244Y-63712310D01*
X87803757Y-63851182D01*
X87822596Y-63917391D01*
X87917634Y-64108256D01*
X88046125Y-64278404D01*
X88046127Y-64278406D01*
X88046128Y-64278407D01*
X88161409Y-64383500D01*
X88203699Y-64422053D01*
X88236771Y-64442530D01*
X88384981Y-64534298D01*
X88541681Y-64595003D01*
X88583804Y-64611322D01*
X88793388Y-64650500D01*
X88793390Y-64650500D01*
X89006612Y-64650500D01*
X89216195Y-64611322D01*
X89216198Y-64611321D01*
X89415019Y-64534298D01*
X89596302Y-64422052D01*
X89753872Y-64278407D01*
X89824498Y-64184883D01*
X89874651Y-64149843D01*
X89935826Y-64150974D01*
X89984653Y-64187846D01*
X90002499Y-64244547D01*
X90002499Y-65295453D01*
X89983592Y-65353644D01*
X89934092Y-65389608D01*
X89872906Y-65389608D01*
X89824498Y-65355116D01*
X89753872Y-65261593D01*
X89596302Y-65117948D01*
X89596300Y-65117946D01*
X89415021Y-65005703D01*
X89415019Y-65005702D01*
X89337084Y-64975510D01*
X89216195Y-64928677D01*
X89006612Y-64889500D01*
X89006610Y-64889500D01*
X88793390Y-64889500D01*
X88793388Y-64889500D01*
X88583804Y-64928677D01*
X88384978Y-65005703D01*
X88203699Y-65117946D01*
X88046125Y-65261595D01*
X87917634Y-65431743D01*
X87838327Y-65591016D01*
X87822595Y-65622611D01*
X87764244Y-65827690D01*
X87744571Y-66040000D01*
X87764244Y-66252310D01*
X87820891Y-66451401D01*
X87822596Y-66457391D01*
X87917634Y-66648256D01*
X88046125Y-66818404D01*
X88203699Y-66962053D01*
X88335622Y-67043736D01*
X88384981Y-67074298D01*
X88541681Y-67135003D01*
X88583804Y-67151322D01*
X88793388Y-67190500D01*
X88793390Y-67190500D01*
X89006612Y-67190500D01*
X89216195Y-67151322D01*
X89216198Y-67151321D01*
X89415019Y-67074298D01*
X89596302Y-66962052D01*
X89753872Y-66818407D01*
X89882366Y-66648255D01*
X89977405Y-66457389D01*
X89977407Y-66457381D01*
X89980385Y-66451401D01*
X90023248Y-66407738D01*
X90028962Y-66405826D01*
X90039606Y-66400065D01*
X90039610Y-66400065D01*
X90086104Y-66374903D01*
X90089694Y-66373055D01*
X90137211Y-66349826D01*
X90137213Y-66349823D01*
X90141762Y-66347600D01*
X90155558Y-66337317D01*
X90156420Y-66336851D01*
X90216601Y-66325811D01*
X90271778Y-66352252D01*
X90300875Y-66406076D01*
X90302500Y-66423940D01*
X90302500Y-81845453D01*
X90283593Y-81903644D01*
X90273504Y-81915457D01*
X89452156Y-82736804D01*
X89397639Y-82764581D01*
X89346390Y-82759115D01*
X89288798Y-82736804D01*
X89216195Y-82708677D01*
X89006612Y-82669500D01*
X89006610Y-82669500D01*
X88793390Y-82669500D01*
X88793388Y-82669500D01*
X88583804Y-82708677D01*
X88384978Y-82785703D01*
X88203699Y-82897946D01*
X88046125Y-83041595D01*
X87917634Y-83211743D01*
X87822596Y-83402608D01*
X87764244Y-83607690D01*
X87744571Y-83820000D01*
X87764244Y-84032309D01*
X87822596Y-84237391D01*
X87917634Y-84428256D01*
X88046125Y-84598404D01*
X88203699Y-84742053D01*
X88335622Y-84823736D01*
X88384981Y-84854298D01*
X88541681Y-84915003D01*
X88583804Y-84931322D01*
X88793388Y-84970500D01*
X88793390Y-84970500D01*
X89006612Y-84970500D01*
X89216195Y-84931322D01*
X89216198Y-84931321D01*
X89415019Y-84854298D01*
X89596302Y-84742052D01*
X89753872Y-84598407D01*
X89882366Y-84428255D01*
X89977405Y-84237389D01*
X90035756Y-84032310D01*
X90055429Y-83820000D01*
X90035756Y-83607690D01*
X89977405Y-83402611D01*
X89966279Y-83380267D01*
X89957267Y-83319753D01*
X89984898Y-83266138D01*
X90433497Y-82817540D01*
X90488013Y-82789763D01*
X90548445Y-82799334D01*
X90591710Y-82842599D01*
X90602500Y-82887544D01*
X90602499Y-84085453D01*
X90583592Y-84143644D01*
X90573503Y-84155457D01*
X89452156Y-85276804D01*
X89397639Y-85304581D01*
X89346390Y-85299115D01*
X89288798Y-85276804D01*
X89216195Y-85248677D01*
X89006612Y-85209500D01*
X89006610Y-85209500D01*
X88793390Y-85209500D01*
X88793388Y-85209500D01*
X88583804Y-85248677D01*
X88384978Y-85325703D01*
X88203699Y-85437946D01*
X88046125Y-85581595D01*
X87917634Y-85751743D01*
X87822596Y-85942608D01*
X87764244Y-86147690D01*
X87744571Y-86360000D01*
X87764244Y-86572309D01*
X87822596Y-86777391D01*
X87917634Y-86968256D01*
X88046125Y-87138404D01*
X88203699Y-87282053D01*
X88251904Y-87311900D01*
X88384981Y-87394298D01*
X88541681Y-87455003D01*
X88583804Y-87471322D01*
X88793388Y-87510500D01*
X88793390Y-87510500D01*
X89006612Y-87510500D01*
X89216195Y-87471322D01*
X89216198Y-87471321D01*
X89415019Y-87394298D01*
X89596302Y-87282052D01*
X89753872Y-87138407D01*
X89882366Y-86968255D01*
X89977405Y-86777389D01*
X90035756Y-86572310D01*
X90055429Y-86360000D01*
X90035756Y-86147690D01*
X89977405Y-85942611D01*
X89966279Y-85920266D01*
X89957267Y-85859753D01*
X89984895Y-85806140D01*
X90733497Y-85057539D01*
X90788013Y-85029763D01*
X90848445Y-85039334D01*
X90891710Y-85082599D01*
X90902500Y-85127544D01*
X90902500Y-86290098D01*
X90883593Y-86348289D01*
X90873504Y-86360102D01*
X89426673Y-87806932D01*
X89372156Y-87834709D01*
X89320907Y-87829243D01*
X89283635Y-87814804D01*
X89216195Y-87788677D01*
X89006612Y-87749500D01*
X89006610Y-87749500D01*
X88793390Y-87749500D01*
X88793388Y-87749500D01*
X88583804Y-87788677D01*
X88384978Y-87865703D01*
X88203699Y-87977946D01*
X88046125Y-88121595D01*
X87917634Y-88291743D01*
X87822596Y-88482608D01*
X87764244Y-88687690D01*
X87744571Y-88900000D01*
X87764244Y-89112309D01*
X87822596Y-89317391D01*
X87917634Y-89508256D01*
X88046125Y-89678404D01*
X88203699Y-89822053D01*
X88335622Y-89903736D01*
X88384981Y-89934298D01*
X88541681Y-89995003D01*
X88583804Y-90011322D01*
X88793388Y-90050500D01*
X88793390Y-90050500D01*
X89006612Y-90050500D01*
X89216195Y-90011322D01*
X89222393Y-90008921D01*
X89415019Y-89934298D01*
X89596302Y-89822052D01*
X89753872Y-89678407D01*
X89882366Y-89508255D01*
X89977405Y-89317389D01*
X90035756Y-89112310D01*
X90055429Y-88900000D01*
X90035756Y-88687690D01*
X89977405Y-88482611D01*
X89977403Y-88482606D01*
X89974894Y-88473788D01*
X89976464Y-88473341D01*
X89969020Y-88423359D01*
X89996648Y-88369743D01*
X91124496Y-87241895D01*
X91179013Y-87214119D01*
X91239445Y-87223690D01*
X91282710Y-87266955D01*
X91293500Y-87311900D01*
X91293500Y-88439098D01*
X91274593Y-88497289D01*
X91264504Y-88509102D01*
X89426673Y-90346932D01*
X89372156Y-90374709D01*
X89320907Y-90369243D01*
X89283635Y-90354804D01*
X89216195Y-90328677D01*
X89006612Y-90289500D01*
X89006610Y-90289500D01*
X88793390Y-90289500D01*
X88793388Y-90289500D01*
X88583804Y-90328677D01*
X88384978Y-90405703D01*
X88203699Y-90517946D01*
X88046125Y-90661595D01*
X87917634Y-90831743D01*
X87822596Y-91022608D01*
X87822595Y-91022611D01*
X87764244Y-91227690D01*
X87744571Y-91440000D01*
X87764244Y-91652310D01*
X87797957Y-91770798D01*
X87822596Y-91857391D01*
X87917634Y-92048256D01*
X88046125Y-92218404D01*
X88203699Y-92362053D01*
X88340616Y-92446829D01*
X88380137Y-92493537D01*
X88384656Y-92554556D01*
X88352446Y-92606577D01*
X88295810Y-92629730D01*
X88288499Y-92630000D01*
X88004819Y-92630000D01*
X87999542Y-92630282D01*
X87942623Y-92636401D01*
X87807910Y-92686646D01*
X87692811Y-92772811D01*
X87606646Y-92887910D01*
X87556401Y-93022623D01*
X87550282Y-93079542D01*
X87550000Y-93084818D01*
X87550000Y-93729999D01*
X87550001Y-93730000D01*
X88466314Y-93730000D01*
X88440507Y-93770156D01*
X88400000Y-93908111D01*
X88400000Y-94051889D01*
X88440507Y-94189844D01*
X88466314Y-94230000D01*
X87550000Y-94230000D01*
X87550000Y-94875181D01*
X86360500Y-94875181D01*
X86360500Y-81280000D01*
X87744571Y-81280000D01*
X87764244Y-81492309D01*
X87822596Y-81697391D01*
X87917634Y-81888256D01*
X88046125Y-82058404D01*
X88203699Y-82202053D01*
X88335622Y-82283736D01*
X88384981Y-82314298D01*
X88526032Y-82368941D01*
X88583804Y-82391322D01*
X88793388Y-82430500D01*
X88793390Y-82430500D01*
X89006612Y-82430500D01*
X89216195Y-82391322D01*
X89216198Y-82391321D01*
X89415019Y-82314298D01*
X89596302Y-82202052D01*
X89753872Y-82058407D01*
X89882366Y-81888255D01*
X89977405Y-81697389D01*
X90035756Y-81492310D01*
X90055429Y-81280000D01*
X90035756Y-81067690D01*
X89977405Y-80862611D01*
X89882366Y-80671745D01*
X89882365Y-80671744D01*
X89882365Y-80671743D01*
X89753874Y-80501595D01*
X89596300Y-80357946D01*
X89415021Y-80245703D01*
X89415019Y-80245702D01*
X89355140Y-80222505D01*
X89216195Y-80168677D01*
X89006612Y-80129500D01*
X89006610Y-80129500D01*
X88793390Y-80129500D01*
X88793388Y-80129500D01*
X88583804Y-80168677D01*
X88384978Y-80245703D01*
X88203699Y-80357946D01*
X88046125Y-80501595D01*
X87917634Y-80671743D01*
X87822596Y-80862608D01*
X87822595Y-80862611D01*
X87766037Y-81061390D01*
X87764244Y-81067690D01*
X87744571Y-81280000D01*
X86360500Y-81280000D01*
X86360500Y-78740000D01*
X87744571Y-78740000D01*
X87764244Y-78952310D01*
X87769311Y-78970120D01*
X87822596Y-79157391D01*
X87917634Y-79348256D01*
X88046125Y-79518404D01*
X88203699Y-79662053D01*
X88335622Y-79743736D01*
X88384981Y-79774298D01*
X88541681Y-79835003D01*
X88583804Y-79851322D01*
X88793388Y-79890500D01*
X88793390Y-79890500D01*
X89006612Y-79890500D01*
X89216195Y-79851322D01*
X89216198Y-79851321D01*
X89415019Y-79774298D01*
X89596302Y-79662052D01*
X89753872Y-79518407D01*
X89882366Y-79348255D01*
X89977405Y-79157389D01*
X90035756Y-78952310D01*
X90055429Y-78740000D01*
X90035756Y-78527690D01*
X89977405Y-78322611D01*
X89882366Y-78131745D01*
X89882365Y-78131744D01*
X89882365Y-78131743D01*
X89753874Y-77961595D01*
X89596300Y-77817946D01*
X89415021Y-77705703D01*
X89415019Y-77705702D01*
X89355140Y-77682505D01*
X89216195Y-77628677D01*
X89006612Y-77589500D01*
X89006610Y-77589500D01*
X88793390Y-77589500D01*
X88793388Y-77589500D01*
X88583804Y-77628677D01*
X88384978Y-77705703D01*
X88203699Y-77817946D01*
X88046125Y-77961595D01*
X87917634Y-78131743D01*
X87822596Y-78322608D01*
X87822595Y-78322611D01*
X87764244Y-78527690D01*
X87744571Y-78740000D01*
X86360500Y-78740000D01*
X86360500Y-76200000D01*
X87744571Y-76200000D01*
X87764244Y-76412310D01*
X87812352Y-76581390D01*
X87822596Y-76617391D01*
X87917634Y-76808256D01*
X88046125Y-76978404D01*
X88203699Y-77122053D01*
X88335622Y-77203736D01*
X88384981Y-77234298D01*
X88541681Y-77295003D01*
X88583804Y-77311322D01*
X88793388Y-77350500D01*
X88793390Y-77350500D01*
X89006612Y-77350500D01*
X89216195Y-77311322D01*
X89216198Y-77311321D01*
X89415019Y-77234298D01*
X89596302Y-77122052D01*
X89753872Y-76978407D01*
X89882366Y-76808255D01*
X89977405Y-76617389D01*
X90035756Y-76412310D01*
X90055429Y-76200000D01*
X90035756Y-75987690D01*
X89977405Y-75782611D01*
X89882366Y-75591745D01*
X89882365Y-75591744D01*
X89882365Y-75591743D01*
X89753874Y-75421595D01*
X89596300Y-75277946D01*
X89415021Y-75165703D01*
X89415019Y-75165702D01*
X89372898Y-75149384D01*
X89216195Y-75088677D01*
X89006612Y-75049500D01*
X89006610Y-75049500D01*
X88793390Y-75049500D01*
X88793388Y-75049500D01*
X88583804Y-75088677D01*
X88384978Y-75165703D01*
X88203699Y-75277946D01*
X88046125Y-75421595D01*
X87917634Y-75591743D01*
X87822596Y-75782608D01*
X87822595Y-75782611D01*
X87764244Y-75987690D01*
X87744571Y-76200000D01*
X86360500Y-76200000D01*
X86360500Y-73660000D01*
X87744571Y-73660000D01*
X87764244Y-73872309D01*
X87822596Y-74077391D01*
X87917634Y-74268256D01*
X88046125Y-74438404D01*
X88203699Y-74582053D01*
X88335622Y-74663736D01*
X88384981Y-74694298D01*
X88541681Y-74755003D01*
X88583804Y-74771322D01*
X88793388Y-74810500D01*
X88793390Y-74810500D01*
X89006612Y-74810500D01*
X89216195Y-74771322D01*
X89216198Y-74771321D01*
X89415019Y-74694298D01*
X89596302Y-74582052D01*
X89753872Y-74438407D01*
X89882366Y-74268255D01*
X89977405Y-74077389D01*
X90035756Y-73872310D01*
X90055429Y-73660000D01*
X90035756Y-73447690D01*
X89977405Y-73242611D01*
X89882366Y-73051745D01*
X89882365Y-73051744D01*
X89882365Y-73051743D01*
X89753874Y-72881595D01*
X89596300Y-72737946D01*
X89415021Y-72625703D01*
X89415019Y-72625702D01*
X89365357Y-72606463D01*
X89216195Y-72548677D01*
X89006612Y-72509500D01*
X89006610Y-72509500D01*
X88793390Y-72509500D01*
X88793388Y-72509500D01*
X88583804Y-72548677D01*
X88384978Y-72625703D01*
X88203699Y-72737946D01*
X88046125Y-72881595D01*
X87917634Y-73051743D01*
X87822596Y-73242608D01*
X87764244Y-73447690D01*
X87744571Y-73660000D01*
X86360500Y-73660000D01*
X86360500Y-71120000D01*
X87744571Y-71120000D01*
X87764244Y-71332310D01*
X87816651Y-71516500D01*
X87822596Y-71537391D01*
X87917634Y-71728256D01*
X88046125Y-71898404D01*
X88203699Y-72042053D01*
X88260748Y-72077376D01*
X88384981Y-72154298D01*
X88534158Y-72212089D01*
X88583804Y-72231322D01*
X88793388Y-72270500D01*
X88793390Y-72270500D01*
X89006612Y-72270500D01*
X89216195Y-72231322D01*
X89216198Y-72231321D01*
X89415019Y-72154298D01*
X89596302Y-72042052D01*
X89753872Y-71898407D01*
X89882366Y-71728255D01*
X89977405Y-71537389D01*
X90035756Y-71332310D01*
X90055429Y-71120000D01*
X90035756Y-70907690D01*
X89977405Y-70702611D01*
X89882366Y-70511745D01*
X89882365Y-70511744D01*
X89882365Y-70511743D01*
X89753874Y-70341595D01*
X89596300Y-70197946D01*
X89415021Y-70085703D01*
X89415019Y-70085702D01*
X89372898Y-70069384D01*
X89216195Y-70008677D01*
X89006612Y-69969500D01*
X89006610Y-69969500D01*
X88793390Y-69969500D01*
X88793388Y-69969500D01*
X88583804Y-70008677D01*
X88384978Y-70085703D01*
X88203699Y-70197946D01*
X88046125Y-70341595D01*
X87917634Y-70511743D01*
X87822596Y-70702608D01*
X87822595Y-70702611D01*
X87764244Y-70907690D01*
X87744571Y-71120000D01*
X86360500Y-71120000D01*
X86360500Y-68580000D01*
X87744571Y-68580000D01*
X87764244Y-68792310D01*
X87799818Y-68917338D01*
X87822596Y-68997391D01*
X87917634Y-69188256D01*
X88046125Y-69358404D01*
X88046127Y-69358406D01*
X88046128Y-69358407D01*
X88150439Y-69453500D01*
X88203699Y-69502053D01*
X88262279Y-69538324D01*
X88384981Y-69614298D01*
X88519974Y-69666594D01*
X88583804Y-69691322D01*
X88793388Y-69730500D01*
X88793390Y-69730500D01*
X89006612Y-69730500D01*
X89216195Y-69691322D01*
X89216198Y-69691321D01*
X89415019Y-69614298D01*
X89596302Y-69502052D01*
X89753872Y-69358407D01*
X89882366Y-69188255D01*
X89977405Y-68997389D01*
X90035756Y-68792310D01*
X90055429Y-68580000D01*
X90035756Y-68367690D01*
X89977405Y-68162611D01*
X89882366Y-67971745D01*
X89882365Y-67971744D01*
X89882365Y-67971743D01*
X89753874Y-67801595D01*
X89596300Y-67657946D01*
X89415021Y-67545703D01*
X89415019Y-67545702D01*
X89372898Y-67529384D01*
X89216195Y-67468677D01*
X89006612Y-67429500D01*
X89006610Y-67429500D01*
X88793390Y-67429500D01*
X88793388Y-67429500D01*
X88583804Y-67468677D01*
X88384978Y-67545703D01*
X88203699Y-67657946D01*
X88046125Y-67801595D01*
X87917634Y-67971743D01*
X87823718Y-68160355D01*
X87822595Y-68162611D01*
X87777689Y-68320436D01*
X87764244Y-68367690D01*
X87750383Y-68517282D01*
X87744571Y-68580000D01*
X86360500Y-68580000D01*
X86360500Y-49375000D01*
X86379407Y-49316809D01*
X86428907Y-49280845D01*
X86459500Y-49276000D01*
X87595749Y-49276000D01*
X87653940Y-49294907D01*
X87689902Y-49344404D01*
X87711212Y-49409988D01*
X87745484Y-49515466D01*
X87852147Y-49713680D01*
X87929027Y-49810084D01*
X87992492Y-49889666D01*
X88162004Y-50037765D01*
X88258620Y-50095490D01*
X88355235Y-50153215D01*
X88473214Y-50197493D01*
X88565976Y-50232307D01*
X88787453Y-50272500D01*
X88953932Y-50272500D01*
X88956155Y-50272500D01*
X89124188Y-50257377D01*
X89341170Y-50197493D01*
X89543973Y-50099829D01*
X89726078Y-49967522D01*
X89881632Y-49804825D01*
X90005635Y-49616968D01*
X90094103Y-49409988D01*
X90107116Y-49352970D01*
X90138500Y-49300445D01*
X90194761Y-49276398D01*
X90203635Y-49276000D01*
X100837999Y-49276000D01*
X100838000Y-49276000D01*
X100837999Y-45819499D01*
X100856907Y-45761309D01*
X100906407Y-45725345D01*
X100937000Y-45720500D01*
X109120500Y-45720500D01*
X109178691Y-45739407D01*
G37*
%TD.AperFunction*%
%TD*%
M02*
