%TF.GenerationSoftware,KiCad,Pcbnew,7.0.2*%
%TF.CreationDate,2024-02-26T12:12:44+02:00*%
%TF.ProjectId,STM32_EVB,53544d33-325f-4455-9642-2e6b69636164,01*%
%TF.SameCoordinates,Original*%
%TF.FileFunction,Legend,Bot*%
%TF.FilePolarity,Positive*%
%FSLAX46Y46*%
G04 Gerber Fmt 4.6, Leading zero omitted, Abs format (unit mm)*
G04 Created by KiCad (PCBNEW 7.0.2) date 2024-02-26 12:12:44*
%MOMM*%
%LPD*%
G01*
G04 APERTURE LIST*
%ADD10C,0.200000*%
%ADD11C,0.010000*%
%ADD12C,0.120000*%
G04 APERTURE END LIST*
D10*
G36*
X101135701Y-48140369D02*
G01*
X101129851Y-48151294D01*
X101124117Y-48163184D01*
X101118500Y-48176040D01*
X101114819Y-48185148D01*
X101111189Y-48194685D01*
X101107612Y-48204651D01*
X101104085Y-48215047D01*
X101100611Y-48225872D01*
X101097187Y-48237126D01*
X101093816Y-48248810D01*
X101090496Y-48260923D01*
X101087227Y-48273465D01*
X101084010Y-48286436D01*
X101080844Y-48299837D01*
X101079281Y-48306699D01*
X101076264Y-48320459D01*
X101073442Y-48334142D01*
X101070814Y-48347746D01*
X101068381Y-48361272D01*
X101066143Y-48374719D01*
X101064100Y-48388089D01*
X101062251Y-48401380D01*
X101060596Y-48414593D01*
X101059136Y-48427728D01*
X101057871Y-48440784D01*
X101056801Y-48453763D01*
X101055925Y-48466663D01*
X101055244Y-48479484D01*
X101054757Y-48492228D01*
X101054465Y-48504893D01*
X101054368Y-48517480D01*
X101054494Y-48533546D01*
X101054873Y-48549382D01*
X101055504Y-48564987D01*
X101056387Y-48580361D01*
X101057522Y-48595506D01*
X101058910Y-48610419D01*
X101060551Y-48625103D01*
X101062443Y-48639556D01*
X101064588Y-48653779D01*
X101066986Y-48667771D01*
X101069635Y-48681533D01*
X101072537Y-48695064D01*
X101075692Y-48708365D01*
X101079099Y-48721435D01*
X101082758Y-48734276D01*
X101086669Y-48746885D01*
X101090833Y-48759265D01*
X101095249Y-48771414D01*
X101099918Y-48783332D01*
X101104838Y-48795020D01*
X101110012Y-48806478D01*
X101115437Y-48817705D01*
X101121115Y-48828702D01*
X101127045Y-48839469D01*
X101133228Y-48850005D01*
X101139663Y-48860310D01*
X101146350Y-48870386D01*
X101153290Y-48880231D01*
X101160482Y-48889845D01*
X101167927Y-48899229D01*
X101175623Y-48908383D01*
X101183572Y-48917306D01*
X101191749Y-48925961D01*
X101200128Y-48934342D01*
X101208708Y-48942448D01*
X101217492Y-48950279D01*
X101226477Y-48957835D01*
X101235665Y-48965116D01*
X101245055Y-48972123D01*
X101254647Y-48978855D01*
X101264442Y-48985312D01*
X101274438Y-48991495D01*
X101284637Y-48997402D01*
X101295039Y-49003035D01*
X101305642Y-49008393D01*
X101316448Y-49013476D01*
X101327456Y-49018285D01*
X101338667Y-49022819D01*
X101350079Y-49027078D01*
X101361694Y-49031062D01*
X101373511Y-49034771D01*
X101385531Y-49038206D01*
X101397752Y-49041366D01*
X101410176Y-49044251D01*
X101422803Y-49046861D01*
X101435631Y-49049197D01*
X101448662Y-49051258D01*
X101461895Y-49053044D01*
X101475330Y-49054555D01*
X101488968Y-49055792D01*
X101502807Y-49056753D01*
X101516849Y-49057440D01*
X101531094Y-49057852D01*
X101545540Y-49057990D01*
X101564942Y-49057712D01*
X101584070Y-49056879D01*
X101602922Y-49055491D01*
X101621500Y-49053548D01*
X101639803Y-49051049D01*
X101657831Y-49047995D01*
X101675584Y-49044386D01*
X101693063Y-49040221D01*
X101710267Y-49035501D01*
X101727196Y-49030226D01*
X101743850Y-49024396D01*
X101760230Y-49018010D01*
X101776335Y-49011069D01*
X101792165Y-49003573D01*
X101807720Y-48995522D01*
X101823000Y-48986915D01*
X101837946Y-48977804D01*
X101852435Y-48968238D01*
X101866469Y-48958218D01*
X101880046Y-48947745D01*
X101893168Y-48936817D01*
X101905833Y-48925435D01*
X101918042Y-48913598D01*
X101929795Y-48901308D01*
X101941093Y-48888563D01*
X101951934Y-48875365D01*
X101962319Y-48861712D01*
X101972248Y-48847605D01*
X101981721Y-48833044D01*
X101990738Y-48818029D01*
X101999299Y-48802559D01*
X102007404Y-48786636D01*
X102015034Y-48770306D01*
X102022173Y-48753617D01*
X102028819Y-48736570D01*
X102034972Y-48719164D01*
X102040634Y-48701399D01*
X102045803Y-48683275D01*
X102050480Y-48664793D01*
X102054665Y-48645952D01*
X102058357Y-48626752D01*
X102060018Y-48617018D01*
X102061557Y-48607194D01*
X102062972Y-48597280D01*
X102064264Y-48587277D01*
X102065434Y-48577183D01*
X102066480Y-48567001D01*
X102067403Y-48556728D01*
X102068203Y-48546366D01*
X102068880Y-48535914D01*
X102069434Y-48525372D01*
X102069864Y-48514741D01*
X102070172Y-48504020D01*
X102070357Y-48493210D01*
X102070418Y-48482309D01*
X102070275Y-48466184D01*
X102069846Y-48449924D01*
X102069130Y-48433531D01*
X102068128Y-48417005D01*
X102066840Y-48400345D01*
X102065266Y-48383551D01*
X102063406Y-48366624D01*
X102061259Y-48349563D01*
X102058826Y-48332369D01*
X102056107Y-48315041D01*
X102053102Y-48297580D01*
X102049810Y-48279985D01*
X102046232Y-48262256D01*
X102042368Y-48244394D01*
X102038218Y-48226398D01*
X102033782Y-48208269D01*
X101773419Y-48208269D01*
X101779825Y-48220953D01*
X101785852Y-48233542D01*
X101791502Y-48246037D01*
X101796775Y-48258438D01*
X101801669Y-48270744D01*
X101806186Y-48282956D01*
X101810324Y-48295073D01*
X101814085Y-48307096D01*
X101817468Y-48319024D01*
X101820474Y-48330858D01*
X101822267Y-48338695D01*
X101824712Y-48350521D01*
X101826916Y-48362554D01*
X101828879Y-48374793D01*
X101830602Y-48387238D01*
X101832085Y-48399889D01*
X101833327Y-48412746D01*
X101834329Y-48425809D01*
X101835090Y-48439078D01*
X101835611Y-48452554D01*
X101835892Y-48466235D01*
X101835945Y-48475471D01*
X101835652Y-48490572D01*
X101834773Y-48505283D01*
X101833309Y-48519606D01*
X101831259Y-48533539D01*
X101828623Y-48547083D01*
X101825401Y-48560238D01*
X101821593Y-48573004D01*
X101817199Y-48585380D01*
X101812220Y-48597367D01*
X101806655Y-48608965D01*
X101800504Y-48620173D01*
X101793767Y-48630992D01*
X101786445Y-48641422D01*
X101778537Y-48651463D01*
X101770042Y-48661114D01*
X101760963Y-48670376D01*
X101751401Y-48679131D01*
X101741400Y-48687321D01*
X101730961Y-48694946D01*
X101720082Y-48702006D01*
X101708765Y-48708501D01*
X101697009Y-48714432D01*
X101684814Y-48719797D01*
X101672180Y-48724598D01*
X101659108Y-48728834D01*
X101645596Y-48732506D01*
X101631645Y-48735612D01*
X101617256Y-48738154D01*
X101602428Y-48740131D01*
X101587161Y-48741543D01*
X101571455Y-48742390D01*
X101555310Y-48742672D01*
X101539890Y-48742435D01*
X101524894Y-48741722D01*
X101510322Y-48740534D01*
X101496173Y-48738871D01*
X101482447Y-48736733D01*
X101469146Y-48734120D01*
X101456268Y-48731032D01*
X101443813Y-48727468D01*
X101431782Y-48723430D01*
X101420175Y-48718916D01*
X101408991Y-48713927D01*
X101398231Y-48708463D01*
X101387895Y-48702524D01*
X101377982Y-48696110D01*
X101368493Y-48689220D01*
X101359427Y-48681856D01*
X101350880Y-48674065D01*
X101342884Y-48665896D01*
X101335439Y-48657349D01*
X101328546Y-48648425D01*
X101322204Y-48639123D01*
X101316414Y-48629443D01*
X101311175Y-48619385D01*
X101306488Y-48608949D01*
X101302352Y-48598136D01*
X101298767Y-48586945D01*
X101295734Y-48575375D01*
X101293253Y-48563428D01*
X101291323Y-48551104D01*
X101289944Y-48538401D01*
X101289117Y-48525321D01*
X101288841Y-48511863D01*
X101288841Y-48499582D01*
X101288841Y-48488141D01*
X101288841Y-48477539D01*
X101288841Y-48465468D01*
X101288841Y-48454708D01*
X101288841Y-48443528D01*
X101288841Y-48437124D01*
X101445157Y-48437124D01*
X101445157Y-48625924D01*
X101663998Y-48625924D01*
X101663998Y-48140369D01*
X101135701Y-48140369D01*
G37*
G36*
X101070000Y-47297732D02*
G01*
X101546517Y-47645289D01*
X101556999Y-47652895D01*
X101567288Y-47660236D01*
X101577384Y-47667310D01*
X101587287Y-47674117D01*
X101596996Y-47680659D01*
X101606512Y-47686934D01*
X101615835Y-47692944D01*
X101624965Y-47698687D01*
X101633902Y-47704164D01*
X101642645Y-47709374D01*
X101648367Y-47712700D01*
X101648367Y-47715387D01*
X101634517Y-47714645D01*
X101620354Y-47713976D01*
X101605878Y-47713380D01*
X101596053Y-47713023D01*
X101586088Y-47712698D01*
X101575985Y-47712407D01*
X101565742Y-47712147D01*
X101555359Y-47711920D01*
X101544838Y-47711725D01*
X101534177Y-47711563D01*
X101523377Y-47711433D01*
X101512438Y-47711336D01*
X101501359Y-47711271D01*
X101490141Y-47711239D01*
X101484480Y-47711235D01*
X101070000Y-47711235D01*
X101070000Y-47986008D01*
X102054787Y-47986008D01*
X102054787Y-47705617D01*
X101601960Y-47372470D01*
X101593399Y-47366613D01*
X101585018Y-47360774D01*
X101580467Y-47357571D01*
X101571956Y-47351387D01*
X101563214Y-47345261D01*
X101555066Y-47339741D01*
X101546224Y-47333673D01*
X101537497Y-47327893D01*
X101529665Y-47322889D01*
X101520734Y-47317393D01*
X101511990Y-47312680D01*
X101507683Y-47310676D01*
X101507683Y-47307990D01*
X101518220Y-47309186D01*
X101528196Y-47309997D01*
X101539546Y-47310678D01*
X101552269Y-47311230D01*
X101562714Y-47311558D01*
X101573931Y-47311813D01*
X101585921Y-47311996D01*
X101598683Y-47312105D01*
X101612219Y-47312142D01*
X102054787Y-47312142D01*
X102054787Y-47037369D01*
X101070000Y-47037369D01*
X101070000Y-47297732D01*
G37*
G36*
X101604377Y-45921687D02*
G01*
X101632967Y-45923213D01*
X101660619Y-45925756D01*
X101687335Y-45929315D01*
X101713113Y-45933892D01*
X101737953Y-45939486D01*
X101761856Y-45946096D01*
X101784822Y-45953724D01*
X101806850Y-45962369D01*
X101827941Y-45972031D01*
X101848095Y-45982710D01*
X101867311Y-45994406D01*
X101885590Y-46007119D01*
X101902932Y-46020849D01*
X101919336Y-46035596D01*
X101934802Y-46051360D01*
X101949332Y-46068141D01*
X101962924Y-46085940D01*
X101975578Y-46104755D01*
X101987295Y-46124587D01*
X101998075Y-46145437D01*
X102007918Y-46167303D01*
X102016823Y-46190187D01*
X102024791Y-46214087D01*
X102031821Y-46239005D01*
X102037914Y-46264939D01*
X102043069Y-46291891D01*
X102047288Y-46319859D01*
X102050568Y-46348845D01*
X102052912Y-46378848D01*
X102054318Y-46409868D01*
X102054787Y-46441905D01*
X102054787Y-46849790D01*
X101070000Y-46849790D01*
X101070000Y-46553035D01*
X101304473Y-46553035D01*
X101820314Y-46553035D01*
X101820314Y-46476831D01*
X101820191Y-46467717D01*
X101819550Y-46454328D01*
X101818360Y-46441279D01*
X101816619Y-46428568D01*
X101814330Y-46416197D01*
X101811490Y-46404165D01*
X101808101Y-46392472D01*
X101804163Y-46381118D01*
X101799675Y-46370104D01*
X101794637Y-46359429D01*
X101789050Y-46349092D01*
X101785041Y-46342413D01*
X101778649Y-46332762D01*
X101771801Y-46323554D01*
X101764498Y-46314787D01*
X101756740Y-46306463D01*
X101748527Y-46298582D01*
X101739858Y-46291142D01*
X101730735Y-46284144D01*
X101721157Y-46277589D01*
X101711123Y-46271476D01*
X101700635Y-46265806D01*
X101693434Y-46262256D01*
X101682422Y-46257362D01*
X101671157Y-46252983D01*
X101659639Y-46249119D01*
X101647868Y-46245770D01*
X101635843Y-46242936D01*
X101623564Y-46240618D01*
X101611033Y-46238815D01*
X101598248Y-46237527D01*
X101585210Y-46236754D01*
X101571919Y-46236496D01*
X101556788Y-46236744D01*
X101542048Y-46237489D01*
X101527700Y-46238729D01*
X101513743Y-46240465D01*
X101500177Y-46242698D01*
X101487002Y-46245426D01*
X101474219Y-46248651D01*
X101461826Y-46252372D01*
X101449825Y-46256589D01*
X101438215Y-46261302D01*
X101426996Y-46266512D01*
X101416168Y-46272217D01*
X101405731Y-46278418D01*
X101395686Y-46285116D01*
X101386032Y-46292310D01*
X101376769Y-46300000D01*
X101368014Y-46308105D01*
X101359824Y-46316547D01*
X101352199Y-46325324D01*
X101345139Y-46334438D01*
X101338644Y-46343887D01*
X101332713Y-46353672D01*
X101327348Y-46363793D01*
X101322547Y-46374249D01*
X101318311Y-46385042D01*
X101314639Y-46396170D01*
X101311533Y-46407634D01*
X101308991Y-46419434D01*
X101307014Y-46431570D01*
X101305602Y-46444042D01*
X101304755Y-46456849D01*
X101304473Y-46469993D01*
X101304473Y-46553035D01*
X101070000Y-46553035D01*
X101070000Y-46432868D01*
X101070244Y-46413956D01*
X101070976Y-46395323D01*
X101072198Y-46376968D01*
X101073907Y-46358893D01*
X101076106Y-46341095D01*
X101078792Y-46323577D01*
X101081967Y-46306336D01*
X101085631Y-46289375D01*
X101089783Y-46272692D01*
X101094424Y-46256288D01*
X101099553Y-46240162D01*
X101105170Y-46224315D01*
X101111277Y-46208746D01*
X101117871Y-46193456D01*
X101124954Y-46178445D01*
X101132526Y-46163712D01*
X101140547Y-46149329D01*
X101148978Y-46135368D01*
X101157819Y-46121829D01*
X101167071Y-46108712D01*
X101176733Y-46096016D01*
X101186805Y-46083742D01*
X101197287Y-46071889D01*
X101208180Y-46060458D01*
X101219483Y-46049449D01*
X101231196Y-46038862D01*
X101243319Y-46028696D01*
X101255853Y-46018952D01*
X101268797Y-46009630D01*
X101282151Y-46000730D01*
X101295916Y-45992251D01*
X101310090Y-45984193D01*
X101324605Y-45976563D01*
X101339392Y-45969424D01*
X101354449Y-45962778D01*
X101369777Y-45956625D01*
X101385376Y-45950963D01*
X101401246Y-45945794D01*
X101417387Y-45941117D01*
X101433799Y-45936933D01*
X101450482Y-45933240D01*
X101467436Y-45930040D01*
X101484661Y-45927333D01*
X101502157Y-45925117D01*
X101519923Y-45923394D01*
X101537961Y-45922163D01*
X101556270Y-45921425D01*
X101574849Y-45921179D01*
X101604377Y-45921687D01*
G37*
X98893809Y-57990095D02*
X98893809Y-58637714D01*
X98893809Y-58637714D02*
X98855714Y-58713904D01*
X98855714Y-58713904D02*
X98817619Y-58752000D01*
X98817619Y-58752000D02*
X98741428Y-58790095D01*
X98741428Y-58790095D02*
X98589047Y-58790095D01*
X98589047Y-58790095D02*
X98512857Y-58752000D01*
X98512857Y-58752000D02*
X98474762Y-58713904D01*
X98474762Y-58713904D02*
X98436666Y-58637714D01*
X98436666Y-58637714D02*
X98436666Y-57990095D01*
X98093810Y-58561523D02*
X97712857Y-58561523D01*
X98170000Y-58790095D02*
X97903333Y-57990095D01*
X97903333Y-57990095D02*
X97636667Y-58790095D01*
X96912857Y-58790095D02*
X97179524Y-58409142D01*
X97370000Y-58790095D02*
X97370000Y-57990095D01*
X97370000Y-57990095D02*
X97065238Y-57990095D01*
X97065238Y-57990095D02*
X96989048Y-58028190D01*
X96989048Y-58028190D02*
X96950953Y-58066285D01*
X96950953Y-58066285D02*
X96912857Y-58142476D01*
X96912857Y-58142476D02*
X96912857Y-58256761D01*
X96912857Y-58256761D02*
X96950953Y-58332952D01*
X96950953Y-58332952D02*
X96989048Y-58371047D01*
X96989048Y-58371047D02*
X97065238Y-58409142D01*
X97065238Y-58409142D02*
X97370000Y-58409142D01*
X96684286Y-57990095D02*
X96227143Y-57990095D01*
X96455715Y-58790095D02*
X96455715Y-57990095D01*
X96150953Y-58866285D02*
X95541429Y-58866285D01*
X94893809Y-58713904D02*
X94931905Y-58752000D01*
X94931905Y-58752000D02*
X95046190Y-58790095D01*
X95046190Y-58790095D02*
X95122381Y-58790095D01*
X95122381Y-58790095D02*
X95236667Y-58752000D01*
X95236667Y-58752000D02*
X95312857Y-58675809D01*
X95312857Y-58675809D02*
X95350952Y-58599619D01*
X95350952Y-58599619D02*
X95389048Y-58447238D01*
X95389048Y-58447238D02*
X95389048Y-58332952D01*
X95389048Y-58332952D02*
X95350952Y-58180571D01*
X95350952Y-58180571D02*
X95312857Y-58104380D01*
X95312857Y-58104380D02*
X95236667Y-58028190D01*
X95236667Y-58028190D02*
X95122381Y-57990095D01*
X95122381Y-57990095D02*
X95046190Y-57990095D01*
X95046190Y-57990095D02*
X94931905Y-58028190D01*
X94931905Y-58028190D02*
X94893809Y-58066285D01*
X94665238Y-57990095D02*
X94208095Y-57990095D01*
X94436667Y-58790095D02*
X94436667Y-57990095D01*
X93979524Y-58752000D02*
X93865238Y-58790095D01*
X93865238Y-58790095D02*
X93674762Y-58790095D01*
X93674762Y-58790095D02*
X93598571Y-58752000D01*
X93598571Y-58752000D02*
X93560476Y-58713904D01*
X93560476Y-58713904D02*
X93522381Y-58637714D01*
X93522381Y-58637714D02*
X93522381Y-58561523D01*
X93522381Y-58561523D02*
X93560476Y-58485333D01*
X93560476Y-58485333D02*
X93598571Y-58447238D01*
X93598571Y-58447238D02*
X93674762Y-58409142D01*
X93674762Y-58409142D02*
X93827143Y-58371047D01*
X93827143Y-58371047D02*
X93903333Y-58332952D01*
X93903333Y-58332952D02*
X93941428Y-58294857D01*
X93941428Y-58294857D02*
X93979524Y-58218666D01*
X93979524Y-58218666D02*
X93979524Y-58142476D01*
X93979524Y-58142476D02*
X93941428Y-58066285D01*
X93941428Y-58066285D02*
X93903333Y-58028190D01*
X93903333Y-58028190D02*
X93827143Y-57990095D01*
X93827143Y-57990095D02*
X93636666Y-57990095D01*
X93636666Y-57990095D02*
X93522381Y-58028190D01*
X92608095Y-57952000D02*
X93293809Y-58980571D01*
X92341428Y-58790095D02*
X92341428Y-57990095D01*
X92341428Y-57990095D02*
X92036666Y-57990095D01*
X92036666Y-57990095D02*
X91960476Y-58028190D01*
X91960476Y-58028190D02*
X91922381Y-58066285D01*
X91922381Y-58066285D02*
X91884285Y-58142476D01*
X91884285Y-58142476D02*
X91884285Y-58256761D01*
X91884285Y-58256761D02*
X91922381Y-58332952D01*
X91922381Y-58332952D02*
X91960476Y-58371047D01*
X91960476Y-58371047D02*
X92036666Y-58409142D01*
X92036666Y-58409142D02*
X92341428Y-58409142D01*
X91274762Y-58371047D02*
X91160476Y-58409142D01*
X91160476Y-58409142D02*
X91122381Y-58447238D01*
X91122381Y-58447238D02*
X91084285Y-58523428D01*
X91084285Y-58523428D02*
X91084285Y-58637714D01*
X91084285Y-58637714D02*
X91122381Y-58713904D01*
X91122381Y-58713904D02*
X91160476Y-58752000D01*
X91160476Y-58752000D02*
X91236666Y-58790095D01*
X91236666Y-58790095D02*
X91541428Y-58790095D01*
X91541428Y-58790095D02*
X91541428Y-57990095D01*
X91541428Y-57990095D02*
X91274762Y-57990095D01*
X91274762Y-57990095D02*
X91198571Y-58028190D01*
X91198571Y-58028190D02*
X91160476Y-58066285D01*
X91160476Y-58066285D02*
X91122381Y-58142476D01*
X91122381Y-58142476D02*
X91122381Y-58218666D01*
X91122381Y-58218666D02*
X91160476Y-58294857D01*
X91160476Y-58294857D02*
X91198571Y-58332952D01*
X91198571Y-58332952D02*
X91274762Y-58371047D01*
X91274762Y-58371047D02*
X91541428Y-58371047D01*
X90398571Y-58256761D02*
X90398571Y-58790095D01*
X90589047Y-57952000D02*
X90779524Y-58523428D01*
X90779524Y-58523428D02*
X90284285Y-58523428D01*
X96189048Y-86692000D02*
X96074762Y-86730095D01*
X96074762Y-86730095D02*
X95884286Y-86730095D01*
X95884286Y-86730095D02*
X95808095Y-86692000D01*
X95808095Y-86692000D02*
X95770000Y-86653904D01*
X95770000Y-86653904D02*
X95731905Y-86577714D01*
X95731905Y-86577714D02*
X95731905Y-86501523D01*
X95731905Y-86501523D02*
X95770000Y-86425333D01*
X95770000Y-86425333D02*
X95808095Y-86387238D01*
X95808095Y-86387238D02*
X95884286Y-86349142D01*
X95884286Y-86349142D02*
X96036667Y-86311047D01*
X96036667Y-86311047D02*
X96112857Y-86272952D01*
X96112857Y-86272952D02*
X96150952Y-86234857D01*
X96150952Y-86234857D02*
X96189048Y-86158666D01*
X96189048Y-86158666D02*
X96189048Y-86082476D01*
X96189048Y-86082476D02*
X96150952Y-86006285D01*
X96150952Y-86006285D02*
X96112857Y-85968190D01*
X96112857Y-85968190D02*
X96036667Y-85930095D01*
X96036667Y-85930095D02*
X95846190Y-85930095D01*
X95846190Y-85930095D02*
X95731905Y-85968190D01*
X94931904Y-86653904D02*
X94970000Y-86692000D01*
X94970000Y-86692000D02*
X95084285Y-86730095D01*
X95084285Y-86730095D02*
X95160476Y-86730095D01*
X95160476Y-86730095D02*
X95274762Y-86692000D01*
X95274762Y-86692000D02*
X95350952Y-86615809D01*
X95350952Y-86615809D02*
X95389047Y-86539619D01*
X95389047Y-86539619D02*
X95427143Y-86387238D01*
X95427143Y-86387238D02*
X95427143Y-86272952D01*
X95427143Y-86272952D02*
X95389047Y-86120571D01*
X95389047Y-86120571D02*
X95350952Y-86044380D01*
X95350952Y-86044380D02*
X95274762Y-85968190D01*
X95274762Y-85968190D02*
X95160476Y-85930095D01*
X95160476Y-85930095D02*
X95084285Y-85930095D01*
X95084285Y-85930095D02*
X94970000Y-85968190D01*
X94970000Y-85968190D02*
X94931904Y-86006285D01*
X94208095Y-86730095D02*
X94589047Y-86730095D01*
X94589047Y-86730095D02*
X94589047Y-85930095D01*
X93789047Y-85930095D02*
X93712857Y-85930095D01*
X93712857Y-85930095D02*
X93636666Y-85968190D01*
X93636666Y-85968190D02*
X93598571Y-86006285D01*
X93598571Y-86006285D02*
X93560476Y-86082476D01*
X93560476Y-86082476D02*
X93522381Y-86234857D01*
X93522381Y-86234857D02*
X93522381Y-86425333D01*
X93522381Y-86425333D02*
X93560476Y-86577714D01*
X93560476Y-86577714D02*
X93598571Y-86653904D01*
X93598571Y-86653904D02*
X93636666Y-86692000D01*
X93636666Y-86692000D02*
X93712857Y-86730095D01*
X93712857Y-86730095D02*
X93789047Y-86730095D01*
X93789047Y-86730095D02*
X93865238Y-86692000D01*
X93865238Y-86692000D02*
X93903333Y-86653904D01*
X93903333Y-86653904D02*
X93941428Y-86577714D01*
X93941428Y-86577714D02*
X93979524Y-86425333D01*
X93979524Y-86425333D02*
X93979524Y-86234857D01*
X93979524Y-86234857D02*
X93941428Y-86082476D01*
X93941428Y-86082476D02*
X93903333Y-86006285D01*
X93903333Y-86006285D02*
X93865238Y-85968190D01*
X93865238Y-85968190D02*
X93789047Y-85930095D01*
X92608095Y-85892000D02*
X93293809Y-86920571D01*
X92341428Y-86730095D02*
X92341428Y-85930095D01*
X92341428Y-85930095D02*
X92036666Y-85930095D01*
X92036666Y-85930095D02*
X91960476Y-85968190D01*
X91960476Y-85968190D02*
X91922381Y-86006285D01*
X91922381Y-86006285D02*
X91884285Y-86082476D01*
X91884285Y-86082476D02*
X91884285Y-86196761D01*
X91884285Y-86196761D02*
X91922381Y-86272952D01*
X91922381Y-86272952D02*
X91960476Y-86311047D01*
X91960476Y-86311047D02*
X92036666Y-86349142D01*
X92036666Y-86349142D02*
X92341428Y-86349142D01*
X91274762Y-86311047D02*
X91160476Y-86349142D01*
X91160476Y-86349142D02*
X91122381Y-86387238D01*
X91122381Y-86387238D02*
X91084285Y-86463428D01*
X91084285Y-86463428D02*
X91084285Y-86577714D01*
X91084285Y-86577714D02*
X91122381Y-86653904D01*
X91122381Y-86653904D02*
X91160476Y-86692000D01*
X91160476Y-86692000D02*
X91236666Y-86730095D01*
X91236666Y-86730095D02*
X91541428Y-86730095D01*
X91541428Y-86730095D02*
X91541428Y-85930095D01*
X91541428Y-85930095D02*
X91274762Y-85930095D01*
X91274762Y-85930095D02*
X91198571Y-85968190D01*
X91198571Y-85968190D02*
X91160476Y-86006285D01*
X91160476Y-86006285D02*
X91122381Y-86082476D01*
X91122381Y-86082476D02*
X91122381Y-86158666D01*
X91122381Y-86158666D02*
X91160476Y-86234857D01*
X91160476Y-86234857D02*
X91198571Y-86272952D01*
X91198571Y-86272952D02*
X91274762Y-86311047D01*
X91274762Y-86311047D02*
X91541428Y-86311047D01*
X90398571Y-85930095D02*
X90550952Y-85930095D01*
X90550952Y-85930095D02*
X90627143Y-85968190D01*
X90627143Y-85968190D02*
X90665238Y-86006285D01*
X90665238Y-86006285D02*
X90741428Y-86120571D01*
X90741428Y-86120571D02*
X90779524Y-86272952D01*
X90779524Y-86272952D02*
X90779524Y-86577714D01*
X90779524Y-86577714D02*
X90741428Y-86653904D01*
X90741428Y-86653904D02*
X90703333Y-86692000D01*
X90703333Y-86692000D02*
X90627143Y-86730095D01*
X90627143Y-86730095D02*
X90474762Y-86730095D01*
X90474762Y-86730095D02*
X90398571Y-86692000D01*
X90398571Y-86692000D02*
X90360476Y-86653904D01*
X90360476Y-86653904D02*
X90322381Y-86577714D01*
X90322381Y-86577714D02*
X90322381Y-86387238D01*
X90322381Y-86387238D02*
X90360476Y-86311047D01*
X90360476Y-86311047D02*
X90398571Y-86272952D01*
X90398571Y-86272952D02*
X90474762Y-86234857D01*
X90474762Y-86234857D02*
X90627143Y-86234857D01*
X90627143Y-86234857D02*
X90703333Y-86272952D01*
X90703333Y-86272952D02*
X90741428Y-86311047D01*
X90741428Y-86311047D02*
X90779524Y-86387238D01*
X94931904Y-66410095D02*
X95198571Y-66029142D01*
X95389047Y-66410095D02*
X95389047Y-65610095D01*
X95389047Y-65610095D02*
X95084285Y-65610095D01*
X95084285Y-65610095D02*
X95008095Y-65648190D01*
X95008095Y-65648190D02*
X94970000Y-65686285D01*
X94970000Y-65686285D02*
X94931904Y-65762476D01*
X94931904Y-65762476D02*
X94931904Y-65876761D01*
X94931904Y-65876761D02*
X94970000Y-65952952D01*
X94970000Y-65952952D02*
X95008095Y-65991047D01*
X95008095Y-65991047D02*
X95084285Y-66029142D01*
X95084285Y-66029142D02*
X95389047Y-66029142D01*
X94665238Y-65610095D02*
X94131904Y-66410095D01*
X94131904Y-65610095D02*
X94665238Y-66410095D01*
X93255714Y-65572000D02*
X93941428Y-66600571D01*
X92989047Y-66410095D02*
X92989047Y-65610095D01*
X92989047Y-65610095D02*
X92684285Y-65610095D01*
X92684285Y-65610095D02*
X92608095Y-65648190D01*
X92608095Y-65648190D02*
X92570000Y-65686285D01*
X92570000Y-65686285D02*
X92531904Y-65762476D01*
X92531904Y-65762476D02*
X92531904Y-65876761D01*
X92531904Y-65876761D02*
X92570000Y-65952952D01*
X92570000Y-65952952D02*
X92608095Y-65991047D01*
X92608095Y-65991047D02*
X92684285Y-66029142D01*
X92684285Y-66029142D02*
X92989047Y-66029142D01*
X92227143Y-66181523D02*
X91846190Y-66181523D01*
X92303333Y-66410095D02*
X92036666Y-65610095D01*
X92036666Y-65610095D02*
X91770000Y-66410095D01*
X91084286Y-66410095D02*
X91541429Y-66410095D01*
X91312857Y-66410095D02*
X91312857Y-65610095D01*
X91312857Y-65610095D02*
X91389048Y-65724380D01*
X91389048Y-65724380D02*
X91465238Y-65800571D01*
X91465238Y-65800571D02*
X91541429Y-65838666D01*
X90589047Y-65610095D02*
X90512857Y-65610095D01*
X90512857Y-65610095D02*
X90436666Y-65648190D01*
X90436666Y-65648190D02*
X90398571Y-65686285D01*
X90398571Y-65686285D02*
X90360476Y-65762476D01*
X90360476Y-65762476D02*
X90322381Y-65914857D01*
X90322381Y-65914857D02*
X90322381Y-66105333D01*
X90322381Y-66105333D02*
X90360476Y-66257714D01*
X90360476Y-66257714D02*
X90398571Y-66333904D01*
X90398571Y-66333904D02*
X90436666Y-66372000D01*
X90436666Y-66372000D02*
X90512857Y-66410095D01*
X90512857Y-66410095D02*
X90589047Y-66410095D01*
X90589047Y-66410095D02*
X90665238Y-66372000D01*
X90665238Y-66372000D02*
X90703333Y-66333904D01*
X90703333Y-66333904D02*
X90741428Y-66257714D01*
X90741428Y-66257714D02*
X90779524Y-66105333D01*
X90779524Y-66105333D02*
X90779524Y-65914857D01*
X90779524Y-65914857D02*
X90741428Y-65762476D01*
X90741428Y-65762476D02*
X90703333Y-65686285D01*
X90703333Y-65686285D02*
X90665238Y-65648190D01*
X90665238Y-65648190D02*
X90589047Y-65610095D01*
X104546476Y-91048190D02*
X104622666Y-91010095D01*
X104622666Y-91010095D02*
X104736952Y-91010095D01*
X104736952Y-91010095D02*
X104851238Y-91048190D01*
X104851238Y-91048190D02*
X104927428Y-91124380D01*
X104927428Y-91124380D02*
X104965523Y-91200571D01*
X104965523Y-91200571D02*
X105003619Y-91352952D01*
X105003619Y-91352952D02*
X105003619Y-91467238D01*
X105003619Y-91467238D02*
X104965523Y-91619619D01*
X104965523Y-91619619D02*
X104927428Y-91695809D01*
X104927428Y-91695809D02*
X104851238Y-91772000D01*
X104851238Y-91772000D02*
X104736952Y-91810095D01*
X104736952Y-91810095D02*
X104660761Y-91810095D01*
X104660761Y-91810095D02*
X104546476Y-91772000D01*
X104546476Y-91772000D02*
X104508380Y-91733904D01*
X104508380Y-91733904D02*
X104508380Y-91467238D01*
X104508380Y-91467238D02*
X104660761Y-91467238D01*
X104165523Y-91810095D02*
X104165523Y-91010095D01*
X104165523Y-91010095D02*
X103708380Y-91810095D01*
X103708380Y-91810095D02*
X103708380Y-91010095D01*
X103327428Y-91810095D02*
X103327428Y-91010095D01*
X103327428Y-91010095D02*
X103136952Y-91010095D01*
X103136952Y-91010095D02*
X103022666Y-91048190D01*
X103022666Y-91048190D02*
X102946476Y-91124380D01*
X102946476Y-91124380D02*
X102908381Y-91200571D01*
X102908381Y-91200571D02*
X102870285Y-91352952D01*
X102870285Y-91352952D02*
X102870285Y-91467238D01*
X102870285Y-91467238D02*
X102908381Y-91619619D01*
X102908381Y-91619619D02*
X102946476Y-91695809D01*
X102946476Y-91695809D02*
X103022666Y-91772000D01*
X103022666Y-91772000D02*
X103136952Y-91810095D01*
X103136952Y-91810095D02*
X103327428Y-91810095D01*
X95884284Y-71490095D02*
X95884284Y-70690095D01*
X95884284Y-70690095D02*
X95579522Y-70690095D01*
X95579522Y-70690095D02*
X95503332Y-70728190D01*
X95503332Y-70728190D02*
X95465237Y-70766285D01*
X95465237Y-70766285D02*
X95427141Y-70842476D01*
X95427141Y-70842476D02*
X95427141Y-70956761D01*
X95427141Y-70956761D02*
X95465237Y-71032952D01*
X95465237Y-71032952D02*
X95503332Y-71071047D01*
X95503332Y-71071047D02*
X95579522Y-71109142D01*
X95579522Y-71109142D02*
X95884284Y-71109142D01*
X94931903Y-70690095D02*
X94779522Y-70690095D01*
X94779522Y-70690095D02*
X94703332Y-70728190D01*
X94703332Y-70728190D02*
X94627141Y-70804380D01*
X94627141Y-70804380D02*
X94589046Y-70956761D01*
X94589046Y-70956761D02*
X94589046Y-71223428D01*
X94589046Y-71223428D02*
X94627141Y-71375809D01*
X94627141Y-71375809D02*
X94703332Y-71452000D01*
X94703332Y-71452000D02*
X94779522Y-71490095D01*
X94779522Y-71490095D02*
X94931903Y-71490095D01*
X94931903Y-71490095D02*
X95008094Y-71452000D01*
X95008094Y-71452000D02*
X95084284Y-71375809D01*
X95084284Y-71375809D02*
X95122380Y-71223428D01*
X95122380Y-71223428D02*
X95122380Y-70956761D01*
X95122380Y-70956761D02*
X95084284Y-70804380D01*
X95084284Y-70804380D02*
X95008094Y-70728190D01*
X95008094Y-70728190D02*
X94931903Y-70690095D01*
X93789046Y-71413904D02*
X93827142Y-71452000D01*
X93827142Y-71452000D02*
X93941427Y-71490095D01*
X93941427Y-71490095D02*
X94017618Y-71490095D01*
X94017618Y-71490095D02*
X94131904Y-71452000D01*
X94131904Y-71452000D02*
X94208094Y-71375809D01*
X94208094Y-71375809D02*
X94246189Y-71299619D01*
X94246189Y-71299619D02*
X94284285Y-71147238D01*
X94284285Y-71147238D02*
X94284285Y-71032952D01*
X94284285Y-71032952D02*
X94246189Y-70880571D01*
X94246189Y-70880571D02*
X94208094Y-70804380D01*
X94208094Y-70804380D02*
X94131904Y-70728190D01*
X94131904Y-70728190D02*
X94017618Y-70690095D01*
X94017618Y-70690095D02*
X93941427Y-70690095D01*
X93941427Y-70690095D02*
X93827142Y-70728190D01*
X93827142Y-70728190D02*
X93789046Y-70766285D01*
X93446189Y-71490095D02*
X93446189Y-70690095D01*
X92493809Y-70652000D02*
X93179523Y-71680571D01*
X92227142Y-71490095D02*
X92227142Y-70690095D01*
X92227142Y-70690095D02*
X91922380Y-70690095D01*
X91922380Y-70690095D02*
X91846190Y-70728190D01*
X91846190Y-70728190D02*
X91808095Y-70766285D01*
X91808095Y-70766285D02*
X91769999Y-70842476D01*
X91769999Y-70842476D02*
X91769999Y-70956761D01*
X91769999Y-70956761D02*
X91808095Y-71032952D01*
X91808095Y-71032952D02*
X91846190Y-71071047D01*
X91846190Y-71071047D02*
X91922380Y-71109142D01*
X91922380Y-71109142D02*
X92227142Y-71109142D01*
X91465238Y-71261523D02*
X91084285Y-71261523D01*
X91541428Y-71490095D02*
X91274761Y-70690095D01*
X91274761Y-70690095D02*
X91008095Y-71490095D01*
X90398571Y-70690095D02*
X90550952Y-70690095D01*
X90550952Y-70690095D02*
X90627143Y-70728190D01*
X90627143Y-70728190D02*
X90665238Y-70766285D01*
X90665238Y-70766285D02*
X90741428Y-70880571D01*
X90741428Y-70880571D02*
X90779524Y-71032952D01*
X90779524Y-71032952D02*
X90779524Y-71337714D01*
X90779524Y-71337714D02*
X90741428Y-71413904D01*
X90741428Y-71413904D02*
X90703333Y-71452000D01*
X90703333Y-71452000D02*
X90627143Y-71490095D01*
X90627143Y-71490095D02*
X90474762Y-71490095D01*
X90474762Y-71490095D02*
X90398571Y-71452000D01*
X90398571Y-71452000D02*
X90360476Y-71413904D01*
X90360476Y-71413904D02*
X90322381Y-71337714D01*
X90322381Y-71337714D02*
X90322381Y-71147238D01*
X90322381Y-71147238D02*
X90360476Y-71071047D01*
X90360476Y-71071047D02*
X90398571Y-71032952D01*
X90398571Y-71032952D02*
X90474762Y-70994857D01*
X90474762Y-70994857D02*
X90627143Y-70994857D01*
X90627143Y-70994857D02*
X90703333Y-71032952D01*
X90703333Y-71032952D02*
X90741428Y-71071047D01*
X90741428Y-71071047D02*
X90779524Y-71147238D01*
X95465238Y-73992000D02*
X95350952Y-74030095D01*
X95350952Y-74030095D02*
X95160476Y-74030095D01*
X95160476Y-74030095D02*
X95084285Y-73992000D01*
X95084285Y-73992000D02*
X95046190Y-73953904D01*
X95046190Y-73953904D02*
X95008095Y-73877714D01*
X95008095Y-73877714D02*
X95008095Y-73801523D01*
X95008095Y-73801523D02*
X95046190Y-73725333D01*
X95046190Y-73725333D02*
X95084285Y-73687238D01*
X95084285Y-73687238D02*
X95160476Y-73649142D01*
X95160476Y-73649142D02*
X95312857Y-73611047D01*
X95312857Y-73611047D02*
X95389047Y-73572952D01*
X95389047Y-73572952D02*
X95427142Y-73534857D01*
X95427142Y-73534857D02*
X95465238Y-73458666D01*
X95465238Y-73458666D02*
X95465238Y-73382476D01*
X95465238Y-73382476D02*
X95427142Y-73306285D01*
X95427142Y-73306285D02*
X95389047Y-73268190D01*
X95389047Y-73268190D02*
X95312857Y-73230095D01*
X95312857Y-73230095D02*
X95122380Y-73230095D01*
X95122380Y-73230095D02*
X95008095Y-73268190D01*
X94208094Y-73953904D02*
X94246190Y-73992000D01*
X94246190Y-73992000D02*
X94360475Y-74030095D01*
X94360475Y-74030095D02*
X94436666Y-74030095D01*
X94436666Y-74030095D02*
X94550952Y-73992000D01*
X94550952Y-73992000D02*
X94627142Y-73915809D01*
X94627142Y-73915809D02*
X94665237Y-73839619D01*
X94665237Y-73839619D02*
X94703333Y-73687238D01*
X94703333Y-73687238D02*
X94703333Y-73572952D01*
X94703333Y-73572952D02*
X94665237Y-73420571D01*
X94665237Y-73420571D02*
X94627142Y-73344380D01*
X94627142Y-73344380D02*
X94550952Y-73268190D01*
X94550952Y-73268190D02*
X94436666Y-73230095D01*
X94436666Y-73230095D02*
X94360475Y-73230095D01*
X94360475Y-73230095D02*
X94246190Y-73268190D01*
X94246190Y-73268190D02*
X94208094Y-73306285D01*
X93865237Y-74030095D02*
X93865237Y-73230095D01*
X93408094Y-74030095D02*
X93750952Y-73572952D01*
X93408094Y-73230095D02*
X93865237Y-73687238D01*
X92493809Y-73192000D02*
X93179523Y-74220571D01*
X92227142Y-74030095D02*
X92227142Y-73230095D01*
X92227142Y-73230095D02*
X91922380Y-73230095D01*
X91922380Y-73230095D02*
X91846190Y-73268190D01*
X91846190Y-73268190D02*
X91808095Y-73306285D01*
X91808095Y-73306285D02*
X91769999Y-73382476D01*
X91769999Y-73382476D02*
X91769999Y-73496761D01*
X91769999Y-73496761D02*
X91808095Y-73572952D01*
X91808095Y-73572952D02*
X91846190Y-73611047D01*
X91846190Y-73611047D02*
X91922380Y-73649142D01*
X91922380Y-73649142D02*
X92227142Y-73649142D01*
X91465238Y-73801523D02*
X91084285Y-73801523D01*
X91541428Y-74030095D02*
X91274761Y-73230095D01*
X91274761Y-73230095D02*
X91008095Y-74030095D01*
X90360476Y-73230095D02*
X90741428Y-73230095D01*
X90741428Y-73230095D02*
X90779524Y-73611047D01*
X90779524Y-73611047D02*
X90741428Y-73572952D01*
X90741428Y-73572952D02*
X90665238Y-73534857D01*
X90665238Y-73534857D02*
X90474762Y-73534857D01*
X90474762Y-73534857D02*
X90398571Y-73572952D01*
X90398571Y-73572952D02*
X90360476Y-73611047D01*
X90360476Y-73611047D02*
X90322381Y-73687238D01*
X90322381Y-73687238D02*
X90322381Y-73877714D01*
X90322381Y-73877714D02*
X90360476Y-73953904D01*
X90360476Y-73953904D02*
X90398571Y-73992000D01*
X90398571Y-73992000D02*
X90474762Y-74030095D01*
X90474762Y-74030095D02*
X90665238Y-74030095D01*
X90665238Y-74030095D02*
X90741428Y-73992000D01*
X90741428Y-73992000D02*
X90779524Y-73953904D01*
X105041714Y-93550095D02*
X104546476Y-93550095D01*
X104546476Y-93550095D02*
X104813142Y-93854857D01*
X104813142Y-93854857D02*
X104698857Y-93854857D01*
X104698857Y-93854857D02*
X104622666Y-93892952D01*
X104622666Y-93892952D02*
X104584571Y-93931047D01*
X104584571Y-93931047D02*
X104546476Y-94007238D01*
X104546476Y-94007238D02*
X104546476Y-94197714D01*
X104546476Y-94197714D02*
X104584571Y-94273904D01*
X104584571Y-94273904D02*
X104622666Y-94312000D01*
X104622666Y-94312000D02*
X104698857Y-94350095D01*
X104698857Y-94350095D02*
X104927428Y-94350095D01*
X104927428Y-94350095D02*
X105003619Y-94312000D01*
X105003619Y-94312000D02*
X105041714Y-94273904D01*
X104317904Y-93550095D02*
X104051237Y-94350095D01*
X104051237Y-94350095D02*
X103784571Y-93550095D01*
X103594095Y-93550095D02*
X103098857Y-93550095D01*
X103098857Y-93550095D02*
X103365523Y-93854857D01*
X103365523Y-93854857D02*
X103251238Y-93854857D01*
X103251238Y-93854857D02*
X103175047Y-93892952D01*
X103175047Y-93892952D02*
X103136952Y-93931047D01*
X103136952Y-93931047D02*
X103098857Y-94007238D01*
X103098857Y-94007238D02*
X103098857Y-94197714D01*
X103098857Y-94197714D02*
X103136952Y-94273904D01*
X103136952Y-94273904D02*
X103175047Y-94312000D01*
X103175047Y-94312000D02*
X103251238Y-94350095D01*
X103251238Y-94350095D02*
X103479809Y-94350095D01*
X103479809Y-94350095D02*
X103556000Y-94312000D01*
X103556000Y-94312000D02*
X103594095Y-94273904D01*
X104965523Y-81650095D02*
X104965523Y-80850095D01*
X104965523Y-80850095D02*
X104775047Y-80850095D01*
X104775047Y-80850095D02*
X104660761Y-80888190D01*
X104660761Y-80888190D02*
X104584571Y-80964380D01*
X104584571Y-80964380D02*
X104546476Y-81040571D01*
X104546476Y-81040571D02*
X104508380Y-81192952D01*
X104508380Y-81192952D02*
X104508380Y-81307238D01*
X104508380Y-81307238D02*
X104546476Y-81459619D01*
X104546476Y-81459619D02*
X104584571Y-81535809D01*
X104584571Y-81535809D02*
X104660761Y-81612000D01*
X104660761Y-81612000D02*
X104775047Y-81650095D01*
X104775047Y-81650095D02*
X104965523Y-81650095D01*
X104013142Y-80850095D02*
X103936952Y-80850095D01*
X103936952Y-80850095D02*
X103860761Y-80888190D01*
X103860761Y-80888190D02*
X103822666Y-80926285D01*
X103822666Y-80926285D02*
X103784571Y-81002476D01*
X103784571Y-81002476D02*
X103746476Y-81154857D01*
X103746476Y-81154857D02*
X103746476Y-81345333D01*
X103746476Y-81345333D02*
X103784571Y-81497714D01*
X103784571Y-81497714D02*
X103822666Y-81573904D01*
X103822666Y-81573904D02*
X103860761Y-81612000D01*
X103860761Y-81612000D02*
X103936952Y-81650095D01*
X103936952Y-81650095D02*
X104013142Y-81650095D01*
X104013142Y-81650095D02*
X104089333Y-81612000D01*
X104089333Y-81612000D02*
X104127428Y-81573904D01*
X104127428Y-81573904D02*
X104165523Y-81497714D01*
X104165523Y-81497714D02*
X104203619Y-81345333D01*
X104203619Y-81345333D02*
X104203619Y-81154857D01*
X104203619Y-81154857D02*
X104165523Y-81002476D01*
X104165523Y-81002476D02*
X104127428Y-80926285D01*
X104127428Y-80926285D02*
X104089333Y-80888190D01*
X104089333Y-80888190D02*
X104013142Y-80850095D01*
X102832190Y-80812000D02*
X103517904Y-81840571D01*
X102565523Y-81650095D02*
X102565523Y-80850095D01*
X102565523Y-80850095D02*
X102260761Y-80850095D01*
X102260761Y-80850095D02*
X102184571Y-80888190D01*
X102184571Y-80888190D02*
X102146476Y-80926285D01*
X102146476Y-80926285D02*
X102108380Y-81002476D01*
X102108380Y-81002476D02*
X102108380Y-81116761D01*
X102108380Y-81116761D02*
X102146476Y-81192952D01*
X102146476Y-81192952D02*
X102184571Y-81231047D01*
X102184571Y-81231047D02*
X102260761Y-81269142D01*
X102260761Y-81269142D02*
X102565523Y-81269142D01*
X101765523Y-81231047D02*
X101498857Y-81231047D01*
X101384571Y-81650095D02*
X101765523Y-81650095D01*
X101765523Y-81650095D02*
X101765523Y-80850095D01*
X101765523Y-80850095D02*
X101384571Y-80850095D01*
X101117904Y-80850095D02*
X100622666Y-80850095D01*
X100622666Y-80850095D02*
X100889332Y-81154857D01*
X100889332Y-81154857D02*
X100775047Y-81154857D01*
X100775047Y-81154857D02*
X100698856Y-81192952D01*
X100698856Y-81192952D02*
X100660761Y-81231047D01*
X100660761Y-81231047D02*
X100622666Y-81307238D01*
X100622666Y-81307238D02*
X100622666Y-81497714D01*
X100622666Y-81497714D02*
X100660761Y-81573904D01*
X100660761Y-81573904D02*
X100698856Y-81612000D01*
X100698856Y-81612000D02*
X100775047Y-81650095D01*
X100775047Y-81650095D02*
X101003618Y-81650095D01*
X101003618Y-81650095D02*
X101079809Y-81612000D01*
X101079809Y-81612000D02*
X101117904Y-81573904D01*
X94665238Y-78881523D02*
X94284285Y-78881523D01*
X94741428Y-79110095D02*
X94474761Y-78310095D01*
X94474761Y-78310095D02*
X94208095Y-79110095D01*
X93522381Y-79110095D02*
X93979524Y-79110095D01*
X93750952Y-79110095D02*
X93750952Y-78310095D01*
X93750952Y-78310095D02*
X93827143Y-78424380D01*
X93827143Y-78424380D02*
X93903333Y-78500571D01*
X93903333Y-78500571D02*
X93979524Y-78538666D01*
X92608095Y-78272000D02*
X93293809Y-79300571D01*
X92341428Y-79110095D02*
X92341428Y-78310095D01*
X92341428Y-78310095D02*
X92036666Y-78310095D01*
X92036666Y-78310095D02*
X91960476Y-78348190D01*
X91960476Y-78348190D02*
X91922381Y-78386285D01*
X91922381Y-78386285D02*
X91884285Y-78462476D01*
X91884285Y-78462476D02*
X91884285Y-78576761D01*
X91884285Y-78576761D02*
X91922381Y-78652952D01*
X91922381Y-78652952D02*
X91960476Y-78691047D01*
X91960476Y-78691047D02*
X92036666Y-78729142D01*
X92036666Y-78729142D02*
X92341428Y-78729142D01*
X91084285Y-79033904D02*
X91122381Y-79072000D01*
X91122381Y-79072000D02*
X91236666Y-79110095D01*
X91236666Y-79110095D02*
X91312857Y-79110095D01*
X91312857Y-79110095D02*
X91427143Y-79072000D01*
X91427143Y-79072000D02*
X91503333Y-78995809D01*
X91503333Y-78995809D02*
X91541428Y-78919619D01*
X91541428Y-78919619D02*
X91579524Y-78767238D01*
X91579524Y-78767238D02*
X91579524Y-78652952D01*
X91579524Y-78652952D02*
X91541428Y-78500571D01*
X91541428Y-78500571D02*
X91503333Y-78424380D01*
X91503333Y-78424380D02*
X91427143Y-78348190D01*
X91427143Y-78348190D02*
X91312857Y-78310095D01*
X91312857Y-78310095D02*
X91236666Y-78310095D01*
X91236666Y-78310095D02*
X91122381Y-78348190D01*
X91122381Y-78348190D02*
X91084285Y-78386285D01*
X90817619Y-78310095D02*
X90322381Y-78310095D01*
X90322381Y-78310095D02*
X90589047Y-78614857D01*
X90589047Y-78614857D02*
X90474762Y-78614857D01*
X90474762Y-78614857D02*
X90398571Y-78652952D01*
X90398571Y-78652952D02*
X90360476Y-78691047D01*
X90360476Y-78691047D02*
X90322381Y-78767238D01*
X90322381Y-78767238D02*
X90322381Y-78957714D01*
X90322381Y-78957714D02*
X90360476Y-79033904D01*
X90360476Y-79033904D02*
X90398571Y-79072000D01*
X90398571Y-79072000D02*
X90474762Y-79110095D01*
X90474762Y-79110095D02*
X90703333Y-79110095D01*
X90703333Y-79110095D02*
X90779524Y-79072000D01*
X90779524Y-79072000D02*
X90817619Y-79033904D01*
X105003619Y-73992000D02*
X104889333Y-74030095D01*
X104889333Y-74030095D02*
X104698857Y-74030095D01*
X104698857Y-74030095D02*
X104622666Y-73992000D01*
X104622666Y-73992000D02*
X104584571Y-73953904D01*
X104584571Y-73953904D02*
X104546476Y-73877714D01*
X104546476Y-73877714D02*
X104546476Y-73801523D01*
X104546476Y-73801523D02*
X104584571Y-73725333D01*
X104584571Y-73725333D02*
X104622666Y-73687238D01*
X104622666Y-73687238D02*
X104698857Y-73649142D01*
X104698857Y-73649142D02*
X104851238Y-73611047D01*
X104851238Y-73611047D02*
X104927428Y-73572952D01*
X104927428Y-73572952D02*
X104965523Y-73534857D01*
X104965523Y-73534857D02*
X105003619Y-73458666D01*
X105003619Y-73458666D02*
X105003619Y-73382476D01*
X105003619Y-73382476D02*
X104965523Y-73306285D01*
X104965523Y-73306285D02*
X104927428Y-73268190D01*
X104927428Y-73268190D02*
X104851238Y-73230095D01*
X104851238Y-73230095D02*
X104660761Y-73230095D01*
X104660761Y-73230095D02*
X104546476Y-73268190D01*
X104203618Y-74030095D02*
X104203618Y-73230095D01*
X104203618Y-73230095D02*
X104013142Y-73230095D01*
X104013142Y-73230095D02*
X103898856Y-73268190D01*
X103898856Y-73268190D02*
X103822666Y-73344380D01*
X103822666Y-73344380D02*
X103784571Y-73420571D01*
X103784571Y-73420571D02*
X103746475Y-73572952D01*
X103746475Y-73572952D02*
X103746475Y-73687238D01*
X103746475Y-73687238D02*
X103784571Y-73839619D01*
X103784571Y-73839619D02*
X103822666Y-73915809D01*
X103822666Y-73915809D02*
X103898856Y-73992000D01*
X103898856Y-73992000D02*
X104013142Y-74030095D01*
X104013142Y-74030095D02*
X104203618Y-74030095D01*
X103441714Y-73801523D02*
X103060761Y-73801523D01*
X103517904Y-74030095D02*
X103251237Y-73230095D01*
X103251237Y-73230095D02*
X102984571Y-74030095D01*
X102298857Y-74030095D02*
X102756000Y-74030095D01*
X102527428Y-74030095D02*
X102527428Y-73230095D01*
X102527428Y-73230095D02*
X102603619Y-73344380D01*
X102603619Y-73344380D02*
X102679809Y-73420571D01*
X102679809Y-73420571D02*
X102756000Y-73458666D01*
X101384571Y-73192000D02*
X102070285Y-74220571D01*
X101117904Y-74030095D02*
X101117904Y-73230095D01*
X101117904Y-73230095D02*
X100813142Y-73230095D01*
X100813142Y-73230095D02*
X100736952Y-73268190D01*
X100736952Y-73268190D02*
X100698857Y-73306285D01*
X100698857Y-73306285D02*
X100660761Y-73382476D01*
X100660761Y-73382476D02*
X100660761Y-73496761D01*
X100660761Y-73496761D02*
X100698857Y-73572952D01*
X100698857Y-73572952D02*
X100736952Y-73611047D01*
X100736952Y-73611047D02*
X100813142Y-73649142D01*
X100813142Y-73649142D02*
X101117904Y-73649142D01*
X100051238Y-73611047D02*
X99936952Y-73649142D01*
X99936952Y-73649142D02*
X99898857Y-73687238D01*
X99898857Y-73687238D02*
X99860761Y-73763428D01*
X99860761Y-73763428D02*
X99860761Y-73877714D01*
X99860761Y-73877714D02*
X99898857Y-73953904D01*
X99898857Y-73953904D02*
X99936952Y-73992000D01*
X99936952Y-73992000D02*
X100013142Y-74030095D01*
X100013142Y-74030095D02*
X100317904Y-74030095D01*
X100317904Y-74030095D02*
X100317904Y-73230095D01*
X100317904Y-73230095D02*
X100051238Y-73230095D01*
X100051238Y-73230095D02*
X99975047Y-73268190D01*
X99975047Y-73268190D02*
X99936952Y-73306285D01*
X99936952Y-73306285D02*
X99898857Y-73382476D01*
X99898857Y-73382476D02*
X99898857Y-73458666D01*
X99898857Y-73458666D02*
X99936952Y-73534857D01*
X99936952Y-73534857D02*
X99975047Y-73572952D01*
X99975047Y-73572952D02*
X100051238Y-73611047D01*
X100051238Y-73611047D02*
X100317904Y-73611047D01*
X99098857Y-74030095D02*
X99556000Y-74030095D01*
X99327428Y-74030095D02*
X99327428Y-73230095D01*
X99327428Y-73230095D02*
X99403619Y-73344380D01*
X99403619Y-73344380D02*
X99479809Y-73420571D01*
X99479809Y-73420571D02*
X99556000Y-73458666D01*
X98413142Y-73496761D02*
X98413142Y-74030095D01*
X98603618Y-73192000D02*
X98794095Y-73763428D01*
X98794095Y-73763428D02*
X98298856Y-73763428D01*
X97636666Y-88470095D02*
X97636666Y-89117714D01*
X97636666Y-89117714D02*
X97598571Y-89193904D01*
X97598571Y-89193904D02*
X97560476Y-89232000D01*
X97560476Y-89232000D02*
X97484285Y-89270095D01*
X97484285Y-89270095D02*
X97331904Y-89270095D01*
X97331904Y-89270095D02*
X97255714Y-89232000D01*
X97255714Y-89232000D02*
X97217619Y-89193904D01*
X97217619Y-89193904D02*
X97179523Y-89117714D01*
X97179523Y-89117714D02*
X97179523Y-88470095D01*
X96836667Y-89232000D02*
X96722381Y-89270095D01*
X96722381Y-89270095D02*
X96531905Y-89270095D01*
X96531905Y-89270095D02*
X96455714Y-89232000D01*
X96455714Y-89232000D02*
X96417619Y-89193904D01*
X96417619Y-89193904D02*
X96379524Y-89117714D01*
X96379524Y-89117714D02*
X96379524Y-89041523D01*
X96379524Y-89041523D02*
X96417619Y-88965333D01*
X96417619Y-88965333D02*
X96455714Y-88927238D01*
X96455714Y-88927238D02*
X96531905Y-88889142D01*
X96531905Y-88889142D02*
X96684286Y-88851047D01*
X96684286Y-88851047D02*
X96760476Y-88812952D01*
X96760476Y-88812952D02*
X96798571Y-88774857D01*
X96798571Y-88774857D02*
X96836667Y-88698666D01*
X96836667Y-88698666D02*
X96836667Y-88622476D01*
X96836667Y-88622476D02*
X96798571Y-88546285D01*
X96798571Y-88546285D02*
X96760476Y-88508190D01*
X96760476Y-88508190D02*
X96684286Y-88470095D01*
X96684286Y-88470095D02*
X96493809Y-88470095D01*
X96493809Y-88470095D02*
X96379524Y-88508190D01*
X95770000Y-88851047D02*
X95655714Y-88889142D01*
X95655714Y-88889142D02*
X95617619Y-88927238D01*
X95617619Y-88927238D02*
X95579523Y-89003428D01*
X95579523Y-89003428D02*
X95579523Y-89117714D01*
X95579523Y-89117714D02*
X95617619Y-89193904D01*
X95617619Y-89193904D02*
X95655714Y-89232000D01*
X95655714Y-89232000D02*
X95731904Y-89270095D01*
X95731904Y-89270095D02*
X96036666Y-89270095D01*
X96036666Y-89270095D02*
X96036666Y-88470095D01*
X96036666Y-88470095D02*
X95770000Y-88470095D01*
X95770000Y-88470095D02*
X95693809Y-88508190D01*
X95693809Y-88508190D02*
X95655714Y-88546285D01*
X95655714Y-88546285D02*
X95617619Y-88622476D01*
X95617619Y-88622476D02*
X95617619Y-88698666D01*
X95617619Y-88698666D02*
X95655714Y-88774857D01*
X95655714Y-88774857D02*
X95693809Y-88812952D01*
X95693809Y-88812952D02*
X95770000Y-88851047D01*
X95770000Y-88851047D02*
X96036666Y-88851047D01*
X95427143Y-89346285D02*
X94817619Y-89346285D01*
X94627142Y-89270095D02*
X94627142Y-88470095D01*
X94627142Y-88470095D02*
X94322380Y-88470095D01*
X94322380Y-88470095D02*
X94246190Y-88508190D01*
X94246190Y-88508190D02*
X94208095Y-88546285D01*
X94208095Y-88546285D02*
X94169999Y-88622476D01*
X94169999Y-88622476D02*
X94169999Y-88736761D01*
X94169999Y-88736761D02*
X94208095Y-88812952D01*
X94208095Y-88812952D02*
X94246190Y-88851047D01*
X94246190Y-88851047D02*
X94322380Y-88889142D01*
X94322380Y-88889142D02*
X94627142Y-88889142D01*
X93255714Y-88432000D02*
X93941428Y-89460571D01*
X92989047Y-89270095D02*
X92989047Y-88470095D01*
X92989047Y-88470095D02*
X92684285Y-88470095D01*
X92684285Y-88470095D02*
X92608095Y-88508190D01*
X92608095Y-88508190D02*
X92570000Y-88546285D01*
X92570000Y-88546285D02*
X92531904Y-88622476D01*
X92531904Y-88622476D02*
X92531904Y-88736761D01*
X92531904Y-88736761D02*
X92570000Y-88812952D01*
X92570000Y-88812952D02*
X92608095Y-88851047D01*
X92608095Y-88851047D02*
X92684285Y-88889142D01*
X92684285Y-88889142D02*
X92989047Y-88889142D01*
X92227143Y-89041523D02*
X91846190Y-89041523D01*
X92303333Y-89270095D02*
X92036666Y-88470095D01*
X92036666Y-88470095D02*
X91770000Y-89270095D01*
X91084286Y-89270095D02*
X91541429Y-89270095D01*
X91312857Y-89270095D02*
X91312857Y-88470095D01*
X91312857Y-88470095D02*
X91389048Y-88584380D01*
X91389048Y-88584380D02*
X91465238Y-88660571D01*
X91465238Y-88660571D02*
X91541429Y-88698666D01*
X90779524Y-88546285D02*
X90741428Y-88508190D01*
X90741428Y-88508190D02*
X90665238Y-88470095D01*
X90665238Y-88470095D02*
X90474762Y-88470095D01*
X90474762Y-88470095D02*
X90398571Y-88508190D01*
X90398571Y-88508190D02*
X90360476Y-88546285D01*
X90360476Y-88546285D02*
X90322381Y-88622476D01*
X90322381Y-88622476D02*
X90322381Y-88698666D01*
X90322381Y-88698666D02*
X90360476Y-88812952D01*
X90360476Y-88812952D02*
X90817619Y-89270095D01*
X90817619Y-89270095D02*
X90322381Y-89270095D01*
X94550952Y-63070095D02*
X94093809Y-63070095D01*
X94322381Y-63870095D02*
X94322381Y-63070095D01*
X93903333Y-63070095D02*
X93369999Y-63870095D01*
X93369999Y-63070095D02*
X93903333Y-63870095D01*
X92493809Y-63032000D02*
X93179523Y-64060571D01*
X92227142Y-63870095D02*
X92227142Y-63070095D01*
X92227142Y-63070095D02*
X91922380Y-63070095D01*
X91922380Y-63070095D02*
X91846190Y-63108190D01*
X91846190Y-63108190D02*
X91808095Y-63146285D01*
X91808095Y-63146285D02*
X91769999Y-63222476D01*
X91769999Y-63222476D02*
X91769999Y-63336761D01*
X91769999Y-63336761D02*
X91808095Y-63412952D01*
X91808095Y-63412952D02*
X91846190Y-63451047D01*
X91846190Y-63451047D02*
X91922380Y-63489142D01*
X91922380Y-63489142D02*
X92227142Y-63489142D01*
X91465238Y-63641523D02*
X91084285Y-63641523D01*
X91541428Y-63870095D02*
X91274761Y-63070095D01*
X91274761Y-63070095D02*
X91008095Y-63870095D01*
X90703333Y-63870095D02*
X90550952Y-63870095D01*
X90550952Y-63870095D02*
X90474762Y-63832000D01*
X90474762Y-63832000D02*
X90436666Y-63793904D01*
X90436666Y-63793904D02*
X90360476Y-63679619D01*
X90360476Y-63679619D02*
X90322381Y-63527238D01*
X90322381Y-63527238D02*
X90322381Y-63222476D01*
X90322381Y-63222476D02*
X90360476Y-63146285D01*
X90360476Y-63146285D02*
X90398571Y-63108190D01*
X90398571Y-63108190D02*
X90474762Y-63070095D01*
X90474762Y-63070095D02*
X90627143Y-63070095D01*
X90627143Y-63070095D02*
X90703333Y-63108190D01*
X90703333Y-63108190D02*
X90741428Y-63146285D01*
X90741428Y-63146285D02*
X90779524Y-63222476D01*
X90779524Y-63222476D02*
X90779524Y-63412952D01*
X90779524Y-63412952D02*
X90741428Y-63489142D01*
X90741428Y-63489142D02*
X90703333Y-63527238D01*
X90703333Y-63527238D02*
X90627143Y-63565333D01*
X90627143Y-63565333D02*
X90474762Y-63565333D01*
X90474762Y-63565333D02*
X90398571Y-63527238D01*
X90398571Y-63527238D02*
X90360476Y-63489142D01*
X90360476Y-63489142D02*
X90322381Y-63412952D01*
X104965523Y-86730095D02*
X104965523Y-85930095D01*
X104965523Y-85930095D02*
X104775047Y-85930095D01*
X104775047Y-85930095D02*
X104660761Y-85968190D01*
X104660761Y-85968190D02*
X104584571Y-86044380D01*
X104584571Y-86044380D02*
X104546476Y-86120571D01*
X104546476Y-86120571D02*
X104508380Y-86272952D01*
X104508380Y-86272952D02*
X104508380Y-86387238D01*
X104508380Y-86387238D02*
X104546476Y-86539619D01*
X104546476Y-86539619D02*
X104584571Y-86615809D01*
X104584571Y-86615809D02*
X104660761Y-86692000D01*
X104660761Y-86692000D02*
X104775047Y-86730095D01*
X104775047Y-86730095D02*
X104965523Y-86730095D01*
X104203619Y-86006285D02*
X104165523Y-85968190D01*
X104165523Y-85968190D02*
X104089333Y-85930095D01*
X104089333Y-85930095D02*
X103898857Y-85930095D01*
X103898857Y-85930095D02*
X103822666Y-85968190D01*
X103822666Y-85968190D02*
X103784571Y-86006285D01*
X103784571Y-86006285D02*
X103746476Y-86082476D01*
X103746476Y-86082476D02*
X103746476Y-86158666D01*
X103746476Y-86158666D02*
X103784571Y-86272952D01*
X103784571Y-86272952D02*
X104241714Y-86730095D01*
X104241714Y-86730095D02*
X103746476Y-86730095D01*
X102832190Y-85892000D02*
X103517904Y-86920571D01*
X102565523Y-86730095D02*
X102565523Y-85930095D01*
X102565523Y-85930095D02*
X102260761Y-85930095D01*
X102260761Y-85930095D02*
X102184571Y-85968190D01*
X102184571Y-85968190D02*
X102146476Y-86006285D01*
X102146476Y-86006285D02*
X102108380Y-86082476D01*
X102108380Y-86082476D02*
X102108380Y-86196761D01*
X102108380Y-86196761D02*
X102146476Y-86272952D01*
X102146476Y-86272952D02*
X102184571Y-86311047D01*
X102184571Y-86311047D02*
X102260761Y-86349142D01*
X102260761Y-86349142D02*
X102565523Y-86349142D01*
X101308380Y-86653904D02*
X101346476Y-86692000D01*
X101346476Y-86692000D02*
X101460761Y-86730095D01*
X101460761Y-86730095D02*
X101536952Y-86730095D01*
X101536952Y-86730095D02*
X101651238Y-86692000D01*
X101651238Y-86692000D02*
X101727428Y-86615809D01*
X101727428Y-86615809D02*
X101765523Y-86539619D01*
X101765523Y-86539619D02*
X101803619Y-86387238D01*
X101803619Y-86387238D02*
X101803619Y-86272952D01*
X101803619Y-86272952D02*
X101765523Y-86120571D01*
X101765523Y-86120571D02*
X101727428Y-86044380D01*
X101727428Y-86044380D02*
X101651238Y-85968190D01*
X101651238Y-85968190D02*
X101536952Y-85930095D01*
X101536952Y-85930095D02*
X101460761Y-85930095D01*
X101460761Y-85930095D02*
X101346476Y-85968190D01*
X101346476Y-85968190D02*
X101308380Y-86006285D01*
X100546476Y-86730095D02*
X101003619Y-86730095D01*
X100775047Y-86730095D02*
X100775047Y-85930095D01*
X100775047Y-85930095D02*
X100851238Y-86044380D01*
X100851238Y-86044380D02*
X100927428Y-86120571D01*
X100927428Y-86120571D02*
X101003619Y-86158666D01*
X99784571Y-86730095D02*
X100241714Y-86730095D01*
X100013142Y-86730095D02*
X100013142Y-85930095D01*
X100013142Y-85930095D02*
X100089333Y-86044380D01*
X100089333Y-86044380D02*
X100165523Y-86120571D01*
X100165523Y-86120571D02*
X100241714Y-86158666D01*
X105003619Y-76532000D02*
X104889333Y-76570095D01*
X104889333Y-76570095D02*
X104698857Y-76570095D01*
X104698857Y-76570095D02*
X104622666Y-76532000D01*
X104622666Y-76532000D02*
X104584571Y-76493904D01*
X104584571Y-76493904D02*
X104546476Y-76417714D01*
X104546476Y-76417714D02*
X104546476Y-76341523D01*
X104546476Y-76341523D02*
X104584571Y-76265333D01*
X104584571Y-76265333D02*
X104622666Y-76227238D01*
X104622666Y-76227238D02*
X104698857Y-76189142D01*
X104698857Y-76189142D02*
X104851238Y-76151047D01*
X104851238Y-76151047D02*
X104927428Y-76112952D01*
X104927428Y-76112952D02*
X104965523Y-76074857D01*
X104965523Y-76074857D02*
X105003619Y-75998666D01*
X105003619Y-75998666D02*
X105003619Y-75922476D01*
X105003619Y-75922476D02*
X104965523Y-75846285D01*
X104965523Y-75846285D02*
X104927428Y-75808190D01*
X104927428Y-75808190D02*
X104851238Y-75770095D01*
X104851238Y-75770095D02*
X104660761Y-75770095D01*
X104660761Y-75770095D02*
X104546476Y-75808190D01*
X103746475Y-76493904D02*
X103784571Y-76532000D01*
X103784571Y-76532000D02*
X103898856Y-76570095D01*
X103898856Y-76570095D02*
X103975047Y-76570095D01*
X103975047Y-76570095D02*
X104089333Y-76532000D01*
X104089333Y-76532000D02*
X104165523Y-76455809D01*
X104165523Y-76455809D02*
X104203618Y-76379619D01*
X104203618Y-76379619D02*
X104241714Y-76227238D01*
X104241714Y-76227238D02*
X104241714Y-76112952D01*
X104241714Y-76112952D02*
X104203618Y-75960571D01*
X104203618Y-75960571D02*
X104165523Y-75884380D01*
X104165523Y-75884380D02*
X104089333Y-75808190D01*
X104089333Y-75808190D02*
X103975047Y-75770095D01*
X103975047Y-75770095D02*
X103898856Y-75770095D01*
X103898856Y-75770095D02*
X103784571Y-75808190D01*
X103784571Y-75808190D02*
X103746475Y-75846285D01*
X103022666Y-76570095D02*
X103403618Y-76570095D01*
X103403618Y-76570095D02*
X103403618Y-75770095D01*
X102336952Y-76570095D02*
X102794095Y-76570095D01*
X102565523Y-76570095D02*
X102565523Y-75770095D01*
X102565523Y-75770095D02*
X102641714Y-75884380D01*
X102641714Y-75884380D02*
X102717904Y-75960571D01*
X102717904Y-75960571D02*
X102794095Y-75998666D01*
X101422666Y-75732000D02*
X102108380Y-76760571D01*
X101155999Y-76570095D02*
X101155999Y-75770095D01*
X101155999Y-75770095D02*
X100851237Y-75770095D01*
X100851237Y-75770095D02*
X100775047Y-75808190D01*
X100775047Y-75808190D02*
X100736952Y-75846285D01*
X100736952Y-75846285D02*
X100698856Y-75922476D01*
X100698856Y-75922476D02*
X100698856Y-76036761D01*
X100698856Y-76036761D02*
X100736952Y-76112952D01*
X100736952Y-76112952D02*
X100775047Y-76151047D01*
X100775047Y-76151047D02*
X100851237Y-76189142D01*
X100851237Y-76189142D02*
X101155999Y-76189142D01*
X100089333Y-76151047D02*
X99975047Y-76189142D01*
X99975047Y-76189142D02*
X99936952Y-76227238D01*
X99936952Y-76227238D02*
X99898856Y-76303428D01*
X99898856Y-76303428D02*
X99898856Y-76417714D01*
X99898856Y-76417714D02*
X99936952Y-76493904D01*
X99936952Y-76493904D02*
X99975047Y-76532000D01*
X99975047Y-76532000D02*
X100051237Y-76570095D01*
X100051237Y-76570095D02*
X100355999Y-76570095D01*
X100355999Y-76570095D02*
X100355999Y-75770095D01*
X100355999Y-75770095D02*
X100089333Y-75770095D01*
X100089333Y-75770095D02*
X100013142Y-75808190D01*
X100013142Y-75808190D02*
X99975047Y-75846285D01*
X99975047Y-75846285D02*
X99936952Y-75922476D01*
X99936952Y-75922476D02*
X99936952Y-75998666D01*
X99936952Y-75998666D02*
X99975047Y-76074857D01*
X99975047Y-76074857D02*
X100013142Y-76112952D01*
X100013142Y-76112952D02*
X100089333Y-76151047D01*
X100089333Y-76151047D02*
X100355999Y-76151047D01*
X99136952Y-76570095D02*
X99594095Y-76570095D01*
X99365523Y-76570095D02*
X99365523Y-75770095D01*
X99365523Y-75770095D02*
X99441714Y-75884380D01*
X99441714Y-75884380D02*
X99517904Y-75960571D01*
X99517904Y-75960571D02*
X99594095Y-75998666D01*
X98870285Y-75770095D02*
X98375047Y-75770095D01*
X98375047Y-75770095D02*
X98641713Y-76074857D01*
X98641713Y-76074857D02*
X98527428Y-76074857D01*
X98527428Y-76074857D02*
X98451237Y-76112952D01*
X98451237Y-76112952D02*
X98413142Y-76151047D01*
X98413142Y-76151047D02*
X98375047Y-76227238D01*
X98375047Y-76227238D02*
X98375047Y-76417714D01*
X98375047Y-76417714D02*
X98413142Y-76493904D01*
X98413142Y-76493904D02*
X98451237Y-76532000D01*
X98451237Y-76532000D02*
X98527428Y-76570095D01*
X98527428Y-76570095D02*
X98755999Y-76570095D01*
X98755999Y-76570095D02*
X98832190Y-76532000D01*
X98832190Y-76532000D02*
X98870285Y-76493904D01*
X91998571Y-93588190D02*
X92074761Y-93550095D01*
X92074761Y-93550095D02*
X92189047Y-93550095D01*
X92189047Y-93550095D02*
X92303333Y-93588190D01*
X92303333Y-93588190D02*
X92379523Y-93664380D01*
X92379523Y-93664380D02*
X92417618Y-93740571D01*
X92417618Y-93740571D02*
X92455714Y-93892952D01*
X92455714Y-93892952D02*
X92455714Y-94007238D01*
X92455714Y-94007238D02*
X92417618Y-94159619D01*
X92417618Y-94159619D02*
X92379523Y-94235809D01*
X92379523Y-94235809D02*
X92303333Y-94312000D01*
X92303333Y-94312000D02*
X92189047Y-94350095D01*
X92189047Y-94350095D02*
X92112856Y-94350095D01*
X92112856Y-94350095D02*
X91998571Y-94312000D01*
X91998571Y-94312000D02*
X91960475Y-94273904D01*
X91960475Y-94273904D02*
X91960475Y-94007238D01*
X91960475Y-94007238D02*
X92112856Y-94007238D01*
X91617618Y-94350095D02*
X91617618Y-93550095D01*
X91617618Y-93550095D02*
X91160475Y-94350095D01*
X91160475Y-94350095D02*
X91160475Y-93550095D01*
X90779523Y-94350095D02*
X90779523Y-93550095D01*
X90779523Y-93550095D02*
X90589047Y-93550095D01*
X90589047Y-93550095D02*
X90474761Y-93588190D01*
X90474761Y-93588190D02*
X90398571Y-93664380D01*
X90398571Y-93664380D02*
X90360476Y-93740571D01*
X90360476Y-93740571D02*
X90322380Y-93892952D01*
X90322380Y-93892952D02*
X90322380Y-94007238D01*
X90322380Y-94007238D02*
X90360476Y-94159619D01*
X90360476Y-94159619D02*
X90398571Y-94235809D01*
X90398571Y-94235809D02*
X90474761Y-94312000D01*
X90474761Y-94312000D02*
X90589047Y-94350095D01*
X90589047Y-94350095D02*
X90779523Y-94350095D01*
X92519238Y-55450095D02*
X92024000Y-55450095D01*
X92024000Y-55450095D02*
X92290666Y-55754857D01*
X92290666Y-55754857D02*
X92176381Y-55754857D01*
X92176381Y-55754857D02*
X92100190Y-55792952D01*
X92100190Y-55792952D02*
X92062095Y-55831047D01*
X92062095Y-55831047D02*
X92024000Y-55907238D01*
X92024000Y-55907238D02*
X92024000Y-56097714D01*
X92024000Y-56097714D02*
X92062095Y-56173904D01*
X92062095Y-56173904D02*
X92100190Y-56212000D01*
X92100190Y-56212000D02*
X92176381Y-56250095D01*
X92176381Y-56250095D02*
X92404952Y-56250095D01*
X92404952Y-56250095D02*
X92481143Y-56212000D01*
X92481143Y-56212000D02*
X92519238Y-56173904D01*
X91795428Y-55450095D02*
X91528761Y-56250095D01*
X91528761Y-56250095D02*
X91262095Y-55450095D01*
X91071619Y-55450095D02*
X90576381Y-55450095D01*
X90576381Y-55450095D02*
X90843047Y-55754857D01*
X90843047Y-55754857D02*
X90728762Y-55754857D01*
X90728762Y-55754857D02*
X90652571Y-55792952D01*
X90652571Y-55792952D02*
X90614476Y-55831047D01*
X90614476Y-55831047D02*
X90576381Y-55907238D01*
X90576381Y-55907238D02*
X90576381Y-56097714D01*
X90576381Y-56097714D02*
X90614476Y-56173904D01*
X90614476Y-56173904D02*
X90652571Y-56212000D01*
X90652571Y-56212000D02*
X90728762Y-56250095D01*
X90728762Y-56250095D02*
X90957333Y-56250095D01*
X90957333Y-56250095D02*
X91033524Y-56212000D01*
X91033524Y-56212000D02*
X91071619Y-56173904D01*
X98893809Y-60530095D02*
X98893809Y-61177714D01*
X98893809Y-61177714D02*
X98855714Y-61253904D01*
X98855714Y-61253904D02*
X98817619Y-61292000D01*
X98817619Y-61292000D02*
X98741428Y-61330095D01*
X98741428Y-61330095D02*
X98589047Y-61330095D01*
X98589047Y-61330095D02*
X98512857Y-61292000D01*
X98512857Y-61292000D02*
X98474762Y-61253904D01*
X98474762Y-61253904D02*
X98436666Y-61177714D01*
X98436666Y-61177714D02*
X98436666Y-60530095D01*
X98093810Y-61101523D02*
X97712857Y-61101523D01*
X98170000Y-61330095D02*
X97903333Y-60530095D01*
X97903333Y-60530095D02*
X97636667Y-61330095D01*
X96912857Y-61330095D02*
X97179524Y-60949142D01*
X97370000Y-61330095D02*
X97370000Y-60530095D01*
X97370000Y-60530095D02*
X97065238Y-60530095D01*
X97065238Y-60530095D02*
X96989048Y-60568190D01*
X96989048Y-60568190D02*
X96950953Y-60606285D01*
X96950953Y-60606285D02*
X96912857Y-60682476D01*
X96912857Y-60682476D02*
X96912857Y-60796761D01*
X96912857Y-60796761D02*
X96950953Y-60872952D01*
X96950953Y-60872952D02*
X96989048Y-60911047D01*
X96989048Y-60911047D02*
X97065238Y-60949142D01*
X97065238Y-60949142D02*
X97370000Y-60949142D01*
X96684286Y-60530095D02*
X96227143Y-60530095D01*
X96455715Y-61330095D02*
X96455715Y-60530095D01*
X96150953Y-61406285D02*
X95541429Y-61406285D01*
X94893809Y-61330095D02*
X95160476Y-60949142D01*
X95350952Y-61330095D02*
X95350952Y-60530095D01*
X95350952Y-60530095D02*
X95046190Y-60530095D01*
X95046190Y-60530095D02*
X94970000Y-60568190D01*
X94970000Y-60568190D02*
X94931905Y-60606285D01*
X94931905Y-60606285D02*
X94893809Y-60682476D01*
X94893809Y-60682476D02*
X94893809Y-60796761D01*
X94893809Y-60796761D02*
X94931905Y-60872952D01*
X94931905Y-60872952D02*
X94970000Y-60911047D01*
X94970000Y-60911047D02*
X95046190Y-60949142D01*
X95046190Y-60949142D02*
X95350952Y-60949142D01*
X94665238Y-60530095D02*
X94208095Y-60530095D01*
X94436667Y-61330095D02*
X94436667Y-60530095D01*
X93979524Y-61292000D02*
X93865238Y-61330095D01*
X93865238Y-61330095D02*
X93674762Y-61330095D01*
X93674762Y-61330095D02*
X93598571Y-61292000D01*
X93598571Y-61292000D02*
X93560476Y-61253904D01*
X93560476Y-61253904D02*
X93522381Y-61177714D01*
X93522381Y-61177714D02*
X93522381Y-61101523D01*
X93522381Y-61101523D02*
X93560476Y-61025333D01*
X93560476Y-61025333D02*
X93598571Y-60987238D01*
X93598571Y-60987238D02*
X93674762Y-60949142D01*
X93674762Y-60949142D02*
X93827143Y-60911047D01*
X93827143Y-60911047D02*
X93903333Y-60872952D01*
X93903333Y-60872952D02*
X93941428Y-60834857D01*
X93941428Y-60834857D02*
X93979524Y-60758666D01*
X93979524Y-60758666D02*
X93979524Y-60682476D01*
X93979524Y-60682476D02*
X93941428Y-60606285D01*
X93941428Y-60606285D02*
X93903333Y-60568190D01*
X93903333Y-60568190D02*
X93827143Y-60530095D01*
X93827143Y-60530095D02*
X93636666Y-60530095D01*
X93636666Y-60530095D02*
X93522381Y-60568190D01*
X92608095Y-60492000D02*
X93293809Y-61520571D01*
X92341428Y-61330095D02*
X92341428Y-60530095D01*
X92341428Y-60530095D02*
X92036666Y-60530095D01*
X92036666Y-60530095D02*
X91960476Y-60568190D01*
X91960476Y-60568190D02*
X91922381Y-60606285D01*
X91922381Y-60606285D02*
X91884285Y-60682476D01*
X91884285Y-60682476D02*
X91884285Y-60796761D01*
X91884285Y-60796761D02*
X91922381Y-60872952D01*
X91922381Y-60872952D02*
X91960476Y-60911047D01*
X91960476Y-60911047D02*
X92036666Y-60949142D01*
X92036666Y-60949142D02*
X92341428Y-60949142D01*
X91274762Y-60911047D02*
X91160476Y-60949142D01*
X91160476Y-60949142D02*
X91122381Y-60987238D01*
X91122381Y-60987238D02*
X91084285Y-61063428D01*
X91084285Y-61063428D02*
X91084285Y-61177714D01*
X91084285Y-61177714D02*
X91122381Y-61253904D01*
X91122381Y-61253904D02*
X91160476Y-61292000D01*
X91160476Y-61292000D02*
X91236666Y-61330095D01*
X91236666Y-61330095D02*
X91541428Y-61330095D01*
X91541428Y-61330095D02*
X91541428Y-60530095D01*
X91541428Y-60530095D02*
X91274762Y-60530095D01*
X91274762Y-60530095D02*
X91198571Y-60568190D01*
X91198571Y-60568190D02*
X91160476Y-60606285D01*
X91160476Y-60606285D02*
X91122381Y-60682476D01*
X91122381Y-60682476D02*
X91122381Y-60758666D01*
X91122381Y-60758666D02*
X91160476Y-60834857D01*
X91160476Y-60834857D02*
X91198571Y-60872952D01*
X91198571Y-60872952D02*
X91274762Y-60911047D01*
X91274762Y-60911047D02*
X91541428Y-60911047D01*
X90817619Y-60530095D02*
X90322381Y-60530095D01*
X90322381Y-60530095D02*
X90589047Y-60834857D01*
X90589047Y-60834857D02*
X90474762Y-60834857D01*
X90474762Y-60834857D02*
X90398571Y-60872952D01*
X90398571Y-60872952D02*
X90360476Y-60911047D01*
X90360476Y-60911047D02*
X90322381Y-60987238D01*
X90322381Y-60987238D02*
X90322381Y-61177714D01*
X90322381Y-61177714D02*
X90360476Y-61253904D01*
X90360476Y-61253904D02*
X90398571Y-61292000D01*
X90398571Y-61292000D02*
X90474762Y-61330095D01*
X90474762Y-61330095D02*
X90703333Y-61330095D01*
X90703333Y-61330095D02*
X90779524Y-61292000D01*
X90779524Y-61292000D02*
X90817619Y-61253904D01*
X96227143Y-84152000D02*
X96112857Y-84190095D01*
X96112857Y-84190095D02*
X95922381Y-84190095D01*
X95922381Y-84190095D02*
X95846190Y-84152000D01*
X95846190Y-84152000D02*
X95808095Y-84113904D01*
X95808095Y-84113904D02*
X95770000Y-84037714D01*
X95770000Y-84037714D02*
X95770000Y-83961523D01*
X95770000Y-83961523D02*
X95808095Y-83885333D01*
X95808095Y-83885333D02*
X95846190Y-83847238D01*
X95846190Y-83847238D02*
X95922381Y-83809142D01*
X95922381Y-83809142D02*
X96074762Y-83771047D01*
X96074762Y-83771047D02*
X96150952Y-83732952D01*
X96150952Y-83732952D02*
X96189047Y-83694857D01*
X96189047Y-83694857D02*
X96227143Y-83618666D01*
X96227143Y-83618666D02*
X96227143Y-83542476D01*
X96227143Y-83542476D02*
X96189047Y-83466285D01*
X96189047Y-83466285D02*
X96150952Y-83428190D01*
X96150952Y-83428190D02*
X96074762Y-83390095D01*
X96074762Y-83390095D02*
X95884285Y-83390095D01*
X95884285Y-83390095D02*
X95770000Y-83428190D01*
X95427142Y-84190095D02*
X95427142Y-83390095D01*
X95427142Y-83390095D02*
X95236666Y-83390095D01*
X95236666Y-83390095D02*
X95122380Y-83428190D01*
X95122380Y-83428190D02*
X95046190Y-83504380D01*
X95046190Y-83504380D02*
X95008095Y-83580571D01*
X95008095Y-83580571D02*
X94969999Y-83732952D01*
X94969999Y-83732952D02*
X94969999Y-83847238D01*
X94969999Y-83847238D02*
X95008095Y-83999619D01*
X95008095Y-83999619D02*
X95046190Y-84075809D01*
X95046190Y-84075809D02*
X95122380Y-84152000D01*
X95122380Y-84152000D02*
X95236666Y-84190095D01*
X95236666Y-84190095D02*
X95427142Y-84190095D01*
X94665238Y-83961523D02*
X94284285Y-83961523D01*
X94741428Y-84190095D02*
X94474761Y-83390095D01*
X94474761Y-83390095D02*
X94208095Y-84190095D01*
X93789047Y-83390095D02*
X93712857Y-83390095D01*
X93712857Y-83390095D02*
X93636666Y-83428190D01*
X93636666Y-83428190D02*
X93598571Y-83466285D01*
X93598571Y-83466285D02*
X93560476Y-83542476D01*
X93560476Y-83542476D02*
X93522381Y-83694857D01*
X93522381Y-83694857D02*
X93522381Y-83885333D01*
X93522381Y-83885333D02*
X93560476Y-84037714D01*
X93560476Y-84037714D02*
X93598571Y-84113904D01*
X93598571Y-84113904D02*
X93636666Y-84152000D01*
X93636666Y-84152000D02*
X93712857Y-84190095D01*
X93712857Y-84190095D02*
X93789047Y-84190095D01*
X93789047Y-84190095D02*
X93865238Y-84152000D01*
X93865238Y-84152000D02*
X93903333Y-84113904D01*
X93903333Y-84113904D02*
X93941428Y-84037714D01*
X93941428Y-84037714D02*
X93979524Y-83885333D01*
X93979524Y-83885333D02*
X93979524Y-83694857D01*
X93979524Y-83694857D02*
X93941428Y-83542476D01*
X93941428Y-83542476D02*
X93903333Y-83466285D01*
X93903333Y-83466285D02*
X93865238Y-83428190D01*
X93865238Y-83428190D02*
X93789047Y-83390095D01*
X92608095Y-83352000D02*
X93293809Y-84380571D01*
X92341428Y-84190095D02*
X92341428Y-83390095D01*
X92341428Y-83390095D02*
X92036666Y-83390095D01*
X92036666Y-83390095D02*
X91960476Y-83428190D01*
X91960476Y-83428190D02*
X91922381Y-83466285D01*
X91922381Y-83466285D02*
X91884285Y-83542476D01*
X91884285Y-83542476D02*
X91884285Y-83656761D01*
X91884285Y-83656761D02*
X91922381Y-83732952D01*
X91922381Y-83732952D02*
X91960476Y-83771047D01*
X91960476Y-83771047D02*
X92036666Y-83809142D01*
X92036666Y-83809142D02*
X92341428Y-83809142D01*
X91274762Y-83771047D02*
X91160476Y-83809142D01*
X91160476Y-83809142D02*
X91122381Y-83847238D01*
X91122381Y-83847238D02*
X91084285Y-83923428D01*
X91084285Y-83923428D02*
X91084285Y-84037714D01*
X91084285Y-84037714D02*
X91122381Y-84113904D01*
X91122381Y-84113904D02*
X91160476Y-84152000D01*
X91160476Y-84152000D02*
X91236666Y-84190095D01*
X91236666Y-84190095D02*
X91541428Y-84190095D01*
X91541428Y-84190095D02*
X91541428Y-83390095D01*
X91541428Y-83390095D02*
X91274762Y-83390095D01*
X91274762Y-83390095D02*
X91198571Y-83428190D01*
X91198571Y-83428190D02*
X91160476Y-83466285D01*
X91160476Y-83466285D02*
X91122381Y-83542476D01*
X91122381Y-83542476D02*
X91122381Y-83618666D01*
X91122381Y-83618666D02*
X91160476Y-83694857D01*
X91160476Y-83694857D02*
X91198571Y-83732952D01*
X91198571Y-83732952D02*
X91274762Y-83771047D01*
X91274762Y-83771047D02*
X91541428Y-83771047D01*
X90817619Y-83390095D02*
X90284285Y-83390095D01*
X90284285Y-83390095D02*
X90627143Y-84190095D01*
X95884284Y-68111895D02*
X95884284Y-67311895D01*
X95884284Y-67311895D02*
X95579522Y-67311895D01*
X95579522Y-67311895D02*
X95503332Y-67349990D01*
X95503332Y-67349990D02*
X95465237Y-67388085D01*
X95465237Y-67388085D02*
X95427141Y-67464276D01*
X95427141Y-67464276D02*
X95427141Y-67578561D01*
X95427141Y-67578561D02*
X95465237Y-67654752D01*
X95465237Y-67654752D02*
X95503332Y-67692847D01*
X95503332Y-67692847D02*
X95579522Y-67730942D01*
X95579522Y-67730942D02*
X95884284Y-67730942D01*
X95084284Y-68111895D02*
X95084284Y-67311895D01*
X94246189Y-68035704D02*
X94284285Y-68073800D01*
X94284285Y-68073800D02*
X94398570Y-68111895D01*
X94398570Y-68111895D02*
X94474761Y-68111895D01*
X94474761Y-68111895D02*
X94589047Y-68073800D01*
X94589047Y-68073800D02*
X94665237Y-67997609D01*
X94665237Y-67997609D02*
X94703332Y-67921419D01*
X94703332Y-67921419D02*
X94741428Y-67769038D01*
X94741428Y-67769038D02*
X94741428Y-67654752D01*
X94741428Y-67654752D02*
X94703332Y-67502371D01*
X94703332Y-67502371D02*
X94665237Y-67426180D01*
X94665237Y-67426180D02*
X94589047Y-67349990D01*
X94589047Y-67349990D02*
X94474761Y-67311895D01*
X94474761Y-67311895D02*
X94398570Y-67311895D01*
X94398570Y-67311895D02*
X94284285Y-67349990D01*
X94284285Y-67349990D02*
X94246189Y-67388085D01*
X93750951Y-67311895D02*
X93598570Y-67311895D01*
X93598570Y-67311895D02*
X93522380Y-67349990D01*
X93522380Y-67349990D02*
X93446189Y-67426180D01*
X93446189Y-67426180D02*
X93408094Y-67578561D01*
X93408094Y-67578561D02*
X93408094Y-67845228D01*
X93408094Y-67845228D02*
X93446189Y-67997609D01*
X93446189Y-67997609D02*
X93522380Y-68073800D01*
X93522380Y-68073800D02*
X93598570Y-68111895D01*
X93598570Y-68111895D02*
X93750951Y-68111895D01*
X93750951Y-68111895D02*
X93827142Y-68073800D01*
X93827142Y-68073800D02*
X93903332Y-67997609D01*
X93903332Y-67997609D02*
X93941428Y-67845228D01*
X93941428Y-67845228D02*
X93941428Y-67578561D01*
X93941428Y-67578561D02*
X93903332Y-67426180D01*
X93903332Y-67426180D02*
X93827142Y-67349990D01*
X93827142Y-67349990D02*
X93750951Y-67311895D01*
X92493809Y-67273800D02*
X93179523Y-68302371D01*
X92227142Y-68111895D02*
X92227142Y-67311895D01*
X92227142Y-67311895D02*
X91922380Y-67311895D01*
X91922380Y-67311895D02*
X91846190Y-67349990D01*
X91846190Y-67349990D02*
X91808095Y-67388085D01*
X91808095Y-67388085D02*
X91769999Y-67464276D01*
X91769999Y-67464276D02*
X91769999Y-67578561D01*
X91769999Y-67578561D02*
X91808095Y-67654752D01*
X91808095Y-67654752D02*
X91846190Y-67692847D01*
X91846190Y-67692847D02*
X91922380Y-67730942D01*
X91922380Y-67730942D02*
X92227142Y-67730942D01*
X91465238Y-67883323D02*
X91084285Y-67883323D01*
X91541428Y-68111895D02*
X91274761Y-67311895D01*
X91274761Y-67311895D02*
X91008095Y-68111895D01*
X90817619Y-67311895D02*
X90284285Y-67311895D01*
X90284285Y-67311895D02*
X90627143Y-68111895D01*
X97674761Y-91010095D02*
X97674761Y-91657714D01*
X97674761Y-91657714D02*
X97636666Y-91733904D01*
X97636666Y-91733904D02*
X97598571Y-91772000D01*
X97598571Y-91772000D02*
X97522380Y-91810095D01*
X97522380Y-91810095D02*
X97369999Y-91810095D01*
X97369999Y-91810095D02*
X97293809Y-91772000D01*
X97293809Y-91772000D02*
X97255714Y-91733904D01*
X97255714Y-91733904D02*
X97217618Y-91657714D01*
X97217618Y-91657714D02*
X97217618Y-91010095D01*
X96874762Y-91772000D02*
X96760476Y-91810095D01*
X96760476Y-91810095D02*
X96570000Y-91810095D01*
X96570000Y-91810095D02*
X96493809Y-91772000D01*
X96493809Y-91772000D02*
X96455714Y-91733904D01*
X96455714Y-91733904D02*
X96417619Y-91657714D01*
X96417619Y-91657714D02*
X96417619Y-91581523D01*
X96417619Y-91581523D02*
X96455714Y-91505333D01*
X96455714Y-91505333D02*
X96493809Y-91467238D01*
X96493809Y-91467238D02*
X96570000Y-91429142D01*
X96570000Y-91429142D02*
X96722381Y-91391047D01*
X96722381Y-91391047D02*
X96798571Y-91352952D01*
X96798571Y-91352952D02*
X96836666Y-91314857D01*
X96836666Y-91314857D02*
X96874762Y-91238666D01*
X96874762Y-91238666D02*
X96874762Y-91162476D01*
X96874762Y-91162476D02*
X96836666Y-91086285D01*
X96836666Y-91086285D02*
X96798571Y-91048190D01*
X96798571Y-91048190D02*
X96722381Y-91010095D01*
X96722381Y-91010095D02*
X96531904Y-91010095D01*
X96531904Y-91010095D02*
X96417619Y-91048190D01*
X95808095Y-91391047D02*
X95693809Y-91429142D01*
X95693809Y-91429142D02*
X95655714Y-91467238D01*
X95655714Y-91467238D02*
X95617618Y-91543428D01*
X95617618Y-91543428D02*
X95617618Y-91657714D01*
X95617618Y-91657714D02*
X95655714Y-91733904D01*
X95655714Y-91733904D02*
X95693809Y-91772000D01*
X95693809Y-91772000D02*
X95769999Y-91810095D01*
X95769999Y-91810095D02*
X96074761Y-91810095D01*
X96074761Y-91810095D02*
X96074761Y-91010095D01*
X96074761Y-91010095D02*
X95808095Y-91010095D01*
X95808095Y-91010095D02*
X95731904Y-91048190D01*
X95731904Y-91048190D02*
X95693809Y-91086285D01*
X95693809Y-91086285D02*
X95655714Y-91162476D01*
X95655714Y-91162476D02*
X95655714Y-91238666D01*
X95655714Y-91238666D02*
X95693809Y-91314857D01*
X95693809Y-91314857D02*
X95731904Y-91352952D01*
X95731904Y-91352952D02*
X95808095Y-91391047D01*
X95808095Y-91391047D02*
X96074761Y-91391047D01*
X95465238Y-91886285D02*
X94855714Y-91886285D01*
X94665237Y-91810095D02*
X94665237Y-91010095D01*
X94665237Y-91010095D02*
X94208094Y-91810095D01*
X94208094Y-91810095D02*
X94208094Y-91010095D01*
X93255714Y-90972000D02*
X93941428Y-92000571D01*
X92989047Y-91810095D02*
X92989047Y-91010095D01*
X92989047Y-91010095D02*
X92684285Y-91010095D01*
X92684285Y-91010095D02*
X92608095Y-91048190D01*
X92608095Y-91048190D02*
X92570000Y-91086285D01*
X92570000Y-91086285D02*
X92531904Y-91162476D01*
X92531904Y-91162476D02*
X92531904Y-91276761D01*
X92531904Y-91276761D02*
X92570000Y-91352952D01*
X92570000Y-91352952D02*
X92608095Y-91391047D01*
X92608095Y-91391047D02*
X92684285Y-91429142D01*
X92684285Y-91429142D02*
X92989047Y-91429142D01*
X92227143Y-91581523D02*
X91846190Y-91581523D01*
X92303333Y-91810095D02*
X92036666Y-91010095D01*
X92036666Y-91010095D02*
X91770000Y-91810095D01*
X91084286Y-91810095D02*
X91541429Y-91810095D01*
X91312857Y-91810095D02*
X91312857Y-91010095D01*
X91312857Y-91010095D02*
X91389048Y-91124380D01*
X91389048Y-91124380D02*
X91465238Y-91200571D01*
X91465238Y-91200571D02*
X91541429Y-91238666D01*
X90322381Y-91810095D02*
X90779524Y-91810095D01*
X90550952Y-91810095D02*
X90550952Y-91010095D01*
X90550952Y-91010095D02*
X90627143Y-91124380D01*
X90627143Y-91124380D02*
X90703333Y-91200571D01*
X90703333Y-91200571D02*
X90779524Y-91238666D01*
X104965523Y-84190095D02*
X104965523Y-83390095D01*
X104965523Y-83390095D02*
X104775047Y-83390095D01*
X104775047Y-83390095D02*
X104660761Y-83428190D01*
X104660761Y-83428190D02*
X104584571Y-83504380D01*
X104584571Y-83504380D02*
X104546476Y-83580571D01*
X104546476Y-83580571D02*
X104508380Y-83732952D01*
X104508380Y-83732952D02*
X104508380Y-83847238D01*
X104508380Y-83847238D02*
X104546476Y-83999619D01*
X104546476Y-83999619D02*
X104584571Y-84075809D01*
X104584571Y-84075809D02*
X104660761Y-84152000D01*
X104660761Y-84152000D02*
X104775047Y-84190095D01*
X104775047Y-84190095D02*
X104965523Y-84190095D01*
X103746476Y-84190095D02*
X104203619Y-84190095D01*
X103975047Y-84190095D02*
X103975047Y-83390095D01*
X103975047Y-83390095D02*
X104051238Y-83504380D01*
X104051238Y-83504380D02*
X104127428Y-83580571D01*
X104127428Y-83580571D02*
X104203619Y-83618666D01*
X102832190Y-83352000D02*
X103517904Y-84380571D01*
X102565523Y-84190095D02*
X102565523Y-83390095D01*
X102565523Y-83390095D02*
X102260761Y-83390095D01*
X102260761Y-83390095D02*
X102184571Y-83428190D01*
X102184571Y-83428190D02*
X102146476Y-83466285D01*
X102146476Y-83466285D02*
X102108380Y-83542476D01*
X102108380Y-83542476D02*
X102108380Y-83656761D01*
X102108380Y-83656761D02*
X102146476Y-83732952D01*
X102146476Y-83732952D02*
X102184571Y-83771047D01*
X102184571Y-83771047D02*
X102260761Y-83809142D01*
X102260761Y-83809142D02*
X102565523Y-83809142D01*
X101308380Y-84113904D02*
X101346476Y-84152000D01*
X101346476Y-84152000D02*
X101460761Y-84190095D01*
X101460761Y-84190095D02*
X101536952Y-84190095D01*
X101536952Y-84190095D02*
X101651238Y-84152000D01*
X101651238Y-84152000D02*
X101727428Y-84075809D01*
X101727428Y-84075809D02*
X101765523Y-83999619D01*
X101765523Y-83999619D02*
X101803619Y-83847238D01*
X101803619Y-83847238D02*
X101803619Y-83732952D01*
X101803619Y-83732952D02*
X101765523Y-83580571D01*
X101765523Y-83580571D02*
X101727428Y-83504380D01*
X101727428Y-83504380D02*
X101651238Y-83428190D01*
X101651238Y-83428190D02*
X101536952Y-83390095D01*
X101536952Y-83390095D02*
X101460761Y-83390095D01*
X101460761Y-83390095D02*
X101346476Y-83428190D01*
X101346476Y-83428190D02*
X101308380Y-83466285D01*
X100546476Y-84190095D02*
X101003619Y-84190095D01*
X100775047Y-84190095D02*
X100775047Y-83390095D01*
X100775047Y-83390095D02*
X100851238Y-83504380D01*
X100851238Y-83504380D02*
X100927428Y-83580571D01*
X100927428Y-83580571D02*
X101003619Y-83618666D01*
X100051237Y-83390095D02*
X99975047Y-83390095D01*
X99975047Y-83390095D02*
X99898856Y-83428190D01*
X99898856Y-83428190D02*
X99860761Y-83466285D01*
X99860761Y-83466285D02*
X99822666Y-83542476D01*
X99822666Y-83542476D02*
X99784571Y-83694857D01*
X99784571Y-83694857D02*
X99784571Y-83885333D01*
X99784571Y-83885333D02*
X99822666Y-84037714D01*
X99822666Y-84037714D02*
X99860761Y-84113904D01*
X99860761Y-84113904D02*
X99898856Y-84152000D01*
X99898856Y-84152000D02*
X99975047Y-84190095D01*
X99975047Y-84190095D02*
X100051237Y-84190095D01*
X100051237Y-84190095D02*
X100127428Y-84152000D01*
X100127428Y-84152000D02*
X100165523Y-84113904D01*
X100165523Y-84113904D02*
X100203618Y-84037714D01*
X100203618Y-84037714D02*
X100241714Y-83885333D01*
X100241714Y-83885333D02*
X100241714Y-83694857D01*
X100241714Y-83694857D02*
X100203618Y-83542476D01*
X100203618Y-83542476D02*
X100165523Y-83466285D01*
X100165523Y-83466285D02*
X100127428Y-83428190D01*
X100127428Y-83428190D02*
X100051237Y-83390095D01*
X104965523Y-79872095D02*
X104965523Y-79072095D01*
X104965523Y-79072095D02*
X104660761Y-79072095D01*
X104660761Y-79072095D02*
X104584571Y-79110190D01*
X104584571Y-79110190D02*
X104546476Y-79148285D01*
X104546476Y-79148285D02*
X104508380Y-79224476D01*
X104508380Y-79224476D02*
X104508380Y-79338761D01*
X104508380Y-79338761D02*
X104546476Y-79414952D01*
X104546476Y-79414952D02*
X104584571Y-79453047D01*
X104584571Y-79453047D02*
X104660761Y-79491142D01*
X104660761Y-79491142D02*
X104965523Y-79491142D01*
X104241714Y-79072095D02*
X104051238Y-79872095D01*
X104051238Y-79872095D02*
X103898857Y-79300666D01*
X103898857Y-79300666D02*
X103746476Y-79872095D01*
X103746476Y-79872095D02*
X103556000Y-79072095D01*
X103251237Y-79872095D02*
X103251237Y-79072095D01*
X103251237Y-79072095D02*
X102984571Y-79643523D01*
X102984571Y-79643523D02*
X102717904Y-79072095D01*
X102717904Y-79072095D02*
X102717904Y-79872095D01*
X102184570Y-79072095D02*
X102108380Y-79072095D01*
X102108380Y-79072095D02*
X102032189Y-79110190D01*
X102032189Y-79110190D02*
X101994094Y-79148285D01*
X101994094Y-79148285D02*
X101955999Y-79224476D01*
X101955999Y-79224476D02*
X101917904Y-79376857D01*
X101917904Y-79376857D02*
X101917904Y-79567333D01*
X101917904Y-79567333D02*
X101955999Y-79719714D01*
X101955999Y-79719714D02*
X101994094Y-79795904D01*
X101994094Y-79795904D02*
X102032189Y-79834000D01*
X102032189Y-79834000D02*
X102108380Y-79872095D01*
X102108380Y-79872095D02*
X102184570Y-79872095D01*
X102184570Y-79872095D02*
X102260761Y-79834000D01*
X102260761Y-79834000D02*
X102298856Y-79795904D01*
X102298856Y-79795904D02*
X102336951Y-79719714D01*
X102336951Y-79719714D02*
X102375047Y-79567333D01*
X102375047Y-79567333D02*
X102375047Y-79376857D01*
X102375047Y-79376857D02*
X102336951Y-79224476D01*
X102336951Y-79224476D02*
X102298856Y-79148285D01*
X102298856Y-79148285D02*
X102260761Y-79110190D01*
X102260761Y-79110190D02*
X102184570Y-79072095D01*
X101003618Y-79034000D02*
X101689332Y-80062571D01*
X100736951Y-79872095D02*
X100736951Y-79072095D01*
X100736951Y-79072095D02*
X100432189Y-79072095D01*
X100432189Y-79072095D02*
X100355999Y-79110190D01*
X100355999Y-79110190D02*
X100317904Y-79148285D01*
X100317904Y-79148285D02*
X100279808Y-79224476D01*
X100279808Y-79224476D02*
X100279808Y-79338761D01*
X100279808Y-79338761D02*
X100317904Y-79414952D01*
X100317904Y-79414952D02*
X100355999Y-79453047D01*
X100355999Y-79453047D02*
X100432189Y-79491142D01*
X100432189Y-79491142D02*
X100736951Y-79491142D01*
X99936951Y-79872095D02*
X99936951Y-79072095D01*
X99936951Y-79072095D02*
X99746475Y-79072095D01*
X99746475Y-79072095D02*
X99632189Y-79110190D01*
X99632189Y-79110190D02*
X99555999Y-79186380D01*
X99555999Y-79186380D02*
X99517904Y-79262571D01*
X99517904Y-79262571D02*
X99479808Y-79414952D01*
X99479808Y-79414952D02*
X99479808Y-79529238D01*
X99479808Y-79529238D02*
X99517904Y-79681619D01*
X99517904Y-79681619D02*
X99555999Y-79757809D01*
X99555999Y-79757809D02*
X99632189Y-79834000D01*
X99632189Y-79834000D02*
X99746475Y-79872095D01*
X99746475Y-79872095D02*
X99936951Y-79872095D01*
X98717904Y-79872095D02*
X99175047Y-79872095D01*
X98946475Y-79872095D02*
X98946475Y-79072095D01*
X98946475Y-79072095D02*
X99022666Y-79186380D01*
X99022666Y-79186380D02*
X99098856Y-79262571D01*
X99098856Y-79262571D02*
X99175047Y-79300666D01*
X98032189Y-79338761D02*
X98032189Y-79872095D01*
X98222665Y-79034000D02*
X98413142Y-79605428D01*
X98413142Y-79605428D02*
X97917903Y-79605428D01*
X94665238Y-81421523D02*
X94284285Y-81421523D01*
X94741428Y-81650095D02*
X94474761Y-80850095D01*
X94474761Y-80850095D02*
X94208095Y-81650095D01*
X93789047Y-80850095D02*
X93712857Y-80850095D01*
X93712857Y-80850095D02*
X93636666Y-80888190D01*
X93636666Y-80888190D02*
X93598571Y-80926285D01*
X93598571Y-80926285D02*
X93560476Y-81002476D01*
X93560476Y-81002476D02*
X93522381Y-81154857D01*
X93522381Y-81154857D02*
X93522381Y-81345333D01*
X93522381Y-81345333D02*
X93560476Y-81497714D01*
X93560476Y-81497714D02*
X93598571Y-81573904D01*
X93598571Y-81573904D02*
X93636666Y-81612000D01*
X93636666Y-81612000D02*
X93712857Y-81650095D01*
X93712857Y-81650095D02*
X93789047Y-81650095D01*
X93789047Y-81650095D02*
X93865238Y-81612000D01*
X93865238Y-81612000D02*
X93903333Y-81573904D01*
X93903333Y-81573904D02*
X93941428Y-81497714D01*
X93941428Y-81497714D02*
X93979524Y-81345333D01*
X93979524Y-81345333D02*
X93979524Y-81154857D01*
X93979524Y-81154857D02*
X93941428Y-81002476D01*
X93941428Y-81002476D02*
X93903333Y-80926285D01*
X93903333Y-80926285D02*
X93865238Y-80888190D01*
X93865238Y-80888190D02*
X93789047Y-80850095D01*
X92608095Y-80812000D02*
X93293809Y-81840571D01*
X92341428Y-81650095D02*
X92341428Y-80850095D01*
X92341428Y-80850095D02*
X92036666Y-80850095D01*
X92036666Y-80850095D02*
X91960476Y-80888190D01*
X91960476Y-80888190D02*
X91922381Y-80926285D01*
X91922381Y-80926285D02*
X91884285Y-81002476D01*
X91884285Y-81002476D02*
X91884285Y-81116761D01*
X91884285Y-81116761D02*
X91922381Y-81192952D01*
X91922381Y-81192952D02*
X91960476Y-81231047D01*
X91960476Y-81231047D02*
X92036666Y-81269142D01*
X92036666Y-81269142D02*
X92341428Y-81269142D01*
X91084285Y-81573904D02*
X91122381Y-81612000D01*
X91122381Y-81612000D02*
X91236666Y-81650095D01*
X91236666Y-81650095D02*
X91312857Y-81650095D01*
X91312857Y-81650095D02*
X91427143Y-81612000D01*
X91427143Y-81612000D02*
X91503333Y-81535809D01*
X91503333Y-81535809D02*
X91541428Y-81459619D01*
X91541428Y-81459619D02*
X91579524Y-81307238D01*
X91579524Y-81307238D02*
X91579524Y-81192952D01*
X91579524Y-81192952D02*
X91541428Y-81040571D01*
X91541428Y-81040571D02*
X91503333Y-80964380D01*
X91503333Y-80964380D02*
X91427143Y-80888190D01*
X91427143Y-80888190D02*
X91312857Y-80850095D01*
X91312857Y-80850095D02*
X91236666Y-80850095D01*
X91236666Y-80850095D02*
X91122381Y-80888190D01*
X91122381Y-80888190D02*
X91084285Y-80926285D01*
X90779524Y-80926285D02*
X90741428Y-80888190D01*
X90741428Y-80888190D02*
X90665238Y-80850095D01*
X90665238Y-80850095D02*
X90474762Y-80850095D01*
X90474762Y-80850095D02*
X90398571Y-80888190D01*
X90398571Y-80888190D02*
X90360476Y-80926285D01*
X90360476Y-80926285D02*
X90322381Y-81002476D01*
X90322381Y-81002476D02*
X90322381Y-81078666D01*
X90322381Y-81078666D02*
X90360476Y-81192952D01*
X90360476Y-81192952D02*
X90817619Y-81650095D01*
X90817619Y-81650095D02*
X90322381Y-81650095D01*
X94169999Y-76493904D02*
X94208095Y-76532000D01*
X94208095Y-76532000D02*
X94322380Y-76570095D01*
X94322380Y-76570095D02*
X94398571Y-76570095D01*
X94398571Y-76570095D02*
X94512857Y-76532000D01*
X94512857Y-76532000D02*
X94589047Y-76455809D01*
X94589047Y-76455809D02*
X94627142Y-76379619D01*
X94627142Y-76379619D02*
X94665238Y-76227238D01*
X94665238Y-76227238D02*
X94665238Y-76112952D01*
X94665238Y-76112952D02*
X94627142Y-75960571D01*
X94627142Y-75960571D02*
X94589047Y-75884380D01*
X94589047Y-75884380D02*
X94512857Y-75808190D01*
X94512857Y-75808190D02*
X94398571Y-75770095D01*
X94398571Y-75770095D02*
X94322380Y-75770095D01*
X94322380Y-75770095D02*
X94208095Y-75808190D01*
X94208095Y-75808190D02*
X94169999Y-75846285D01*
X93865238Y-76532000D02*
X93750952Y-76570095D01*
X93750952Y-76570095D02*
X93560476Y-76570095D01*
X93560476Y-76570095D02*
X93484285Y-76532000D01*
X93484285Y-76532000D02*
X93446190Y-76493904D01*
X93446190Y-76493904D02*
X93408095Y-76417714D01*
X93408095Y-76417714D02*
X93408095Y-76341523D01*
X93408095Y-76341523D02*
X93446190Y-76265333D01*
X93446190Y-76265333D02*
X93484285Y-76227238D01*
X93484285Y-76227238D02*
X93560476Y-76189142D01*
X93560476Y-76189142D02*
X93712857Y-76151047D01*
X93712857Y-76151047D02*
X93789047Y-76112952D01*
X93789047Y-76112952D02*
X93827142Y-76074857D01*
X93827142Y-76074857D02*
X93865238Y-75998666D01*
X93865238Y-75998666D02*
X93865238Y-75922476D01*
X93865238Y-75922476D02*
X93827142Y-75846285D01*
X93827142Y-75846285D02*
X93789047Y-75808190D01*
X93789047Y-75808190D02*
X93712857Y-75770095D01*
X93712857Y-75770095D02*
X93522380Y-75770095D01*
X93522380Y-75770095D02*
X93408095Y-75808190D01*
X94737619Y-75412000D02*
X93335714Y-75412000D01*
X92493809Y-75732000D02*
X93179523Y-76760571D01*
X92227142Y-76570095D02*
X92227142Y-75770095D01*
X92227142Y-75770095D02*
X91922380Y-75770095D01*
X91922380Y-75770095D02*
X91846190Y-75808190D01*
X91846190Y-75808190D02*
X91808095Y-75846285D01*
X91808095Y-75846285D02*
X91769999Y-75922476D01*
X91769999Y-75922476D02*
X91769999Y-76036761D01*
X91769999Y-76036761D02*
X91808095Y-76112952D01*
X91808095Y-76112952D02*
X91846190Y-76151047D01*
X91846190Y-76151047D02*
X91922380Y-76189142D01*
X91922380Y-76189142D02*
X92227142Y-76189142D01*
X91465238Y-76341523D02*
X91084285Y-76341523D01*
X91541428Y-76570095D02*
X91274761Y-75770095D01*
X91274761Y-75770095D02*
X91008095Y-76570095D01*
X90398571Y-76036761D02*
X90398571Y-76570095D01*
X90589047Y-75732000D02*
X90779524Y-76303428D01*
X90779524Y-76303428D02*
X90284285Y-76303428D01*
X104546476Y-70728190D02*
X104622666Y-70690095D01*
X104622666Y-70690095D02*
X104736952Y-70690095D01*
X104736952Y-70690095D02*
X104851238Y-70728190D01*
X104851238Y-70728190D02*
X104927428Y-70804380D01*
X104927428Y-70804380D02*
X104965523Y-70880571D01*
X104965523Y-70880571D02*
X105003619Y-71032952D01*
X105003619Y-71032952D02*
X105003619Y-71147238D01*
X105003619Y-71147238D02*
X104965523Y-71299619D01*
X104965523Y-71299619D02*
X104927428Y-71375809D01*
X104927428Y-71375809D02*
X104851238Y-71452000D01*
X104851238Y-71452000D02*
X104736952Y-71490095D01*
X104736952Y-71490095D02*
X104660761Y-71490095D01*
X104660761Y-71490095D02*
X104546476Y-71452000D01*
X104546476Y-71452000D02*
X104508380Y-71413904D01*
X104508380Y-71413904D02*
X104508380Y-71147238D01*
X104508380Y-71147238D02*
X104660761Y-71147238D01*
X104165523Y-71490095D02*
X104165523Y-70690095D01*
X104165523Y-70690095D02*
X103708380Y-71490095D01*
X103708380Y-71490095D02*
X103708380Y-70690095D01*
X103327428Y-71490095D02*
X103327428Y-70690095D01*
X103327428Y-70690095D02*
X103136952Y-70690095D01*
X103136952Y-70690095D02*
X103022666Y-70728190D01*
X103022666Y-70728190D02*
X102946476Y-70804380D01*
X102946476Y-70804380D02*
X102908381Y-70880571D01*
X102908381Y-70880571D02*
X102870285Y-71032952D01*
X102870285Y-71032952D02*
X102870285Y-71147238D01*
X102870285Y-71147238D02*
X102908381Y-71299619D01*
X102908381Y-71299619D02*
X102946476Y-71375809D01*
X102946476Y-71375809D02*
X103022666Y-71452000D01*
X103022666Y-71452000D02*
X103136952Y-71490095D01*
X103136952Y-71490095D02*
X103327428Y-71490095D01*
X104965523Y-89270095D02*
X104965523Y-88470095D01*
X104965523Y-88470095D02*
X104775047Y-88470095D01*
X104775047Y-88470095D02*
X104660761Y-88508190D01*
X104660761Y-88508190D02*
X104584571Y-88584380D01*
X104584571Y-88584380D02*
X104546476Y-88660571D01*
X104546476Y-88660571D02*
X104508380Y-88812952D01*
X104508380Y-88812952D02*
X104508380Y-88927238D01*
X104508380Y-88927238D02*
X104546476Y-89079619D01*
X104546476Y-89079619D02*
X104584571Y-89155809D01*
X104584571Y-89155809D02*
X104660761Y-89232000D01*
X104660761Y-89232000D02*
X104775047Y-89270095D01*
X104775047Y-89270095D02*
X104965523Y-89270095D01*
X104241714Y-88470095D02*
X103746476Y-88470095D01*
X103746476Y-88470095D02*
X104013142Y-88774857D01*
X104013142Y-88774857D02*
X103898857Y-88774857D01*
X103898857Y-88774857D02*
X103822666Y-88812952D01*
X103822666Y-88812952D02*
X103784571Y-88851047D01*
X103784571Y-88851047D02*
X103746476Y-88927238D01*
X103746476Y-88927238D02*
X103746476Y-89117714D01*
X103746476Y-89117714D02*
X103784571Y-89193904D01*
X103784571Y-89193904D02*
X103822666Y-89232000D01*
X103822666Y-89232000D02*
X103898857Y-89270095D01*
X103898857Y-89270095D02*
X104127428Y-89270095D01*
X104127428Y-89270095D02*
X104203619Y-89232000D01*
X104203619Y-89232000D02*
X104241714Y-89193904D01*
X102832190Y-88432000D02*
X103517904Y-89460571D01*
X102565523Y-89270095D02*
X102565523Y-88470095D01*
X102565523Y-88470095D02*
X102260761Y-88470095D01*
X102260761Y-88470095D02*
X102184571Y-88508190D01*
X102184571Y-88508190D02*
X102146476Y-88546285D01*
X102146476Y-88546285D02*
X102108380Y-88622476D01*
X102108380Y-88622476D02*
X102108380Y-88736761D01*
X102108380Y-88736761D02*
X102146476Y-88812952D01*
X102146476Y-88812952D02*
X102184571Y-88851047D01*
X102184571Y-88851047D02*
X102260761Y-88889142D01*
X102260761Y-88889142D02*
X102565523Y-88889142D01*
X101308380Y-89193904D02*
X101346476Y-89232000D01*
X101346476Y-89232000D02*
X101460761Y-89270095D01*
X101460761Y-89270095D02*
X101536952Y-89270095D01*
X101536952Y-89270095D02*
X101651238Y-89232000D01*
X101651238Y-89232000D02*
X101727428Y-89155809D01*
X101727428Y-89155809D02*
X101765523Y-89079619D01*
X101765523Y-89079619D02*
X101803619Y-88927238D01*
X101803619Y-88927238D02*
X101803619Y-88812952D01*
X101803619Y-88812952D02*
X101765523Y-88660571D01*
X101765523Y-88660571D02*
X101727428Y-88584380D01*
X101727428Y-88584380D02*
X101651238Y-88508190D01*
X101651238Y-88508190D02*
X101536952Y-88470095D01*
X101536952Y-88470095D02*
X101460761Y-88470095D01*
X101460761Y-88470095D02*
X101346476Y-88508190D01*
X101346476Y-88508190D02*
X101308380Y-88546285D01*
X100546476Y-89270095D02*
X101003619Y-89270095D01*
X100775047Y-89270095D02*
X100775047Y-88470095D01*
X100775047Y-88470095D02*
X100851238Y-88584380D01*
X100851238Y-88584380D02*
X100927428Y-88660571D01*
X100927428Y-88660571D02*
X101003619Y-88698666D01*
X100241714Y-88546285D02*
X100203618Y-88508190D01*
X100203618Y-88508190D02*
X100127428Y-88470095D01*
X100127428Y-88470095D02*
X99936952Y-88470095D01*
X99936952Y-88470095D02*
X99860761Y-88508190D01*
X99860761Y-88508190D02*
X99822666Y-88546285D01*
X99822666Y-88546285D02*
X99784571Y-88622476D01*
X99784571Y-88622476D02*
X99784571Y-88698666D01*
X99784571Y-88698666D02*
X99822666Y-88812952D01*
X99822666Y-88812952D02*
X100279809Y-89270095D01*
X100279809Y-89270095D02*
X99784571Y-89270095D01*
%TO.C,REF\u002A\u002A*%
D11*
X98272971Y-56417822D02*
X94752178Y-56417822D01*
X94752178Y-55550198D01*
X98272971Y-55550198D01*
X98272971Y-56417822D01*
G36*
X98272971Y-56417822D02*
G01*
X94752178Y-56417822D01*
X94752178Y-55550198D01*
X98272971Y-55550198D01*
X98272971Y-56417822D01*
G37*
X97241894Y-50875718D02*
X97242388Y-50888668D01*
X97248819Y-50910411D01*
X97267123Y-50928851D01*
X97302830Y-50950801D01*
X97334174Y-50970854D01*
X97381893Y-51009356D01*
X97425138Y-51052579D01*
X97458219Y-51094627D01*
X97475442Y-51129604D01*
X97479662Y-51143081D01*
X97487480Y-51152334D01*
X97490116Y-51155454D01*
X97511662Y-51160696D01*
X97551314Y-51161782D01*
X97619109Y-51161782D01*
X97619109Y-51274951D01*
X97459577Y-51274951D01*
X97444682Y-51452732D01*
X97442682Y-51477037D01*
X97438023Y-51537880D01*
X97434731Y-51587389D01*
X97433092Y-51620992D01*
X97433390Y-51634116D01*
X97437724Y-51630343D01*
X97457496Y-51610676D01*
X97491679Y-51575818D01*
X97538541Y-51527576D01*
X97596354Y-51467757D01*
X97663387Y-51398167D01*
X97737912Y-51320615D01*
X97818197Y-51236907D01*
X97902513Y-51148849D01*
X97989130Y-51058250D01*
X98076319Y-50966915D01*
X98162349Y-50876653D01*
X98245492Y-50789269D01*
X98324016Y-50706572D01*
X98396192Y-50630368D01*
X98460291Y-50562463D01*
X98514583Y-50504666D01*
X98611592Y-50401040D01*
X98612034Y-50489315D01*
X98612475Y-50577589D01*
X98011938Y-51209158D01*
X97411401Y-51840726D01*
X97399396Y-51984674D01*
X97351365Y-52560635D01*
X97342876Y-52662791D01*
X97332343Y-52790612D01*
X97322621Y-52909767D01*
X97313898Y-53017914D01*
X97306358Y-53112713D01*
X97300187Y-53191819D01*
X97295573Y-53252892D01*
X97292700Y-53293590D01*
X97291754Y-53311570D01*
X97294251Y-53319808D01*
X97305471Y-53337599D01*
X97326751Y-53364411D01*
X97337021Y-53376129D01*
X97359225Y-53401466D01*
X97404023Y-53449986D01*
X97462281Y-53511192D01*
X97535129Y-53586307D01*
X97623703Y-53676550D01*
X97729134Y-53783145D01*
X97798492Y-53853093D01*
X97895179Y-53950658D01*
X97991526Y-54047941D01*
X98084638Y-54142014D01*
X98171618Y-54229950D01*
X98249569Y-54308820D01*
X98315596Y-54375699D01*
X98366802Y-54427658D01*
X98567514Y-54631620D01*
X98531058Y-54669671D01*
X98522460Y-54678245D01*
X98497095Y-54699297D01*
X98479695Y-54707723D01*
X98466071Y-54700530D01*
X98440743Y-54678944D01*
X98410379Y-54647995D01*
X98391896Y-54628448D01*
X98357427Y-54592752D01*
X98308712Y-54542684D01*
X98247469Y-54480001D01*
X98175420Y-54406457D01*
X98094285Y-54323810D01*
X98005784Y-54233815D01*
X97911637Y-54138228D01*
X97813565Y-54038805D01*
X97271161Y-53489343D01*
X97249066Y-53774746D01*
X97244250Y-53835662D01*
X97237216Y-53917548D01*
X97230872Y-53979569D01*
X97224748Y-54024987D01*
X97218373Y-54057062D01*
X97211277Y-54079052D01*
X97202991Y-54094219D01*
X97191393Y-54115416D01*
X97181850Y-54154386D01*
X97179010Y-54210531D01*
X97179010Y-54292773D01*
X96952674Y-54292773D01*
X96952674Y-54116733D01*
X96107082Y-54116733D01*
X96058203Y-54172262D01*
X96044836Y-54186722D01*
X95972388Y-54244813D01*
X95890532Y-54280576D01*
X95801900Y-54292773D01*
X95723692Y-54286306D01*
X95635233Y-54259047D01*
X95559507Y-54210328D01*
X95544748Y-54196403D01*
X95507864Y-54151328D01*
X95475503Y-54098819D01*
X95452297Y-54047061D01*
X95442879Y-54004239D01*
X95442697Y-53998023D01*
X95441342Y-53975246D01*
X95437800Y-53959513D01*
X95430390Y-53952068D01*
X95417431Y-53954156D01*
X95397243Y-53967020D01*
X95368145Y-53991905D01*
X95328456Y-54030053D01*
X95276496Y-54082710D01*
X95210584Y-54151119D01*
X95129040Y-54236524D01*
X95085604Y-54282112D01*
X95013000Y-54358441D01*
X94944309Y-54430808D01*
X94882223Y-54496366D01*
X94829434Y-54552274D01*
X94788634Y-54595686D01*
X94762515Y-54623758D01*
X94691119Y-54701436D01*
X94602863Y-54613416D01*
X95148690Y-54041287D01*
X95183105Y-54005188D01*
X95305546Y-53876272D01*
X95410651Y-53764754D01*
X95498736Y-53670288D01*
X95570116Y-53592529D01*
X95620588Y-53536174D01*
X95827247Y-53536174D01*
X95828872Y-53549434D01*
X95829156Y-53550819D01*
X95842698Y-53582228D01*
X95869748Y-53596863D01*
X95953129Y-53628063D01*
X96027418Y-53680038D01*
X96085846Y-53748791D01*
X96125890Y-53831315D01*
X96145026Y-53924606D01*
X96151364Y-54003565D01*
X97100838Y-54003565D01*
X97107458Y-53975273D01*
X97108629Y-53968329D01*
X97112268Y-53937281D01*
X97117234Y-53887081D01*
X97123157Y-53821727D01*
X97129669Y-53745219D01*
X97136401Y-53661555D01*
X97158724Y-53376129D01*
X96857826Y-53070565D01*
X96802636Y-53014704D01*
X96735109Y-52946888D01*
X96674529Y-52886643D01*
X96623021Y-52836052D01*
X96582710Y-52797200D01*
X96555722Y-52772170D01*
X96544182Y-52763046D01*
X96536444Y-52767405D01*
X96513395Y-52787241D01*
X96478709Y-52820375D01*
X96435487Y-52863820D01*
X96386832Y-52914587D01*
X96374140Y-52928051D01*
X96317229Y-52988275D01*
X96249414Y-53059864D01*
X96175800Y-53137437D01*
X96101493Y-53215611D01*
X96031599Y-53289005D01*
X96027401Y-53293409D01*
X95962420Y-53361785D01*
X95912836Y-53414732D01*
X95876688Y-53454767D01*
X95852016Y-53484411D01*
X95836858Y-53506181D01*
X95829256Y-53522595D01*
X95827247Y-53536174D01*
X95620588Y-53536174D01*
X95625105Y-53531131D01*
X95664019Y-53485748D01*
X95687173Y-53456035D01*
X95694882Y-53441644D01*
X95694883Y-53441559D01*
X95693825Y-53423624D01*
X95690737Y-53383421D01*
X95685858Y-53323687D01*
X95679432Y-53247158D01*
X95671700Y-53156569D01*
X95662905Y-53054657D01*
X95653287Y-52944159D01*
X95643091Y-52827811D01*
X95632556Y-52708348D01*
X95621926Y-52588507D01*
X95611442Y-52471025D01*
X95601346Y-52358637D01*
X95591881Y-52254081D01*
X95583288Y-52160091D01*
X95575809Y-52079405D01*
X95569687Y-52014759D01*
X95565162Y-51968888D01*
X95562478Y-51944530D01*
X95557067Y-51903732D01*
X95686253Y-51903732D01*
X95687908Y-51934653D01*
X95691549Y-51986653D01*
X95696995Y-52057487D01*
X95704063Y-52144911D01*
X95712570Y-52246681D01*
X95722335Y-52360552D01*
X95733174Y-52484279D01*
X95744907Y-52615618D01*
X95754079Y-52716908D01*
X95765566Y-52842526D01*
X95776322Y-52958762D01*
X95786131Y-53063380D01*
X95794781Y-53154140D01*
X95802057Y-53228804D01*
X95807746Y-53285134D01*
X95811634Y-53320891D01*
X95813506Y-53333837D01*
X95819188Y-53329826D01*
X95840020Y-53310138D01*
X95873872Y-53276322D01*
X95918412Y-53230837D01*
X95971310Y-53176146D01*
X96030236Y-53114710D01*
X96092858Y-53048990D01*
X96156848Y-52981449D01*
X96219874Y-52914547D01*
X96279606Y-52850746D01*
X96333713Y-52792507D01*
X96379865Y-52742292D01*
X96415733Y-52702563D01*
X96438984Y-52675780D01*
X96445778Y-52666477D01*
X96627601Y-52666477D01*
X96903305Y-52941968D01*
X96970726Y-53009224D01*
X97034267Y-53072162D01*
X97083490Y-53120100D01*
X97120196Y-53154594D01*
X97146190Y-53177199D01*
X97163276Y-53189471D01*
X97173256Y-53192966D01*
X97177935Y-53189238D01*
X97179116Y-53179844D01*
X97179873Y-53164749D01*
X97182601Y-53125883D01*
X97187108Y-53066895D01*
X97193179Y-52990473D01*
X97200596Y-52899305D01*
X97209142Y-52796080D01*
X97218602Y-52683483D01*
X97228758Y-52564205D01*
X97237723Y-52459077D01*
X97247066Y-52348351D01*
X97255443Y-52247814D01*
X97262653Y-52159943D01*
X97268496Y-52087215D01*
X97272769Y-52032110D01*
X97275273Y-51997104D01*
X97275805Y-51984674D01*
X97275384Y-51984908D01*
X97263509Y-51996350D01*
X97237130Y-52023198D01*
X97198570Y-52063018D01*
X97150153Y-52113372D01*
X97094203Y-52171828D01*
X97033042Y-52235948D01*
X96968995Y-52303298D01*
X96904385Y-52371443D01*
X96841535Y-52437948D01*
X96782768Y-52500377D01*
X96730409Y-52556295D01*
X96629533Y-52664406D01*
X96627601Y-52666477D01*
X96445778Y-52666477D01*
X96447290Y-52664406D01*
X96439148Y-52653383D01*
X96415478Y-52626999D01*
X96378478Y-52587527D01*
X96330350Y-52537191D01*
X96273296Y-52478217D01*
X96209520Y-52412830D01*
X96141222Y-52343255D01*
X96070605Y-52271716D01*
X95999871Y-52200438D01*
X95931222Y-52131647D01*
X95866861Y-52067566D01*
X95808989Y-52010422D01*
X95759810Y-51962439D01*
X95721524Y-51925841D01*
X95696334Y-51902854D01*
X95686442Y-51895703D01*
X95686253Y-51903732D01*
X95557067Y-51903732D01*
X95555390Y-51891089D01*
X95280297Y-51891089D01*
X95280140Y-51790495D01*
X95380891Y-51790495D01*
X95462624Y-51790495D01*
X95469895Y-51790489D01*
X95510950Y-51789613D01*
X95533277Y-51785867D01*
X95542529Y-51777270D01*
X95544357Y-51761840D01*
X95536306Y-51739159D01*
X95508730Y-51701428D01*
X95462624Y-51652179D01*
X95380891Y-51571172D01*
X95380891Y-51790495D01*
X95280140Y-51790495D01*
X95279968Y-51680471D01*
X95279639Y-51469852D01*
X94827914Y-51010891D01*
X94376189Y-50551931D01*
X94375570Y-50464848D01*
X94374951Y-50377767D01*
X94916769Y-50926952D01*
X94969137Y-50979998D01*
X95077803Y-51089772D01*
X95170709Y-51183114D01*
X95249055Y-51261173D01*
X95314043Y-51325097D01*
X95366872Y-51376035D01*
X95408743Y-51415135D01*
X95440855Y-51443548D01*
X95464410Y-51462420D01*
X95480608Y-51472901D01*
X95490649Y-51476139D01*
X95507579Y-51475158D01*
X95517084Y-51467996D01*
X95518723Y-51448401D01*
X95514782Y-51410124D01*
X95512065Y-51386025D01*
X95508284Y-51345744D01*
X95506760Y-51318961D01*
X95506015Y-51309728D01*
X95498746Y-51299839D01*
X95478668Y-51296562D01*
X95439689Y-51297992D01*
X95429737Y-51298553D01*
X95389898Y-51297921D01*
X95361560Y-51289167D01*
X95341586Y-51274951D01*
X95624852Y-51274951D01*
X95629013Y-51322104D01*
X95630935Y-51343498D01*
X95636924Y-51401909D01*
X95642826Y-51440381D01*
X95649727Y-51462912D01*
X95658712Y-51473498D01*
X95670870Y-51476139D01*
X95681801Y-51477937D01*
X95689050Y-51486530D01*
X95693100Y-51506505D01*
X95694863Y-51542450D01*
X95695248Y-51598952D01*
X95695248Y-51721766D01*
X95735447Y-51761840D01*
X95833565Y-51859654D01*
X95971881Y-51997542D01*
X95971881Y-51891089D01*
X96726337Y-51891089D01*
X96726337Y-52130000D01*
X96107831Y-52130000D01*
X96317592Y-52346906D01*
X96357770Y-52388334D01*
X96413328Y-52445200D01*
X96461570Y-52494082D01*
X96499971Y-52532441D01*
X96526003Y-52557741D01*
X96537140Y-52567442D01*
X96541373Y-52564767D01*
X96561224Y-52546782D01*
X96595451Y-52513481D01*
X96642227Y-52466712D01*
X96699724Y-52408325D01*
X96766112Y-52340169D01*
X96839564Y-52264094D01*
X96918251Y-52181950D01*
X96997341Y-52098943D01*
X97074871Y-52017136D01*
X97137746Y-51950083D01*
X97187502Y-51896007D01*
X97225678Y-51853129D01*
X97253811Y-51819673D01*
X97273440Y-51793861D01*
X97286101Y-51773914D01*
X97293334Y-51758056D01*
X97296675Y-51744509D01*
X97297561Y-51737910D01*
X97301488Y-51701548D01*
X97306459Y-51648018D01*
X97311927Y-51583421D01*
X97317344Y-51513862D01*
X97319181Y-51489635D01*
X97324488Y-51424178D01*
X97329548Y-51367717D01*
X97333863Y-51325618D01*
X97336934Y-51303243D01*
X97342955Y-51274951D01*
X95624852Y-51274951D01*
X95341586Y-51274951D01*
X95333630Y-51269289D01*
X95328820Y-51265104D01*
X95289482Y-51214427D01*
X95273903Y-51161782D01*
X95614698Y-51161782D01*
X97029221Y-51161782D01*
X97241881Y-51161782D01*
X97298908Y-51161782D01*
X97315993Y-51161662D01*
X97341308Y-51159462D01*
X97348616Y-51152334D01*
X97342943Y-51137508D01*
X97341267Y-51134682D01*
X97322448Y-51112944D01*
X97295183Y-51088820D01*
X97267987Y-51069254D01*
X97249371Y-51061188D01*
X97247697Y-51062463D01*
X97243544Y-51079976D01*
X97241881Y-51111485D01*
X97241881Y-51161782D01*
X97029221Y-51161782D01*
X97025526Y-51071095D01*
X97021832Y-50980407D01*
X96946386Y-50965252D01*
X96908551Y-50958379D01*
X96845368Y-50948756D01*
X96786065Y-50941496D01*
X96701188Y-50932893D01*
X96701188Y-51036040D01*
X96122773Y-51036040D01*
X96122773Y-50945122D01*
X96050471Y-50953753D01*
X95939998Y-50972249D01*
X95828816Y-51005691D01*
X95736850Y-51052324D01*
X95662542Y-51112786D01*
X95614698Y-51161782D01*
X95273903Y-51161782D01*
X95272172Y-51155934D01*
X95277474Y-51094575D01*
X95305975Y-51035297D01*
X95308733Y-51031606D01*
X95346822Y-50999851D01*
X95396476Y-50981067D01*
X95450002Y-50976071D01*
X95499707Y-50985678D01*
X95537900Y-51010704D01*
X95550831Y-51023480D01*
X95563428Y-51026576D01*
X95581467Y-51016998D01*
X95611928Y-50993082D01*
X95621274Y-50985731D01*
X95693430Y-50939339D01*
X95701497Y-50935446D01*
X96223367Y-50935446D01*
X96600594Y-50935446D01*
X96600594Y-50872575D01*
X96223367Y-50872575D01*
X96223367Y-50935446D01*
X95701497Y-50935446D01*
X95778915Y-50898084D01*
X95869767Y-50864936D01*
X95958027Y-50842868D01*
X96035736Y-50834852D01*
X96043991Y-50834788D01*
X96089879Y-50830321D01*
X96115079Y-50817795D01*
X96122773Y-50795784D01*
X96123676Y-50788849D01*
X96128615Y-50782885D01*
X96140611Y-50778519D01*
X96162680Y-50775503D01*
X96197836Y-50773590D01*
X96249094Y-50772530D01*
X96319471Y-50772077D01*
X96411980Y-50771980D01*
X96498660Y-50772150D01*
X96572332Y-50772834D01*
X96626265Y-50774215D01*
X96663288Y-50776470D01*
X96686230Y-50779778D01*
X96697920Y-50784320D01*
X96701188Y-50790272D01*
X96711937Y-50804888D01*
X96742055Y-50814215D01*
X96753582Y-50815847D01*
X96792886Y-50821591D01*
X96845188Y-50829378D01*
X96902376Y-50838003D01*
X96933916Y-50842393D01*
X96980074Y-50847148D01*
X97012641Y-50848295D01*
X97026023Y-50845495D01*
X97028308Y-50843671D01*
X97049405Y-50839165D01*
X97087355Y-50836029D01*
X97136048Y-50834852D01*
X97241881Y-50834852D01*
X97241894Y-50872575D01*
X97241894Y-50875718D01*
G36*
X97241894Y-50875718D02*
G01*
X97242388Y-50888668D01*
X97248819Y-50910411D01*
X97267123Y-50928851D01*
X97302830Y-50950801D01*
X97334174Y-50970854D01*
X97381893Y-51009356D01*
X97425138Y-51052579D01*
X97458219Y-51094627D01*
X97475442Y-51129604D01*
X97479662Y-51143081D01*
X97487480Y-51152334D01*
X97490116Y-51155454D01*
X97511662Y-51160696D01*
X97551314Y-51161782D01*
X97619109Y-51161782D01*
X97619109Y-51274951D01*
X97459577Y-51274951D01*
X97444682Y-51452732D01*
X97442682Y-51477037D01*
X97438023Y-51537880D01*
X97434731Y-51587389D01*
X97433092Y-51620992D01*
X97433390Y-51634116D01*
X97437724Y-51630343D01*
X97457496Y-51610676D01*
X97491679Y-51575818D01*
X97538541Y-51527576D01*
X97596354Y-51467757D01*
X97663387Y-51398167D01*
X97737912Y-51320615D01*
X97818197Y-51236907D01*
X97902513Y-51148849D01*
X97989130Y-51058250D01*
X98076319Y-50966915D01*
X98162349Y-50876653D01*
X98245492Y-50789269D01*
X98324016Y-50706572D01*
X98396192Y-50630368D01*
X98460291Y-50562463D01*
X98514583Y-50504666D01*
X98611592Y-50401040D01*
X98612034Y-50489315D01*
X98612475Y-50577589D01*
X98011938Y-51209158D01*
X97411401Y-51840726D01*
X97399396Y-51984674D01*
X97351365Y-52560635D01*
X97342876Y-52662791D01*
X97332343Y-52790612D01*
X97322621Y-52909767D01*
X97313898Y-53017914D01*
X97306358Y-53112713D01*
X97300187Y-53191819D01*
X97295573Y-53252892D01*
X97292700Y-53293590D01*
X97291754Y-53311570D01*
X97294251Y-53319808D01*
X97305471Y-53337599D01*
X97326751Y-53364411D01*
X97337021Y-53376129D01*
X97359225Y-53401466D01*
X97404023Y-53449986D01*
X97462281Y-53511192D01*
X97535129Y-53586307D01*
X97623703Y-53676550D01*
X97729134Y-53783145D01*
X97798492Y-53853093D01*
X97895179Y-53950658D01*
X97991526Y-54047941D01*
X98084638Y-54142014D01*
X98171618Y-54229950D01*
X98249569Y-54308820D01*
X98315596Y-54375699D01*
X98366802Y-54427658D01*
X98567514Y-54631620D01*
X98531058Y-54669671D01*
X98522460Y-54678245D01*
X98497095Y-54699297D01*
X98479695Y-54707723D01*
X98466071Y-54700530D01*
X98440743Y-54678944D01*
X98410379Y-54647995D01*
X98391896Y-54628448D01*
X98357427Y-54592752D01*
X98308712Y-54542684D01*
X98247469Y-54480001D01*
X98175420Y-54406457D01*
X98094285Y-54323810D01*
X98005784Y-54233815D01*
X97911637Y-54138228D01*
X97813565Y-54038805D01*
X97271161Y-53489343D01*
X97249066Y-53774746D01*
X97244250Y-53835662D01*
X97237216Y-53917548D01*
X97230872Y-53979569D01*
X97224748Y-54024987D01*
X97218373Y-54057062D01*
X97211277Y-54079052D01*
X97202991Y-54094219D01*
X97191393Y-54115416D01*
X97181850Y-54154386D01*
X97179010Y-54210531D01*
X97179010Y-54292773D01*
X96952674Y-54292773D01*
X96952674Y-54116733D01*
X96107082Y-54116733D01*
X96058203Y-54172262D01*
X96044836Y-54186722D01*
X95972388Y-54244813D01*
X95890532Y-54280576D01*
X95801900Y-54292773D01*
X95723692Y-54286306D01*
X95635233Y-54259047D01*
X95559507Y-54210328D01*
X95544748Y-54196403D01*
X95507864Y-54151328D01*
X95475503Y-54098819D01*
X95452297Y-54047061D01*
X95442879Y-54004239D01*
X95442697Y-53998023D01*
X95441342Y-53975246D01*
X95437800Y-53959513D01*
X95430390Y-53952068D01*
X95417431Y-53954156D01*
X95397243Y-53967020D01*
X95368145Y-53991905D01*
X95328456Y-54030053D01*
X95276496Y-54082710D01*
X95210584Y-54151119D01*
X95129040Y-54236524D01*
X95085604Y-54282112D01*
X95013000Y-54358441D01*
X94944309Y-54430808D01*
X94882223Y-54496366D01*
X94829434Y-54552274D01*
X94788634Y-54595686D01*
X94762515Y-54623758D01*
X94691119Y-54701436D01*
X94602863Y-54613416D01*
X95148690Y-54041287D01*
X95183105Y-54005188D01*
X95305546Y-53876272D01*
X95410651Y-53764754D01*
X95498736Y-53670288D01*
X95570116Y-53592529D01*
X95620588Y-53536174D01*
X95827247Y-53536174D01*
X95828872Y-53549434D01*
X95829156Y-53550819D01*
X95842698Y-53582228D01*
X95869748Y-53596863D01*
X95953129Y-53628063D01*
X96027418Y-53680038D01*
X96085846Y-53748791D01*
X96125890Y-53831315D01*
X96145026Y-53924606D01*
X96151364Y-54003565D01*
X97100838Y-54003565D01*
X97107458Y-53975273D01*
X97108629Y-53968329D01*
X97112268Y-53937281D01*
X97117234Y-53887081D01*
X97123157Y-53821727D01*
X97129669Y-53745219D01*
X97136401Y-53661555D01*
X97158724Y-53376129D01*
X96857826Y-53070565D01*
X96802636Y-53014704D01*
X96735109Y-52946888D01*
X96674529Y-52886643D01*
X96623021Y-52836052D01*
X96582710Y-52797200D01*
X96555722Y-52772170D01*
X96544182Y-52763046D01*
X96536444Y-52767405D01*
X96513395Y-52787241D01*
X96478709Y-52820375D01*
X96435487Y-52863820D01*
X96386832Y-52914587D01*
X96374140Y-52928051D01*
X96317229Y-52988275D01*
X96249414Y-53059864D01*
X96175800Y-53137437D01*
X96101493Y-53215611D01*
X96031599Y-53289005D01*
X96027401Y-53293409D01*
X95962420Y-53361785D01*
X95912836Y-53414732D01*
X95876688Y-53454767D01*
X95852016Y-53484411D01*
X95836858Y-53506181D01*
X95829256Y-53522595D01*
X95827247Y-53536174D01*
X95620588Y-53536174D01*
X95625105Y-53531131D01*
X95664019Y-53485748D01*
X95687173Y-53456035D01*
X95694882Y-53441644D01*
X95694883Y-53441559D01*
X95693825Y-53423624D01*
X95690737Y-53383421D01*
X95685858Y-53323687D01*
X95679432Y-53247158D01*
X95671700Y-53156569D01*
X95662905Y-53054657D01*
X95653287Y-52944159D01*
X95643091Y-52827811D01*
X95632556Y-52708348D01*
X95621926Y-52588507D01*
X95611442Y-52471025D01*
X95601346Y-52358637D01*
X95591881Y-52254081D01*
X95583288Y-52160091D01*
X95575809Y-52079405D01*
X95569687Y-52014759D01*
X95565162Y-51968888D01*
X95562478Y-51944530D01*
X95557067Y-51903732D01*
X95686253Y-51903732D01*
X95687908Y-51934653D01*
X95691549Y-51986653D01*
X95696995Y-52057487D01*
X95704063Y-52144911D01*
X95712570Y-52246681D01*
X95722335Y-52360552D01*
X95733174Y-52484279D01*
X95744907Y-52615618D01*
X95754079Y-52716908D01*
X95765566Y-52842526D01*
X95776322Y-52958762D01*
X95786131Y-53063380D01*
X95794781Y-53154140D01*
X95802057Y-53228804D01*
X95807746Y-53285134D01*
X95811634Y-53320891D01*
X95813506Y-53333837D01*
X95819188Y-53329826D01*
X95840020Y-53310138D01*
X95873872Y-53276322D01*
X95918412Y-53230837D01*
X95971310Y-53176146D01*
X96030236Y-53114710D01*
X96092858Y-53048990D01*
X96156848Y-52981449D01*
X96219874Y-52914547D01*
X96279606Y-52850746D01*
X96333713Y-52792507D01*
X96379865Y-52742292D01*
X96415733Y-52702563D01*
X96438984Y-52675780D01*
X96445778Y-52666477D01*
X96627601Y-52666477D01*
X96903305Y-52941968D01*
X96970726Y-53009224D01*
X97034267Y-53072162D01*
X97083490Y-53120100D01*
X97120196Y-53154594D01*
X97146190Y-53177199D01*
X97163276Y-53189471D01*
X97173256Y-53192966D01*
X97177935Y-53189238D01*
X97179116Y-53179844D01*
X97179873Y-53164749D01*
X97182601Y-53125883D01*
X97187108Y-53066895D01*
X97193179Y-52990473D01*
X97200596Y-52899305D01*
X97209142Y-52796080D01*
X97218602Y-52683483D01*
X97228758Y-52564205D01*
X97237723Y-52459077D01*
X97247066Y-52348351D01*
X97255443Y-52247814D01*
X97262653Y-52159943D01*
X97268496Y-52087215D01*
X97272769Y-52032110D01*
X97275273Y-51997104D01*
X97275805Y-51984674D01*
X97275384Y-51984908D01*
X97263509Y-51996350D01*
X97237130Y-52023198D01*
X97198570Y-52063018D01*
X97150153Y-52113372D01*
X97094203Y-52171828D01*
X97033042Y-52235948D01*
X96968995Y-52303298D01*
X96904385Y-52371443D01*
X96841535Y-52437948D01*
X96782768Y-52500377D01*
X96730409Y-52556295D01*
X96629533Y-52664406D01*
X96627601Y-52666477D01*
X96445778Y-52666477D01*
X96447290Y-52664406D01*
X96439148Y-52653383D01*
X96415478Y-52626999D01*
X96378478Y-52587527D01*
X96330350Y-52537191D01*
X96273296Y-52478217D01*
X96209520Y-52412830D01*
X96141222Y-52343255D01*
X96070605Y-52271716D01*
X95999871Y-52200438D01*
X95931222Y-52131647D01*
X95866861Y-52067566D01*
X95808989Y-52010422D01*
X95759810Y-51962439D01*
X95721524Y-51925841D01*
X95696334Y-51902854D01*
X95686442Y-51895703D01*
X95686253Y-51903732D01*
X95557067Y-51903732D01*
X95555390Y-51891089D01*
X95280297Y-51891089D01*
X95280140Y-51790495D01*
X95380891Y-51790495D01*
X95462624Y-51790495D01*
X95469895Y-51790489D01*
X95510950Y-51789613D01*
X95533277Y-51785867D01*
X95542529Y-51777270D01*
X95544357Y-51761840D01*
X95536306Y-51739159D01*
X95508730Y-51701428D01*
X95462624Y-51652179D01*
X95380891Y-51571172D01*
X95380891Y-51790495D01*
X95280140Y-51790495D01*
X95279968Y-51680471D01*
X95279639Y-51469852D01*
X94827914Y-51010891D01*
X94376189Y-50551931D01*
X94375570Y-50464848D01*
X94374951Y-50377767D01*
X94916769Y-50926952D01*
X94969137Y-50979998D01*
X95077803Y-51089772D01*
X95170709Y-51183114D01*
X95249055Y-51261173D01*
X95314043Y-51325097D01*
X95366872Y-51376035D01*
X95408743Y-51415135D01*
X95440855Y-51443548D01*
X95464410Y-51462420D01*
X95480608Y-51472901D01*
X95490649Y-51476139D01*
X95507579Y-51475158D01*
X95517084Y-51467996D01*
X95518723Y-51448401D01*
X95514782Y-51410124D01*
X95512065Y-51386025D01*
X95508284Y-51345744D01*
X95506760Y-51318961D01*
X95506015Y-51309728D01*
X95498746Y-51299839D01*
X95478668Y-51296562D01*
X95439689Y-51297992D01*
X95429737Y-51298553D01*
X95389898Y-51297921D01*
X95361560Y-51289167D01*
X95341586Y-51274951D01*
X95624852Y-51274951D01*
X95629013Y-51322104D01*
X95630935Y-51343498D01*
X95636924Y-51401909D01*
X95642826Y-51440381D01*
X95649727Y-51462912D01*
X95658712Y-51473498D01*
X95670870Y-51476139D01*
X95681801Y-51477937D01*
X95689050Y-51486530D01*
X95693100Y-51506505D01*
X95694863Y-51542450D01*
X95695248Y-51598952D01*
X95695248Y-51721766D01*
X95735447Y-51761840D01*
X95833565Y-51859654D01*
X95971881Y-51997542D01*
X95971881Y-51891089D01*
X96726337Y-51891089D01*
X96726337Y-52130000D01*
X96107831Y-52130000D01*
X96317592Y-52346906D01*
X96357770Y-52388334D01*
X96413328Y-52445200D01*
X96461570Y-52494082D01*
X96499971Y-52532441D01*
X96526003Y-52557741D01*
X96537140Y-52567442D01*
X96541373Y-52564767D01*
X96561224Y-52546782D01*
X96595451Y-52513481D01*
X96642227Y-52466712D01*
X96699724Y-52408325D01*
X96766112Y-52340169D01*
X96839564Y-52264094D01*
X96918251Y-52181950D01*
X96997341Y-52098943D01*
X97074871Y-52017136D01*
X97137746Y-51950083D01*
X97187502Y-51896007D01*
X97225678Y-51853129D01*
X97253811Y-51819673D01*
X97273440Y-51793861D01*
X97286101Y-51773914D01*
X97293334Y-51758056D01*
X97296675Y-51744509D01*
X97297561Y-51737910D01*
X97301488Y-51701548D01*
X97306459Y-51648018D01*
X97311927Y-51583421D01*
X97317344Y-51513862D01*
X97319181Y-51489635D01*
X97324488Y-51424178D01*
X97329548Y-51367717D01*
X97333863Y-51325618D01*
X97336934Y-51303243D01*
X97342955Y-51274951D01*
X95624852Y-51274951D01*
X95341586Y-51274951D01*
X95333630Y-51269289D01*
X95328820Y-51265104D01*
X95289482Y-51214427D01*
X95273903Y-51161782D01*
X95614698Y-51161782D01*
X97029221Y-51161782D01*
X97241881Y-51161782D01*
X97298908Y-51161782D01*
X97315993Y-51161662D01*
X97341308Y-51159462D01*
X97348616Y-51152334D01*
X97342943Y-51137508D01*
X97341267Y-51134682D01*
X97322448Y-51112944D01*
X97295183Y-51088820D01*
X97267987Y-51069254D01*
X97249371Y-51061188D01*
X97247697Y-51062463D01*
X97243544Y-51079976D01*
X97241881Y-51111485D01*
X97241881Y-51161782D01*
X97029221Y-51161782D01*
X97025526Y-51071095D01*
X97021832Y-50980407D01*
X96946386Y-50965252D01*
X96908551Y-50958379D01*
X96845368Y-50948756D01*
X96786065Y-50941496D01*
X96701188Y-50932893D01*
X96701188Y-51036040D01*
X96122773Y-51036040D01*
X96122773Y-50945122D01*
X96050471Y-50953753D01*
X95939998Y-50972249D01*
X95828816Y-51005691D01*
X95736850Y-51052324D01*
X95662542Y-51112786D01*
X95614698Y-51161782D01*
X95273903Y-51161782D01*
X95272172Y-51155934D01*
X95277474Y-51094575D01*
X95305975Y-51035297D01*
X95308733Y-51031606D01*
X95346822Y-50999851D01*
X95396476Y-50981067D01*
X95450002Y-50976071D01*
X95499707Y-50985678D01*
X95537900Y-51010704D01*
X95550831Y-51023480D01*
X95563428Y-51026576D01*
X95581467Y-51016998D01*
X95611928Y-50993082D01*
X95621274Y-50985731D01*
X95693430Y-50939339D01*
X95701497Y-50935446D01*
X96223367Y-50935446D01*
X96600594Y-50935446D01*
X96600594Y-50872575D01*
X96223367Y-50872575D01*
X96223367Y-50935446D01*
X95701497Y-50935446D01*
X95778915Y-50898084D01*
X95869767Y-50864936D01*
X95958027Y-50842868D01*
X96035736Y-50834852D01*
X96043991Y-50834788D01*
X96089879Y-50830321D01*
X96115079Y-50817795D01*
X96122773Y-50795784D01*
X96123676Y-50788849D01*
X96128615Y-50782885D01*
X96140611Y-50778519D01*
X96162680Y-50775503D01*
X96197836Y-50773590D01*
X96249094Y-50772530D01*
X96319471Y-50772077D01*
X96411980Y-50771980D01*
X96498660Y-50772150D01*
X96572332Y-50772834D01*
X96626265Y-50774215D01*
X96663288Y-50776470D01*
X96686230Y-50779778D01*
X96697920Y-50784320D01*
X96701188Y-50790272D01*
X96711937Y-50804888D01*
X96742055Y-50814215D01*
X96753582Y-50815847D01*
X96792886Y-50821591D01*
X96845188Y-50829378D01*
X96902376Y-50838003D01*
X96933916Y-50842393D01*
X96980074Y-50847148D01*
X97012641Y-50848295D01*
X97026023Y-50845495D01*
X97028308Y-50843671D01*
X97049405Y-50839165D01*
X97087355Y-50836029D01*
X97136048Y-50834852D01*
X97241881Y-50834852D01*
X97241894Y-50872575D01*
X97241894Y-50875718D01*
G37*
X100818597Y-64126335D02*
X100837700Y-64144740D01*
X100893401Y-64200870D01*
X100967074Y-64277287D01*
X101055138Y-64370092D01*
X101154012Y-64475388D01*
X101260118Y-64589277D01*
X101369875Y-64707862D01*
X101479702Y-64827244D01*
X101586020Y-64943525D01*
X101685248Y-65052809D01*
X101773807Y-65151196D01*
X101848115Y-65234790D01*
X101904593Y-65299692D01*
X101939661Y-65342005D01*
X101949738Y-65357830D01*
X101946280Y-65359578D01*
X101913208Y-65378034D01*
X101847796Y-65415243D01*
X101752799Y-65469620D01*
X101630973Y-65539578D01*
X101485072Y-65623531D01*
X101317852Y-65719893D01*
X101132068Y-65827077D01*
X100930476Y-65943497D01*
X100715830Y-66067567D01*
X100490887Y-66197702D01*
X100406809Y-66246357D01*
X100185820Y-66374189D01*
X99976410Y-66495247D01*
X99781302Y-66607960D01*
X99603219Y-66710759D01*
X99444886Y-66802074D01*
X99309025Y-66880333D01*
X99198360Y-66943968D01*
X99115614Y-66991407D01*
X99063512Y-67021082D01*
X99044776Y-67031420D01*
X99045618Y-67025914D01*
X99060993Y-66994271D01*
X99089269Y-66943719D01*
X99106615Y-66913797D01*
X99143504Y-66849988D01*
X99197786Y-66756009D01*
X99267698Y-66634917D01*
X99351477Y-66489765D01*
X99447362Y-66323607D01*
X99553588Y-66139499D01*
X99668392Y-65940495D01*
X99790013Y-65729649D01*
X99916687Y-65510017D01*
X100040722Y-65295016D01*
X100161310Y-65086130D01*
X100274701Y-64889849D01*
X100379191Y-64709114D01*
X100473079Y-64546867D01*
X100554660Y-64406049D01*
X100622231Y-64289602D01*
X100674089Y-64200469D01*
X100708531Y-64141590D01*
X100723854Y-64115908D01*
X100755292Y-64066872D01*
X100818597Y-64126335D01*
G36*
X100818597Y-64126335D02*
G01*
X100837700Y-64144740D01*
X100893401Y-64200870D01*
X100967074Y-64277287D01*
X101055138Y-64370092D01*
X101154012Y-64475388D01*
X101260118Y-64589277D01*
X101369875Y-64707862D01*
X101479702Y-64827244D01*
X101586020Y-64943525D01*
X101685248Y-65052809D01*
X101773807Y-65151196D01*
X101848115Y-65234790D01*
X101904593Y-65299692D01*
X101939661Y-65342005D01*
X101949738Y-65357830D01*
X101946280Y-65359578D01*
X101913208Y-65378034D01*
X101847796Y-65415243D01*
X101752799Y-65469620D01*
X101630973Y-65539578D01*
X101485072Y-65623531D01*
X101317852Y-65719893D01*
X101132068Y-65827077D01*
X100930476Y-65943497D01*
X100715830Y-66067567D01*
X100490887Y-66197702D01*
X100406809Y-66246357D01*
X100185820Y-66374189D01*
X99976410Y-66495247D01*
X99781302Y-66607960D01*
X99603219Y-66710759D01*
X99444886Y-66802074D01*
X99309025Y-66880333D01*
X99198360Y-66943968D01*
X99115614Y-66991407D01*
X99063512Y-67021082D01*
X99044776Y-67031420D01*
X99045618Y-67025914D01*
X99060993Y-66994271D01*
X99089269Y-66943719D01*
X99106615Y-66913797D01*
X99143504Y-66849988D01*
X99197786Y-66756009D01*
X99267698Y-66634917D01*
X99351477Y-66489765D01*
X99447362Y-66323607D01*
X99553588Y-66139499D01*
X99668392Y-65940495D01*
X99790013Y-65729649D01*
X99916687Y-65510017D01*
X100040722Y-65295016D01*
X100161310Y-65086130D01*
X100274701Y-64889849D01*
X100379191Y-64709114D01*
X100473079Y-64546867D01*
X100554660Y-64406049D01*
X100622231Y-64289602D01*
X100674089Y-64200469D01*
X100708531Y-64141590D01*
X100723854Y-64115908D01*
X100755292Y-64066872D01*
X100818597Y-64126335D01*
G37*
X105702528Y-64198609D02*
X105710275Y-64210169D01*
X105737963Y-64255573D01*
X105783493Y-64332125D01*
X105845122Y-64436838D01*
X105921108Y-64566723D01*
X106009706Y-64718792D01*
X106109175Y-64890059D01*
X106217772Y-65077535D01*
X106333753Y-65278232D01*
X106455376Y-65489163D01*
X106488731Y-65547073D01*
X106620621Y-65776046D01*
X106753395Y-66006533D01*
X106884340Y-66233828D01*
X107010745Y-66453223D01*
X107129897Y-66660012D01*
X107239084Y-66849486D01*
X107335594Y-67016940D01*
X107416714Y-67157665D01*
X107479732Y-67266954D01*
X107777414Y-67783087D01*
X103603420Y-67783087D01*
X103430863Y-67783072D01*
X103019623Y-67782914D01*
X102620976Y-67782590D01*
X102236865Y-67782109D01*
X101869231Y-67781479D01*
X101520013Y-67780708D01*
X101191153Y-67779804D01*
X100884592Y-67778776D01*
X100602271Y-67777632D01*
X100346130Y-67776380D01*
X100118111Y-67775029D01*
X99920154Y-67773587D01*
X99754201Y-67772063D01*
X99622191Y-67770464D01*
X99526067Y-67768799D01*
X99467769Y-67767076D01*
X99449237Y-67765304D01*
X99462996Y-67756337D01*
X99510468Y-67727764D01*
X99588443Y-67681765D01*
X99693749Y-67620165D01*
X99823215Y-67544788D01*
X99973670Y-67457460D01*
X100141942Y-67360004D01*
X100324860Y-67254246D01*
X100519253Y-67142011D01*
X100721948Y-67025123D01*
X100929775Y-66905407D01*
X101139561Y-66784687D01*
X101348137Y-66664789D01*
X101552330Y-66547537D01*
X101748968Y-66434756D01*
X101934881Y-66328270D01*
X102106897Y-66229905D01*
X102261844Y-66141485D01*
X102396552Y-66064835D01*
X102507848Y-66001780D01*
X102592562Y-65954144D01*
X102647521Y-65923752D01*
X102669555Y-65912429D01*
X102683934Y-65915235D01*
X102727247Y-65940763D01*
X102789001Y-65988057D01*
X102862409Y-66052198D01*
X102928527Y-66116408D01*
X103012741Y-66203875D01*
X103106966Y-66305990D01*
X103206373Y-66417130D01*
X103306132Y-66531675D01*
X103401412Y-66644000D01*
X103487384Y-66748485D01*
X103559217Y-66839506D01*
X103612081Y-66911441D01*
X103641147Y-66958668D01*
X103660550Y-66993159D01*
X103713248Y-67064537D01*
X103780995Y-67140474D01*
X103854133Y-67211230D01*
X103923001Y-67267066D01*
X103977942Y-67298244D01*
X104038620Y-67305450D01*
X104119589Y-67285532D01*
X104196544Y-67239862D01*
X104256265Y-67174324D01*
X104266606Y-67157321D01*
X104279773Y-67129474D01*
X104288354Y-67095961D01*
X104292901Y-67049583D01*
X104293964Y-66983138D01*
X104292092Y-66889427D01*
X104287837Y-66761248D01*
X104284788Y-66687103D01*
X104278309Y-66569846D01*
X104270662Y-66467221D01*
X104262560Y-66388250D01*
X104254716Y-66341954D01*
X104235726Y-66289068D01*
X104179427Y-66184921D01*
X104091944Y-66061519D01*
X103972210Y-65917414D01*
X103819156Y-65751156D01*
X103752738Y-65681107D01*
X103675943Y-65598475D01*
X103612560Y-65528416D01*
X103567803Y-65476714D01*
X103546885Y-65449152D01*
X103544735Y-65444775D01*
X103542156Y-65425934D01*
X103555039Y-65405044D01*
X103588661Y-65377604D01*
X103648298Y-65339111D01*
X103739227Y-65285065D01*
X103816527Y-65239944D01*
X103958774Y-65157407D01*
X104070772Y-65093296D01*
X104156282Y-65045529D01*
X104219066Y-65012024D01*
X104262886Y-64990700D01*
X104291503Y-64979476D01*
X104321116Y-64967023D01*
X104338424Y-64950299D01*
X104340043Y-64946354D01*
X104365367Y-64924415D01*
X104411650Y-64896158D01*
X104484876Y-64856723D01*
X104538944Y-64907056D01*
X104558041Y-64927448D01*
X104602472Y-64982865D01*
X104656723Y-65056856D01*
X104713054Y-65139106D01*
X104833097Y-65320822D01*
X104828386Y-65791916D01*
X104823675Y-66263009D01*
X104755079Y-66329657D01*
X104732028Y-66353418D01*
X104658110Y-66460166D01*
X104614961Y-66587105D01*
X104600259Y-66740394D01*
X104603910Y-66822527D01*
X104629678Y-66967405D01*
X104676644Y-67099636D01*
X104740736Y-67205736D01*
X104785242Y-67244423D01*
X104864352Y-67273807D01*
X104953908Y-67277197D01*
X105042446Y-67256156D01*
X105118502Y-67212250D01*
X105170613Y-67147045D01*
X105172318Y-67143511D01*
X105203817Y-67078957D01*
X105237177Y-67011494D01*
X105265497Y-66948163D01*
X105306122Y-66841420D01*
X105350943Y-66709818D01*
X105398403Y-66559224D01*
X105446943Y-66395501D01*
X105495006Y-66224514D01*
X105541035Y-66052126D01*
X105583472Y-65884203D01*
X105620760Y-65726609D01*
X105651340Y-65585208D01*
X105673657Y-65465865D01*
X105686152Y-65374443D01*
X105687267Y-65316807D01*
X105684754Y-65303714D01*
X105660263Y-65237432D01*
X105614817Y-65148757D01*
X105552406Y-65045707D01*
X105528452Y-65008571D01*
X105432203Y-64857144D01*
X105350389Y-64724717D01*
X105284812Y-64614389D01*
X105237277Y-64529255D01*
X105209591Y-64472414D01*
X105203555Y-64446962D01*
X105204254Y-64446064D01*
X105229240Y-64427731D01*
X105282637Y-64394223D01*
X105357129Y-64350001D01*
X105445401Y-64299525D01*
X105452863Y-64295334D01*
X105548707Y-64242601D01*
X105615456Y-64208972D01*
X105659251Y-64192036D01*
X105686228Y-64189385D01*
X105702528Y-64198609D01*
G36*
X105702528Y-64198609D02*
G01*
X105710275Y-64210169D01*
X105737963Y-64255573D01*
X105783493Y-64332125D01*
X105845122Y-64436838D01*
X105921108Y-64566723D01*
X106009706Y-64718792D01*
X106109175Y-64890059D01*
X106217772Y-65077535D01*
X106333753Y-65278232D01*
X106455376Y-65489163D01*
X106488731Y-65547073D01*
X106620621Y-65776046D01*
X106753395Y-66006533D01*
X106884340Y-66233828D01*
X107010745Y-66453223D01*
X107129897Y-66660012D01*
X107239084Y-66849486D01*
X107335594Y-67016940D01*
X107416714Y-67157665D01*
X107479732Y-67266954D01*
X107777414Y-67783087D01*
X103603420Y-67783087D01*
X103430863Y-67783072D01*
X103019623Y-67782914D01*
X102620976Y-67782590D01*
X102236865Y-67782109D01*
X101869231Y-67781479D01*
X101520013Y-67780708D01*
X101191153Y-67779804D01*
X100884592Y-67778776D01*
X100602271Y-67777632D01*
X100346130Y-67776380D01*
X100118111Y-67775029D01*
X99920154Y-67773587D01*
X99754201Y-67772063D01*
X99622191Y-67770464D01*
X99526067Y-67768799D01*
X99467769Y-67767076D01*
X99449237Y-67765304D01*
X99462996Y-67756337D01*
X99510468Y-67727764D01*
X99588443Y-67681765D01*
X99693749Y-67620165D01*
X99823215Y-67544788D01*
X99973670Y-67457460D01*
X100141942Y-67360004D01*
X100324860Y-67254246D01*
X100519253Y-67142011D01*
X100721948Y-67025123D01*
X100929775Y-66905407D01*
X101139561Y-66784687D01*
X101348137Y-66664789D01*
X101552330Y-66547537D01*
X101748968Y-66434756D01*
X101934881Y-66328270D01*
X102106897Y-66229905D01*
X102261844Y-66141485D01*
X102396552Y-66064835D01*
X102507848Y-66001780D01*
X102592562Y-65954144D01*
X102647521Y-65923752D01*
X102669555Y-65912429D01*
X102683934Y-65915235D01*
X102727247Y-65940763D01*
X102789001Y-65988057D01*
X102862409Y-66052198D01*
X102928527Y-66116408D01*
X103012741Y-66203875D01*
X103106966Y-66305990D01*
X103206373Y-66417130D01*
X103306132Y-66531675D01*
X103401412Y-66644000D01*
X103487384Y-66748485D01*
X103559217Y-66839506D01*
X103612081Y-66911441D01*
X103641147Y-66958668D01*
X103660550Y-66993159D01*
X103713248Y-67064537D01*
X103780995Y-67140474D01*
X103854133Y-67211230D01*
X103923001Y-67267066D01*
X103977942Y-67298244D01*
X104038620Y-67305450D01*
X104119589Y-67285532D01*
X104196544Y-67239862D01*
X104256265Y-67174324D01*
X104266606Y-67157321D01*
X104279773Y-67129474D01*
X104288354Y-67095961D01*
X104292901Y-67049583D01*
X104293964Y-66983138D01*
X104292092Y-66889427D01*
X104287837Y-66761248D01*
X104284788Y-66687103D01*
X104278309Y-66569846D01*
X104270662Y-66467221D01*
X104262560Y-66388250D01*
X104254716Y-66341954D01*
X104235726Y-66289068D01*
X104179427Y-66184921D01*
X104091944Y-66061519D01*
X103972210Y-65917414D01*
X103819156Y-65751156D01*
X103752738Y-65681107D01*
X103675943Y-65598475D01*
X103612560Y-65528416D01*
X103567803Y-65476714D01*
X103546885Y-65449152D01*
X103544735Y-65444775D01*
X103542156Y-65425934D01*
X103555039Y-65405044D01*
X103588661Y-65377604D01*
X103648298Y-65339111D01*
X103739227Y-65285065D01*
X103816527Y-65239944D01*
X103958774Y-65157407D01*
X104070772Y-65093296D01*
X104156282Y-65045529D01*
X104219066Y-65012024D01*
X104262886Y-64990700D01*
X104291503Y-64979476D01*
X104321116Y-64967023D01*
X104338424Y-64950299D01*
X104340043Y-64946354D01*
X104365367Y-64924415D01*
X104411650Y-64896158D01*
X104484876Y-64856723D01*
X104538944Y-64907056D01*
X104558041Y-64927448D01*
X104602472Y-64982865D01*
X104656723Y-65056856D01*
X104713054Y-65139106D01*
X104833097Y-65320822D01*
X104828386Y-65791916D01*
X104823675Y-66263009D01*
X104755079Y-66329657D01*
X104732028Y-66353418D01*
X104658110Y-66460166D01*
X104614961Y-66587105D01*
X104600259Y-66740394D01*
X104603910Y-66822527D01*
X104629678Y-66967405D01*
X104676644Y-67099636D01*
X104740736Y-67205736D01*
X104785242Y-67244423D01*
X104864352Y-67273807D01*
X104953908Y-67277197D01*
X105042446Y-67256156D01*
X105118502Y-67212250D01*
X105170613Y-67147045D01*
X105172318Y-67143511D01*
X105203817Y-67078957D01*
X105237177Y-67011494D01*
X105265497Y-66948163D01*
X105306122Y-66841420D01*
X105350943Y-66709818D01*
X105398403Y-66559224D01*
X105446943Y-66395501D01*
X105495006Y-66224514D01*
X105541035Y-66052126D01*
X105583472Y-65884203D01*
X105620760Y-65726609D01*
X105651340Y-65585208D01*
X105673657Y-65465865D01*
X105686152Y-65374443D01*
X105687267Y-65316807D01*
X105684754Y-65303714D01*
X105660263Y-65237432D01*
X105614817Y-65148757D01*
X105552406Y-65045707D01*
X105528452Y-65008571D01*
X105432203Y-64857144D01*
X105350389Y-64724717D01*
X105284812Y-64614389D01*
X105237277Y-64529255D01*
X105209591Y-64472414D01*
X105203555Y-64446962D01*
X105204254Y-64446064D01*
X105229240Y-64427731D01*
X105282637Y-64394223D01*
X105357129Y-64350001D01*
X105445401Y-64299525D01*
X105452863Y-64295334D01*
X105548707Y-64242601D01*
X105615456Y-64208972D01*
X105659251Y-64192036D01*
X105686228Y-64189385D01*
X105702528Y-64198609D01*
G37*
X103192052Y-59859119D02*
X103207580Y-59882462D01*
X103241791Y-59938543D01*
X103292966Y-60024380D01*
X103359387Y-60136991D01*
X103439335Y-60273394D01*
X103531092Y-60430606D01*
X103632940Y-60605647D01*
X103743161Y-60795532D01*
X103860035Y-60997281D01*
X103981845Y-61207912D01*
X104106873Y-61424442D01*
X104233399Y-61643889D01*
X104359706Y-61863271D01*
X104484076Y-62079605D01*
X104604789Y-62289911D01*
X104720128Y-62491206D01*
X104828374Y-62680507D01*
X104927809Y-62854833D01*
X105016714Y-63011201D01*
X105093371Y-63146629D01*
X105156062Y-63258136D01*
X105203069Y-63342739D01*
X105232672Y-63397456D01*
X105243155Y-63419305D01*
X105243165Y-63419472D01*
X105226261Y-63442399D01*
X105177688Y-63481263D01*
X105102499Y-63532385D01*
X105005748Y-63592088D01*
X104940863Y-63630281D01*
X104847499Y-63683391D01*
X104782467Y-63716861D01*
X104741410Y-63732575D01*
X104719972Y-63732416D01*
X104713794Y-63718265D01*
X104713323Y-63715958D01*
X104695666Y-63687815D01*
X104657603Y-63639958D01*
X104606149Y-63581312D01*
X104582410Y-63556120D01*
X104508794Y-63488309D01*
X104427386Y-63430348D01*
X104333350Y-63380539D01*
X104221845Y-63337182D01*
X104088036Y-63298577D01*
X103927083Y-63263026D01*
X103734148Y-63228828D01*
X103504394Y-63194284D01*
X103239952Y-63155347D01*
X102984311Y-63113534D01*
X102760778Y-63071620D01*
X102564357Y-63028395D01*
X102390050Y-62982651D01*
X102232858Y-62933179D01*
X102087785Y-62878769D01*
X101949833Y-62818213D01*
X101848448Y-62768274D01*
X101751605Y-62715722D01*
X101675020Y-62668807D01*
X101624679Y-62631217D01*
X101606569Y-62606644D01*
X101607103Y-62604833D01*
X101621691Y-62575874D01*
X101654767Y-62515229D01*
X101704372Y-62426294D01*
X101768547Y-62312465D01*
X101845335Y-62177137D01*
X101932777Y-62023705D01*
X102028916Y-61855565D01*
X102131793Y-61676111D01*
X102239450Y-61488741D01*
X102349929Y-61296847D01*
X102461271Y-61103827D01*
X102571519Y-60913075D01*
X102678715Y-60727987D01*
X102780899Y-60551958D01*
X102876115Y-60388384D01*
X102962403Y-60240659D01*
X103037806Y-60112180D01*
X103100366Y-60006341D01*
X103148124Y-59926538D01*
X103179122Y-59876166D01*
X103191402Y-59858621D01*
X103192052Y-59859119D01*
G36*
X103192052Y-59859119D02*
G01*
X103207580Y-59882462D01*
X103241791Y-59938543D01*
X103292966Y-60024380D01*
X103359387Y-60136991D01*
X103439335Y-60273394D01*
X103531092Y-60430606D01*
X103632940Y-60605647D01*
X103743161Y-60795532D01*
X103860035Y-60997281D01*
X103981845Y-61207912D01*
X104106873Y-61424442D01*
X104233399Y-61643889D01*
X104359706Y-61863271D01*
X104484076Y-62079605D01*
X104604789Y-62289911D01*
X104720128Y-62491206D01*
X104828374Y-62680507D01*
X104927809Y-62854833D01*
X105016714Y-63011201D01*
X105093371Y-63146629D01*
X105156062Y-63258136D01*
X105203069Y-63342739D01*
X105232672Y-63397456D01*
X105243155Y-63419305D01*
X105243165Y-63419472D01*
X105226261Y-63442399D01*
X105177688Y-63481263D01*
X105102499Y-63532385D01*
X105005748Y-63592088D01*
X104940863Y-63630281D01*
X104847499Y-63683391D01*
X104782467Y-63716861D01*
X104741410Y-63732575D01*
X104719972Y-63732416D01*
X104713794Y-63718265D01*
X104713323Y-63715958D01*
X104695666Y-63687815D01*
X104657603Y-63639958D01*
X104606149Y-63581312D01*
X104582410Y-63556120D01*
X104508794Y-63488309D01*
X104427386Y-63430348D01*
X104333350Y-63380539D01*
X104221845Y-63337182D01*
X104088036Y-63298577D01*
X103927083Y-63263026D01*
X103734148Y-63228828D01*
X103504394Y-63194284D01*
X103239952Y-63155347D01*
X102984311Y-63113534D01*
X102760778Y-63071620D01*
X102564357Y-63028395D01*
X102390050Y-62982651D01*
X102232858Y-62933179D01*
X102087785Y-62878769D01*
X101949833Y-62818213D01*
X101848448Y-62768274D01*
X101751605Y-62715722D01*
X101675020Y-62668807D01*
X101624679Y-62631217D01*
X101606569Y-62606644D01*
X101607103Y-62604833D01*
X101621691Y-62575874D01*
X101654767Y-62515229D01*
X101704372Y-62426294D01*
X101768547Y-62312465D01*
X101845335Y-62177137D01*
X101932777Y-62023705D01*
X102028916Y-61855565D01*
X102131793Y-61676111D01*
X102239450Y-61488741D01*
X102349929Y-61296847D01*
X102461271Y-61103827D01*
X102571519Y-60913075D01*
X102678715Y-60727987D01*
X102780899Y-60551958D01*
X102876115Y-60388384D01*
X102962403Y-60240659D01*
X103037806Y-60112180D01*
X103100366Y-60006341D01*
X103148124Y-59926538D01*
X103179122Y-59876166D01*
X103191402Y-59858621D01*
X103192052Y-59859119D01*
G37*
X103937275Y-50168931D02*
X104021095Y-50613555D01*
X104639667Y-50868551D01*
X105010707Y-50616246D01*
X105084144Y-50566506D01*
X105181499Y-50501218D01*
X105265787Y-50445454D01*
X105332631Y-50402078D01*
X105377654Y-50373953D01*
X105396478Y-50363942D01*
X105408039Y-50371061D01*
X105442596Y-50400894D01*
X105494894Y-50449852D01*
X105560500Y-50513440D01*
X105634983Y-50587163D01*
X105713913Y-50666525D01*
X105792856Y-50747031D01*
X105867384Y-50824185D01*
X105933063Y-50893493D01*
X105985463Y-50950457D01*
X106020153Y-50990584D01*
X106032701Y-51009377D01*
X106029782Y-51017451D01*
X106009571Y-51053469D01*
X105972663Y-51112744D01*
X105922050Y-51190630D01*
X105860725Y-51282481D01*
X105791679Y-51383650D01*
X105753787Y-51438826D01*
X105688606Y-51534884D01*
X105632723Y-51618717D01*
X105589117Y-51685777D01*
X105560769Y-51731519D01*
X105550657Y-51751396D01*
X105550823Y-51752497D01*
X105559743Y-51777694D01*
X105580206Y-51829147D01*
X105609360Y-51900135D01*
X105644353Y-51983935D01*
X105682332Y-52073828D01*
X105720445Y-52163091D01*
X105755839Y-52245003D01*
X105785662Y-52312843D01*
X105807061Y-52359890D01*
X105817184Y-52379422D01*
X105823174Y-52381155D01*
X105859566Y-52388969D01*
X105924427Y-52401915D01*
X106012565Y-52418979D01*
X106118787Y-52439151D01*
X106237902Y-52461418D01*
X106300683Y-52473223D01*
X106415912Y-52495748D01*
X106516662Y-52516550D01*
X106597426Y-52534435D01*
X106652698Y-52548208D01*
X106676971Y-52556674D01*
X106681331Y-52565066D01*
X106688563Y-52606072D01*
X106694246Y-52674368D01*
X106698382Y-52763529D01*
X106700977Y-52867128D01*
X106702036Y-52978740D01*
X106701561Y-53091938D01*
X106699559Y-53200296D01*
X106696033Y-53297389D01*
X106690987Y-53376790D01*
X106684427Y-53432072D01*
X106676356Y-53456810D01*
X106671458Y-53459600D01*
X106634930Y-53471569D01*
X106571565Y-53487405D01*
X106488686Y-53505374D01*
X106393618Y-53523741D01*
X106361542Y-53529591D01*
X106213393Y-53556798D01*
X106096961Y-53578663D01*
X106008209Y-53596093D01*
X105943103Y-53609996D01*
X105897606Y-53621277D01*
X105867682Y-53630843D01*
X105849294Y-53639601D01*
X105838407Y-53648457D01*
X105837142Y-53649943D01*
X105819338Y-53680931D01*
X105792994Y-53737634D01*
X105760661Y-53813399D01*
X105724893Y-53901574D01*
X105688244Y-53995507D01*
X105653266Y-54088547D01*
X105622513Y-54174041D01*
X105598538Y-54245336D01*
X105583895Y-54295782D01*
X105581136Y-54318726D01*
X105582981Y-54321703D01*
X105602075Y-54350493D01*
X105637984Y-54403595D01*
X105687378Y-54476117D01*
X105746927Y-54563167D01*
X105813303Y-54659854D01*
X105831520Y-54686456D01*
X105895577Y-54781875D01*
X105950937Y-54867212D01*
X105994439Y-54937405D01*
X106022924Y-54987394D01*
X106033232Y-55012116D01*
X106031011Y-55018616D01*
X106007858Y-55050644D01*
X105962177Y-55102945D01*
X105897241Y-55171999D01*
X105816319Y-55254286D01*
X105722685Y-55346286D01*
X105669165Y-55397781D01*
X105584542Y-55477983D01*
X105510475Y-55546678D01*
X105450941Y-55600252D01*
X105409917Y-55635085D01*
X105391381Y-55647563D01*
X105378646Y-55642938D01*
X105339436Y-55621057D01*
X105282495Y-55585273D01*
X105215250Y-55540117D01*
X105167438Y-55507165D01*
X105071985Y-55441727D01*
X104970125Y-55372228D01*
X104877088Y-55309075D01*
X104694832Y-55185800D01*
X104541841Y-55268520D01*
X104505817Y-55287613D01*
X104440303Y-55320272D01*
X104389640Y-55342819D01*
X104362564Y-55351226D01*
X104353703Y-55340430D01*
X104331699Y-55299323D01*
X104299199Y-55231549D01*
X104258010Y-55141409D01*
X104209942Y-55033205D01*
X104156802Y-54911237D01*
X104100399Y-54779808D01*
X104042542Y-54643218D01*
X103985038Y-54505767D01*
X103929697Y-54371758D01*
X103878326Y-54245491D01*
X103832735Y-54131268D01*
X103794732Y-54033390D01*
X103766124Y-53956157D01*
X103748721Y-53903871D01*
X103744331Y-53880833D01*
X103744628Y-53880160D01*
X103765077Y-53858863D01*
X103807850Y-53825508D01*
X103864117Y-53787011D01*
X103881877Y-53775256D01*
X104017014Y-53663735D01*
X104128856Y-53530906D01*
X104214755Y-53382298D01*
X104272062Y-53223440D01*
X104298131Y-53059860D01*
X104290313Y-52897088D01*
X104258644Y-52752315D01*
X104201782Y-52606124D01*
X104118888Y-52475703D01*
X104005131Y-52351813D01*
X103960433Y-52312235D01*
X103815935Y-52214723D01*
X103659838Y-52149050D01*
X103496667Y-52114630D01*
X103330943Y-52110874D01*
X103167192Y-52137194D01*
X103009936Y-52193003D01*
X102863698Y-52277714D01*
X102733004Y-52390737D01*
X102622374Y-52531487D01*
X102601105Y-52566342D01*
X102528810Y-52725655D01*
X102490415Y-52891552D01*
X102484914Y-53059737D01*
X102511301Y-53225913D01*
X102568570Y-53385784D01*
X102655717Y-53535053D01*
X102771736Y-53669423D01*
X102915622Y-53784599D01*
X102920294Y-53787702D01*
X102975964Y-53826933D01*
X103017689Y-53860286D01*
X103036746Y-53880833D01*
X103034342Y-53896941D01*
X103019391Y-53943844D01*
X102992881Y-54016539D01*
X102956620Y-54110725D01*
X102912416Y-54222098D01*
X102862076Y-54346358D01*
X102807407Y-54479202D01*
X102750218Y-54616327D01*
X102692316Y-54753432D01*
X102635510Y-54886215D01*
X102581606Y-55010374D01*
X102532412Y-55121606D01*
X102489737Y-55215609D01*
X102455387Y-55288082D01*
X102431171Y-55334722D01*
X102418897Y-55351226D01*
X102408689Y-55348991D01*
X102368586Y-55332926D01*
X102309318Y-55304759D01*
X102239619Y-55268520D01*
X102086629Y-55185800D01*
X101904373Y-55309075D01*
X101850527Y-55345579D01*
X101750374Y-55413784D01*
X101650525Y-55482098D01*
X101566211Y-55540117D01*
X101519679Y-55571736D01*
X101459200Y-55611020D01*
X101414357Y-55637912D01*
X101392455Y-55647883D01*
X101383045Y-55643650D01*
X101349031Y-55617721D01*
X101296595Y-55572070D01*
X101230301Y-55511186D01*
X101154713Y-55439561D01*
X101074396Y-55361683D01*
X100993913Y-55282045D01*
X100917829Y-55205135D01*
X100850707Y-55135445D01*
X100797112Y-55077464D01*
X100761608Y-55035684D01*
X100748759Y-55014593D01*
X100749500Y-55010581D01*
X100764793Y-54977920D01*
X100797462Y-54921412D01*
X100844350Y-54846163D01*
X100902301Y-54757275D01*
X100968157Y-54659854D01*
X100986627Y-54632982D01*
X101051482Y-54538423D01*
X101108609Y-54454827D01*
X101154678Y-54387084D01*
X101186359Y-54340086D01*
X101200324Y-54318726D01*
X101200668Y-54317811D01*
X101196546Y-54291678D01*
X101180807Y-54238740D01*
X101156004Y-54165647D01*
X101124689Y-54079052D01*
X101089417Y-53985608D01*
X101052740Y-53891965D01*
X101017212Y-53804777D01*
X100985386Y-53730695D01*
X100959816Y-53676371D01*
X100943053Y-53648457D01*
X100941374Y-53646724D01*
X100929372Y-53637956D01*
X100909103Y-53629115D01*
X100876529Y-53619292D01*
X100827616Y-53607583D01*
X100758327Y-53593080D01*
X100664625Y-53574876D01*
X100542476Y-53552066D01*
X100387842Y-53523741D01*
X100355770Y-53517780D01*
X100263893Y-53499352D01*
X100186607Y-53481892D01*
X100131236Y-53467133D01*
X100105105Y-53456810D01*
X100100733Y-53448197D01*
X100093445Y-53406826D01*
X100087669Y-53338241D01*
X100083410Y-53248868D01*
X100080673Y-53145135D01*
X100079462Y-53033465D01*
X100079782Y-52920287D01*
X100081636Y-52812026D01*
X100085030Y-52715108D01*
X100089967Y-52635959D01*
X100096452Y-52581006D01*
X100104489Y-52556674D01*
X100112696Y-52553079D01*
X100153519Y-52541748D01*
X100222524Y-52525722D01*
X100314203Y-52506195D01*
X100423050Y-52484362D01*
X100543558Y-52461418D01*
X100609357Y-52449159D01*
X100722135Y-52427901D01*
X100819207Y-52409287D01*
X100895382Y-52394328D01*
X100945469Y-52384036D01*
X100964276Y-52379422D01*
X100964983Y-52378471D01*
X100976961Y-52354310D01*
X100999794Y-52303694D01*
X101030630Y-52233338D01*
X101066613Y-52149958D01*
X101104891Y-52060270D01*
X101142609Y-51970989D01*
X101176913Y-51888832D01*
X101204949Y-51820513D01*
X101223864Y-51772748D01*
X101230803Y-51752254D01*
X101227742Y-51745043D01*
X101207372Y-51710728D01*
X101170422Y-51652970D01*
X101119860Y-51576299D01*
X101058657Y-51485248D01*
X100989781Y-51384350D01*
X100951994Y-51329093D01*
X100886782Y-51232215D01*
X100830871Y-51147193D01*
X100787241Y-51078662D01*
X100758877Y-51031260D01*
X100748759Y-51009623D01*
X100755790Y-50997887D01*
X100785197Y-50962818D01*
X100833441Y-50909745D01*
X100896093Y-50843164D01*
X100968725Y-50767574D01*
X101046908Y-50687472D01*
X101126214Y-50607354D01*
X101202213Y-50531718D01*
X101270478Y-50465062D01*
X101326580Y-50411882D01*
X101366090Y-50376676D01*
X101384579Y-50363942D01*
X101394843Y-50368893D01*
X101432530Y-50391857D01*
X101493348Y-50430938D01*
X101572913Y-50483272D01*
X101666843Y-50545996D01*
X101770754Y-50616246D01*
X102141794Y-50868551D01*
X102451080Y-50741053D01*
X102760365Y-50613555D01*
X102844186Y-50168931D01*
X102928006Y-49724307D01*
X103853454Y-49724307D01*
X103937275Y-50168931D01*
G36*
X103937275Y-50168931D02*
G01*
X104021095Y-50613555D01*
X104639667Y-50868551D01*
X105010707Y-50616246D01*
X105084144Y-50566506D01*
X105181499Y-50501218D01*
X105265787Y-50445454D01*
X105332631Y-50402078D01*
X105377654Y-50373953D01*
X105396478Y-50363942D01*
X105408039Y-50371061D01*
X105442596Y-50400894D01*
X105494894Y-50449852D01*
X105560500Y-50513440D01*
X105634983Y-50587163D01*
X105713913Y-50666525D01*
X105792856Y-50747031D01*
X105867384Y-50824185D01*
X105933063Y-50893493D01*
X105985463Y-50950457D01*
X106020153Y-50990584D01*
X106032701Y-51009377D01*
X106029782Y-51017451D01*
X106009571Y-51053469D01*
X105972663Y-51112744D01*
X105922050Y-51190630D01*
X105860725Y-51282481D01*
X105791679Y-51383650D01*
X105753787Y-51438826D01*
X105688606Y-51534884D01*
X105632723Y-51618717D01*
X105589117Y-51685777D01*
X105560769Y-51731519D01*
X105550657Y-51751396D01*
X105550823Y-51752497D01*
X105559743Y-51777694D01*
X105580206Y-51829147D01*
X105609360Y-51900135D01*
X105644353Y-51983935D01*
X105682332Y-52073828D01*
X105720445Y-52163091D01*
X105755839Y-52245003D01*
X105785662Y-52312843D01*
X105807061Y-52359890D01*
X105817184Y-52379422D01*
X105823174Y-52381155D01*
X105859566Y-52388969D01*
X105924427Y-52401915D01*
X106012565Y-52418979D01*
X106118787Y-52439151D01*
X106237902Y-52461418D01*
X106300683Y-52473223D01*
X106415912Y-52495748D01*
X106516662Y-52516550D01*
X106597426Y-52534435D01*
X106652698Y-52548208D01*
X106676971Y-52556674D01*
X106681331Y-52565066D01*
X106688563Y-52606072D01*
X106694246Y-52674368D01*
X106698382Y-52763529D01*
X106700977Y-52867128D01*
X106702036Y-52978740D01*
X106701561Y-53091938D01*
X106699559Y-53200296D01*
X106696033Y-53297389D01*
X106690987Y-53376790D01*
X106684427Y-53432072D01*
X106676356Y-53456810D01*
X106671458Y-53459600D01*
X106634930Y-53471569D01*
X106571565Y-53487405D01*
X106488686Y-53505374D01*
X106393618Y-53523741D01*
X106361542Y-53529591D01*
X106213393Y-53556798D01*
X106096961Y-53578663D01*
X106008209Y-53596093D01*
X105943103Y-53609996D01*
X105897606Y-53621277D01*
X105867682Y-53630843D01*
X105849294Y-53639601D01*
X105838407Y-53648457D01*
X105837142Y-53649943D01*
X105819338Y-53680931D01*
X105792994Y-53737634D01*
X105760661Y-53813399D01*
X105724893Y-53901574D01*
X105688244Y-53995507D01*
X105653266Y-54088547D01*
X105622513Y-54174041D01*
X105598538Y-54245336D01*
X105583895Y-54295782D01*
X105581136Y-54318726D01*
X105582981Y-54321703D01*
X105602075Y-54350493D01*
X105637984Y-54403595D01*
X105687378Y-54476117D01*
X105746927Y-54563167D01*
X105813303Y-54659854D01*
X105831520Y-54686456D01*
X105895577Y-54781875D01*
X105950937Y-54867212D01*
X105994439Y-54937405D01*
X106022924Y-54987394D01*
X106033232Y-55012116D01*
X106031011Y-55018616D01*
X106007858Y-55050644D01*
X105962177Y-55102945D01*
X105897241Y-55171999D01*
X105816319Y-55254286D01*
X105722685Y-55346286D01*
X105669165Y-55397781D01*
X105584542Y-55477983D01*
X105510475Y-55546678D01*
X105450941Y-55600252D01*
X105409917Y-55635085D01*
X105391381Y-55647563D01*
X105378646Y-55642938D01*
X105339436Y-55621057D01*
X105282495Y-55585273D01*
X105215250Y-55540117D01*
X105167438Y-55507165D01*
X105071985Y-55441727D01*
X104970125Y-55372228D01*
X104877088Y-55309075D01*
X104694832Y-55185800D01*
X104541841Y-55268520D01*
X104505817Y-55287613D01*
X104440303Y-55320272D01*
X104389640Y-55342819D01*
X104362564Y-55351226D01*
X104353703Y-55340430D01*
X104331699Y-55299323D01*
X104299199Y-55231549D01*
X104258010Y-55141409D01*
X104209942Y-55033205D01*
X104156802Y-54911237D01*
X104100399Y-54779808D01*
X104042542Y-54643218D01*
X103985038Y-54505767D01*
X103929697Y-54371758D01*
X103878326Y-54245491D01*
X103832735Y-54131268D01*
X103794732Y-54033390D01*
X103766124Y-53956157D01*
X103748721Y-53903871D01*
X103744331Y-53880833D01*
X103744628Y-53880160D01*
X103765077Y-53858863D01*
X103807850Y-53825508D01*
X103864117Y-53787011D01*
X103881877Y-53775256D01*
X104017014Y-53663735D01*
X104128856Y-53530906D01*
X104214755Y-53382298D01*
X104272062Y-53223440D01*
X104298131Y-53059860D01*
X104290313Y-52897088D01*
X104258644Y-52752315D01*
X104201782Y-52606124D01*
X104118888Y-52475703D01*
X104005131Y-52351813D01*
X103960433Y-52312235D01*
X103815935Y-52214723D01*
X103659838Y-52149050D01*
X103496667Y-52114630D01*
X103330943Y-52110874D01*
X103167192Y-52137194D01*
X103009936Y-52193003D01*
X102863698Y-52277714D01*
X102733004Y-52390737D01*
X102622374Y-52531487D01*
X102601105Y-52566342D01*
X102528810Y-52725655D01*
X102490415Y-52891552D01*
X102484914Y-53059737D01*
X102511301Y-53225913D01*
X102568570Y-53385784D01*
X102655717Y-53535053D01*
X102771736Y-53669423D01*
X102915622Y-53784599D01*
X102920294Y-53787702D01*
X102975964Y-53826933D01*
X103017689Y-53860286D01*
X103036746Y-53880833D01*
X103034342Y-53896941D01*
X103019391Y-53943844D01*
X102992881Y-54016539D01*
X102956620Y-54110725D01*
X102912416Y-54222098D01*
X102862076Y-54346358D01*
X102807407Y-54479202D01*
X102750218Y-54616327D01*
X102692316Y-54753432D01*
X102635510Y-54886215D01*
X102581606Y-55010374D01*
X102532412Y-55121606D01*
X102489737Y-55215609D01*
X102455387Y-55288082D01*
X102431171Y-55334722D01*
X102418897Y-55351226D01*
X102408689Y-55348991D01*
X102368586Y-55332926D01*
X102309318Y-55304759D01*
X102239619Y-55268520D01*
X102086629Y-55185800D01*
X101904373Y-55309075D01*
X101850527Y-55345579D01*
X101750374Y-55413784D01*
X101650525Y-55482098D01*
X101566211Y-55540117D01*
X101519679Y-55571736D01*
X101459200Y-55611020D01*
X101414357Y-55637912D01*
X101392455Y-55647883D01*
X101383045Y-55643650D01*
X101349031Y-55617721D01*
X101296595Y-55572070D01*
X101230301Y-55511186D01*
X101154713Y-55439561D01*
X101074396Y-55361683D01*
X100993913Y-55282045D01*
X100917829Y-55205135D01*
X100850707Y-55135445D01*
X100797112Y-55077464D01*
X100761608Y-55035684D01*
X100748759Y-55014593D01*
X100749500Y-55010581D01*
X100764793Y-54977920D01*
X100797462Y-54921412D01*
X100844350Y-54846163D01*
X100902301Y-54757275D01*
X100968157Y-54659854D01*
X100986627Y-54632982D01*
X101051482Y-54538423D01*
X101108609Y-54454827D01*
X101154678Y-54387084D01*
X101186359Y-54340086D01*
X101200324Y-54318726D01*
X101200668Y-54317811D01*
X101196546Y-54291678D01*
X101180807Y-54238740D01*
X101156004Y-54165647D01*
X101124689Y-54079052D01*
X101089417Y-53985608D01*
X101052740Y-53891965D01*
X101017212Y-53804777D01*
X100985386Y-53730695D01*
X100959816Y-53676371D01*
X100943053Y-53648457D01*
X100941374Y-53646724D01*
X100929372Y-53637956D01*
X100909103Y-53629115D01*
X100876529Y-53619292D01*
X100827616Y-53607583D01*
X100758327Y-53593080D01*
X100664625Y-53574876D01*
X100542476Y-53552066D01*
X100387842Y-53523741D01*
X100355770Y-53517780D01*
X100263893Y-53499352D01*
X100186607Y-53481892D01*
X100131236Y-53467133D01*
X100105105Y-53456810D01*
X100100733Y-53448197D01*
X100093445Y-53406826D01*
X100087669Y-53338241D01*
X100083410Y-53248868D01*
X100080673Y-53145135D01*
X100079462Y-53033465D01*
X100079782Y-52920287D01*
X100081636Y-52812026D01*
X100085030Y-52715108D01*
X100089967Y-52635959D01*
X100096452Y-52581006D01*
X100104489Y-52556674D01*
X100112696Y-52553079D01*
X100153519Y-52541748D01*
X100222524Y-52525722D01*
X100314203Y-52506195D01*
X100423050Y-52484362D01*
X100543558Y-52461418D01*
X100609357Y-52449159D01*
X100722135Y-52427901D01*
X100819207Y-52409287D01*
X100895382Y-52394328D01*
X100945469Y-52384036D01*
X100964276Y-52379422D01*
X100964983Y-52378471D01*
X100976961Y-52354310D01*
X100999794Y-52303694D01*
X101030630Y-52233338D01*
X101066613Y-52149958D01*
X101104891Y-52060270D01*
X101142609Y-51970989D01*
X101176913Y-51888832D01*
X101204949Y-51820513D01*
X101223864Y-51772748D01*
X101230803Y-51752254D01*
X101227742Y-51745043D01*
X101207372Y-51710728D01*
X101170422Y-51652970D01*
X101119860Y-51576299D01*
X101058657Y-51485248D01*
X100989781Y-51384350D01*
X100951994Y-51329093D01*
X100886782Y-51232215D01*
X100830871Y-51147193D01*
X100787241Y-51078662D01*
X100758877Y-51031260D01*
X100748759Y-51009623D01*
X100755790Y-50997887D01*
X100785197Y-50962818D01*
X100833441Y-50909745D01*
X100896093Y-50843164D01*
X100968725Y-50767574D01*
X101046908Y-50687472D01*
X101126214Y-50607354D01*
X101202213Y-50531718D01*
X101270478Y-50465062D01*
X101326580Y-50411882D01*
X101366090Y-50376676D01*
X101384579Y-50363942D01*
X101394843Y-50368893D01*
X101432530Y-50391857D01*
X101493348Y-50430938D01*
X101572913Y-50483272D01*
X101666843Y-50545996D01*
X101770754Y-50616246D01*
X102141794Y-50868551D01*
X102451080Y-50741053D01*
X102760365Y-50613555D01*
X102844186Y-50168931D01*
X102928006Y-49724307D01*
X103853454Y-49724307D01*
X103937275Y-50168931D01*
G37*
D12*
%TO.C,JP1*%
X103078000Y-48898000D02*
X103678000Y-48898000D01*
X104378000Y-48198000D02*
X104378000Y-46798000D01*
X102378000Y-46798000D02*
X102378000Y-48198000D01*
X103678000Y-46098000D02*
X103078000Y-46098000D01*
X102378000Y-48198000D02*
G75*
G03*
X103078000Y-48898000I699999J-1D01*
G01*
X103678000Y-48898000D02*
G75*
G03*
X104378000Y-48198000I1J699999D01*
G01*
X103078000Y-46098000D02*
G75*
G03*
X102378000Y-46798000I0J-700000D01*
G01*
X104378000Y-46798000D02*
G75*
G03*
X103678000Y-46098000I-700000J0D01*
G01*
%TD*%
M02*
