%TF.GenerationSoftware,KiCad,Pcbnew,7.0.2*%
%TF.CreationDate,2024-02-26T12:12:44+02:00*%
%TF.ProjectId,STM32_EVB,53544d33-325f-4455-9642-2e6b69636164,01*%
%TF.SameCoordinates,Original*%
%TF.FileFunction,Soldermask,Bot*%
%TF.FilePolarity,Negative*%
%FSLAX46Y46*%
G04 Gerber Fmt 4.6, Leading zero omitted, Abs format (unit mm)*
G04 Created by KiCad (PCBNEW 7.0.2) date 2024-02-26 12:12:44*
%MOMM*%
%LPD*%
G01*
G04 APERTURE LIST*
G04 Aperture macros list*
%AMFreePoly0*
4,1,19,0.500000,-0.750000,0.000000,-0.750000,0.000000,-0.744911,-0.071157,-0.744911,-0.207708,-0.704816,-0.327430,-0.627875,-0.420627,-0.520320,-0.479746,-0.390866,-0.500000,-0.250000,-0.500000,0.250000,-0.479746,0.390866,-0.420627,0.520320,-0.327430,0.627875,-0.207708,0.704816,-0.071157,0.744911,0.000000,0.744911,0.000000,0.750000,0.500000,0.750000,0.500000,-0.750000,0.500000,-0.750000,
$1*%
%AMFreePoly1*
4,1,19,0.000000,0.744911,0.071157,0.744911,0.207708,0.704816,0.327430,0.627875,0.420627,0.520320,0.479746,0.390866,0.500000,0.250000,0.500000,-0.250000,0.479746,-0.390866,0.420627,-0.520320,0.327430,-0.627875,0.207708,-0.704816,0.071157,-0.744911,0.000000,-0.744911,0.000000,-0.750000,-0.500000,-0.750000,-0.500000,0.750000,0.000000,0.750000,0.000000,0.744911,0.000000,0.744911,
$1*%
G04 Aperture macros list end*
%ADD10C,2.000000*%
%ADD11C,0.750000*%
%ADD12C,0.990600*%
%ADD13R,1.700000X1.700000*%
%ADD14O,1.700000X1.700000*%
%ADD15O,1.104000X2.004000*%
%ADD16FreePoly0,90.000000*%
%ADD17FreePoly1,90.000000*%
G04 APERTURE END LIST*
D10*
%TO.C,H3*%
X88900000Y-98298000D03*
%TD*%
%TO.C,H4*%
X106680000Y-98298000D03*
%TD*%
%TO.C,H1*%
X88900000Y-49022000D03*
%TD*%
%TO.C,H2*%
X106680000Y-49022000D03*
%TD*%
D11*
%TO.C,S3*%
X102362000Y-78240000D03*
%TD*%
%TO.C,S1*%
X93218000Y-78240000D03*
%TD*%
%TO.C,S2*%
X97790000Y-78240000D03*
%TD*%
D12*
%TO.C,J3*%
X94234000Y-68961000D03*
X99314000Y-67945000D03*
X99314000Y-69977000D03*
%TD*%
D13*
%TO.C,J5*%
X88900000Y-93980000D03*
D14*
X88900000Y-91440000D03*
X88900000Y-88900000D03*
X88900000Y-86360000D03*
X88900000Y-83820000D03*
X88900000Y-81280000D03*
X88900000Y-78740000D03*
X88900000Y-76200000D03*
X88900000Y-73660000D03*
X88900000Y-71120000D03*
X88900000Y-68580000D03*
X88900000Y-66040000D03*
X88900000Y-63500000D03*
X88900000Y-60960000D03*
X88900000Y-58420000D03*
X88900000Y-55880000D03*
%TD*%
D15*
%TO.C,J2*%
X94998000Y-99385500D03*
X101598000Y-99385500D03*
%TD*%
D13*
%TO.C,J4*%
X106680000Y-71120000D03*
D14*
X106680000Y-73660000D03*
X106680000Y-76200000D03*
X106680000Y-78740000D03*
X106680000Y-81280000D03*
X106680000Y-83820000D03*
X106680000Y-86360000D03*
X106680000Y-88900000D03*
X106680000Y-91440000D03*
X106680000Y-93980000D03*
%TD*%
D16*
%TO.C,JP1*%
X103378000Y-48148000D03*
D17*
X103378000Y-46848000D03*
%TD*%
M02*
